<mxfile host="Electron" modified="2024-10-11T06:18:52.691Z" agent="Mozilla/5.0 (Windows NT 10.0; Win64; x64) AppleWebKit/537.36 (KHTML, like Gecko) draw.io/22.1.18 Chrome/120.0.6099.199 Electron/28.1.2 Safari/537.36" etag="z3i5VLN-Z4nnr_TPCCbA" version="22.1.18" type="device">
  <diagram name="第 1 页" id="7reCy-kLpEupQeHsR1Ke">
    <mxGraphModel dx="1843" dy="899" grid="1" gridSize="10" guides="1" tooltips="1" connect="1" arrows="1" fold="1" page="1" pageScale="1" pageWidth="827" pageHeight="1169" math="0" shadow="0">
      <root>
        <mxCell id="0" />
        <mxCell id="1" parent="0" />
        <mxCell id="V8I3GscKFS1iXs_PzZ8c-5" value="" style="shape=image;verticalLabelPosition=bottom;labelBackgroundColor=default;verticalAlign=top;aspect=fixed;imageAspect=0;image=data:image/png,iVBORw0KGgoAAAANSUhEUgAAA7UAAALUCAYAAADUhhV+AAAgAElEQVR4AexdW5Lrqg7NuDKgjKf/zzwykvu3B+NbIASSEBj8wNjRruqyzUOPtSQBTrr3a7F/hsDhCHyXz+u1vN5/y7/DZZ8r8H//+9+5Ch4k3bB6EJmKK8avAsoETcbLBCQ0mmBcNQL148OeECdP8OFuYWiY54y9Xu7wYT+GgcWAxYDFgMWAxYDFgMWAxYDFgMWAxYDFwI1iAI+3dqi9EWn28sFewFgMWAxYDFgMWAxYDFgMWAxYDFgMWAxADNih1g6z9hbKYsBiwGLAYsBiwGLAYsBiwGLAYsBi4LYxYIdaC97bBq+9mbK3kxYDFgMWAxYDFgMWAxYDFgMWAxYDdqi1Q60dai0GLAYsBiwGLAYsBiwGLAYsBiwGLAZuGwN2qLXgvW3wPuet3Hv5838e+t/y97Y3bc/h1bg0Li0GLAYsBiwGLAYsBiwGRsTAbQ+1ny+Y/u/vnQ5l2LiE/0oGD6yhHce+4QSBvi/L95NkiP9+Bud4MqJ8RTfqilc8qCQ1y0IPLZ8luEAHLN8PBj72C1+EfX4ytT/qRzn0Sm2icrEd2+QzypA24TO4kGwP45mtKBtl3f3KfUcSMwyqfCAGiDfGBz47qRQ3bKdtKMOumwomi1FgkeX867WItCec6DEQsgH+O6vXa8F6I+Vusrcpnn4kFhTuWC1/6fz4HNXmYhJjnRbEG3+dcaVhzNaqY/nZVns7fbL8S3slisXZXHtduP65RMW18of5OxVzLTdvtO84FRuIOb48PCwez8TvTzv5LMtR6ysu4/f768cYUWSRxM2jc4oucNju28I8BDCJIf+fapDJ+txD1JWKK9UTN6k4kR1IUD4WBiwa+Cxlyv60OU52kLZ/f8ubLjLqfdLhl4X4QgDbpS34jAuHtAmf/y3/3CeNwgbAPfRJLFT7UM8drug7YoQY8tiLMVH1F+diYcRnSE+M1dcL21HnHXCa2MaQpyyHQzFPmMOhlj5DXAsO/DzkD32GGPn39/GfxFMZbXGBcuwq8cKaXq+FbTmKshg/PfW+mtu/yR1ieho/Lt9wPY4bMJGTxot+AD0Yl9O5Rnt9vcb9hKy1v5Vn52MeaifmGHJwg+v52OCL7mfWmxH40fUcj0tsH7Yjzu57qMW38PEghRv++kEACcMNDD47QOm9Bz2hnS0OOBblJJLkRqpUbPNxXKbsl88oF/1uKfJh7L9/i/+2azxoogxMUvmMuqQN6fnPf/pNbQh937/w1VqUjbLufk2+f0ICcv5eywvjJ2QZixXa9++7fNnXj1t5quiIhzM4UGGiuzinqnkhQd5xNOXz7nxJ+8FXxgkWUg9Qilf3yMcB9ww79VCLOiu6UKddsxqbairiiNc892Asxi/GbT4uy9HGT9K1eWX70M5fvea4n8tPSd+v4j/S7xL2R+ci6MEXhL/9Se0IzIOO2x1qB2AT91bkW6KPWb8H4EexwheS8Ry3v3bh7vV+n9TGT634Bubf3x98rRdBQtBiciJpy/L9+4PDXRiLm/24Wc3mJsCzsUhU6ljZpKEdafPMN06ivyIXu/jGO9maNl9hofn3t3zCV7BhDi5AaIt8RlnCJnyx4A7HMtGDUd9PSRbKvOtVYpFeinhMHR4YgzFWEd8wF/uRwPiVqkaeajowdlFmfMYDmrQ/5wnMQpvvylPBbo8H1g45xmGT+hwOLLe0uVob1oTAP5MR+6Rue071qoAF5kus6WkcdgHWMsZFjgYOeN1NsqgdKDeuDcZfeX1LYGVjsOtQflCoEg+UQ7vXY3sXLhXssesIriFH3VqE61Sqz7vsv2MeI7BKvGPXfsxD7VR0TI03AqDYjV27sQmC/vmvJ8ZPLBq+KXlC/h0dvwjSmfgRm1vW3t54u/GhNm1Q/EYjkJEOUaHoxXYaULjZAfdxo5L4DGPxICAJxoF4KCEk4adzkDj4lWOE2V3xkIA2yGcs1qIfdUpbGj9pgMBIh6U3PZDGhQJtwYUDnxE7YZMmg70gcPNLslDmXa8lLJA/7hfQx2MyxkjECOe28lTRgbEbYzTngdmE42l8hZjD/OgtLlOP9/7K+EY8gVv028GQuAqfdEdcwxwvD/lDOXgF7KmMqbGh9WzG+xCX9KutiCdfJNtylM9BzsgV9UnOZ8RmBpsQL1pLgl0c6338oKywisffYcdYsCuJ4bPiYgjXECdQP3EdK9XaAT6fhWWr3IGY052rVm+ny7EB2GDdwfVcPk+HSWtcuXED8Ev4YP0/NpcxZm/4SS05MH4/4avDsEnFIHObUuCIgIak+Q0Kggq/B4lduJl9aRt9bIuHU1FEkxDxlhp14UYan5ECdyV2sgNjPdiSSmFLFsz0sJRkpq/0oG24cOAzykWbsZ0/A+7/lr9P+ATcb2pKslDmXa/oe4k/jL28H+MTi2L6XVnkv5Wnso4Yu3EjnvMAcRN0YhBRc8N9zIcsnu7KHdYOxFv64bhNfRk0EVMyzw61ot4RbI6OGyREOTSlLqd/PUfdApvnI7F9rd4f7dsT5CUSsphIXQfx4/FKPD+yVs0cE4nQ07gGFbjnwHUs1ee0SSZ5OzNme20bgDnHFDHf8vdCBnMyAJtsvcA1QlmPOI6DsdgSZwPwi5hUdMUxG3zALew9D7W4acHfScTNZgyyL/8qcvxLpqQgEmAxWOPCGPrS4QMXTyywWpCWxsh2+SxliX70KTtMY8EhPhUDIYxFnOInhN/l6/8gGfpVkhlsivNLNrqwQntQFsqWft71WfguMJexBKEUMMniCjESmEWcsZ/zVNWB8aLIwN8Brtt0V15a7Qb+Yq5T/jwwKV7dY6oBBfkeb+RPjgH+VmVQG+w+2yTHhQ5je7UW1nMU5WEe5fy0zUc5dg1xP4yflGehpK7nqeVVOa+2YHM617j24VaVXkv1NsXFI3PydMxz/G6TXyOwCWDE9QJ1PuFQi76cvramvFb3YFtqUZiDFeKmh1r+SVUMMjzsBu9Se3orj0CyDQ0SGoITYhcLZ8cGJ1UA8j17OV8+y0KS9yex6RfU0f62r4aEQIoHHfzECsMgbeQ1udiW8JQ2pkBNfwkZ25LsZyw00nfOH2AlYyc8Y5whD0isfBGA/S5ZcY6nCrDs0kFeYKiH2pgzT+OJ80Jjj+MXxgWcU4xDjaHPVEa89/OQb6kTcmBVxo5CHu34ERmYMhRTrE+pFtZzFDHDeVRW+pT3d/IB8Tjiejo/ny85wOIaU8o/mY/2fATHKON0rllNM64d7qdjzvIL6+g98ut0bHAvFvZnuH7gmQLz4q7X0/Fj+9nj11c8zdz2UBu/Ay7+Gx8kJn1iiAsZFkV0XXwKkybC8SH8v7EYuGlWuKMHD1Z8sRCIGfFtDvaXSNX7NTvakyn4LmxOLgtbUkd0guvKbUT70gYR8RayGVbIzZ2uue+8iGE/QPf1H4WTRYFiG/9wF/a38lTRIQpv+opz4gFMQJ0Oey4vWP7s31WjPHiHKR4Qj25IiudCjKqHWg3PBlm3z40CRgf7hbUmFiexBqR4TjHPcxTsRDmUY2yjsiE8Wv7rtDH+a77M1KZhuLZ+aPajHMqPG4ftwFGet5osazsnNjkXwMiRXCfecD9hfJ+NOZd/L7y57SfEo9g38Fg/J8dSDpwv/2z8UL6s6Uf4CGwv7hsp5wNlOgxjiwGLAYsBiwGLAYsBiwGLAYsBiwGLAYuBI2PADrV2mD/2d2wMT8PTYsBiwGLAYsBiwGLAYsBiwGLAYmBgDNihdiDYR76N0GXpX3dEks/4qF+3w948GS4WAxYDFgMWAxYDFgMWAxYDFgMWA2NiAM879vXjRx1uxwSPJanhbDFgMWAxYDFgMWAxYDFgMWAxYDFwdQzEQ+1///232I9hYDFgMWAxYDFgMWAxYDFgMWAxYDFgMWAxcMcY8J/U4gnXrobAryPg3jbZvzYEDKs2nO46yvidkznjZU5eNKuMKw0Va5MIPCFOnuCD5GX2Z8McGKI42KF29qg1+4YiQJNjqOIbKjOsbkhah8nGbwdYA4caLwPB3qnKuNoJ4I9Mf0KcPMGHu4WbYQ6MURzsUHu3KDZ7T0WAJsepih4g3LB6AIkVF4zfCjgXdhkvF4Lfqdq46gTsR4c/IU6e4MPdws8wB8YoDnaovVsUm72nIkCT41RFDxBuWD2AxIoLxm8FnAu7jJcLwe9UbVx1Avajw58QJ0/w4W7hZ5gDYxQHO9TeLYrN3lMRoMlxqqIHCDesHkBixQXjtwLOhV3Gy4Xgd6o2rjoB+9HhT4iTJ/hwt/AzzIExisMtDrX+/1l9/y3/aMT9+1ver9fy+dLGZUlj/y1/b/gz23KMn/H9wH+MLOVycfwp6HQA4g+V/f2kdujn/3+s76cTnHRF5vuPecptEE+oU87xOERdgEV8RBkOg+j/wXgJvzLdaMNkV5ocZ5uG3GEsvV48XlA/jlMxvBDnkVghFvQq80n+f8wML8z3kLusjwpl9xtzQnAic0zT7XxhOeztfS8dpYBZfsTDOH4L9ankRIVLzJVSTsmYKamI7UUul2Wp2BHnn3Azjpd142t4p7WYyAl4yhxIY/tzrpr3RPUVtzNxtdV/mTNVvDflROI85W2+t/P2y3x8ibq51cmL53XHiYIDzalaXjpXJadHYNvtw8WYP0G9YQ4sUhxucaiFg5/Y4GHxpJkckhU2h1Ao3+83ObilMHZJ/fnQQ13qU++CPq7uu3zIQcTJpBtTKP7poJIVEk1mKFZUjmpPaPQ6nY/EDtfldUdjC5tGp18cao/By+FCsPB+Cv5qTl3YR5PjbDPW4gX0Oyzfy+fzXl6RT7TsWpxHYoUe0yvLJ5c3MZZD/GNOhJxK8H2XDxlLZfL7DTVEiXWXi7QmJTuSNhYLmb1p3Mi7cfwW6pPmbIYN55LhiHUQ46C0mdP0uLYalyt2lEQe0T6Ol3Vrq3h7jETd95i+slqW5HTmnNNBclmuuesenDtiJq62euq4iWtPDe/NORE4p2/wQpywfVBoY/Uz6GTjtjp64byuONFwWK7fi3b5cCHWT1JtmAObFId7HGqXvOj5RfDzWd5kw7L4xMZFFDdKcCig9RIOyZ/l64oDWRDLwQ6HB1ZMlcFpYcZOPo8tDopPOAs2U+kwHNuVG9D5hU+liYFbD7Wf7wF4+aJL7UcuFAcma6LJcbZpa/Hi9WOM+sWbYoqbbto2FueRWGlc8HwSIzxeoRbQezGs/oh4tuYEz/dcNsrLe1IsrMnI557VMo7fMi6ZbytcJhxxJsezGjM4xV/5PNblHlbsyMYf2DCOl3Wj63gDr/TA4cefuW5fyIuG1kxcafa1tFVzhuJN71sExzF5nPguto8ojHED2bgo9FY37XGyUpeC1/W8lJ/UHoNtuw+3omZqYw1zoIficJNDrfzk0SW227CKBGfFDRLVnfNkgscDHx4Y1sKWyS0PlnrkxoctDtUFAP0r68KeqFPIiz76gQkLnOevzP80JsoMg6MsNp5JYg9+PHtZUCmabOb1DzQ5zrZG4izjxelPY3IMr8Z5JFYaFw6b+AmCHMByFrB7+ZohB9aeO3PC5yB9ySBlJ3myB3iGl1P0ECDHjXwex28Zl9zfOpcpX8JMURerMUOVNXLZH1NUybb7cbys27eGd1w7vChc105ct1ner9t/9oiZuNrqazVnGN713Czrh3l53SNxIvKYy8K44q13emqOE4Z32cO1vGScHoRtsw9ls62nEwHDHACjONzmUMvexrkkDIcmmrx8ASUbJVYISAF07ezwVYgoNh+/2oi/P5s2sdQWJ8kXDiI/LyRpLtdMijnvyJ6oTqqviAWVwPw/Dq/8sEUPZ9SA+e5pcpxtHeXO6aL8ed1isZG4ymeUkW8OzvFkJFaaBx4v8u2ENEbfJPnx/ndq8dscaYZ+15kTok7kMok80dlvmxBwwuM4fsu4lNwq4eXaafz7caUaXBLu2le5hMklO2qi9/aN42Xd0jW8GY6nr9t63q97cd6Imbja6qWP8QF1luYt2Er2QX4t3L9f2orB2fOa40TUJb8HiH/jJeGzlpeM04OwbfbhbDB/SL5hDmRTHO5zqPVfLYY/HuATGYtsPJjJjRF9JsUxjg8bF7LhKeaCKCRxnGj3hSIWmFd2YM4LSWlzTQ7eUZl+w4sX+OkWB4ZR+KozQhYlUSzYmH145Yet+TYbEQNxQ5NDdB3+uBYvGY4rh9yl9pX2w61f/B9LO0Fss0iWT2SWb6/ktce16VPbzhoi6gExKdxSebwX8xhsS5sTPmrs07hc0HEBLPKXhxQFyeVaTpVihsr096tc8hnSDt577NM4XtbtXsMbfiVozLrtbank/bo3x4+Yiaut3pVyZg3v9pwo7Q/IPkSsfdyX9v0SnzfPU3OclOqSaF/LS8bpQdg2+zAP7Le3xDAHCikONzrUpk/7XEKmA1ooaF/315DpZpBvlHyB/XzJ1zk7DrXkQM2yQCkk+dvGNIMVkpJMN1zITRLyOyeT6Qxz//7oHxbSFw2PSdwEHIhXZj+XnXsxTwtNjrOtyrhjCgEzZ4/8iXxfjPNIrBg04YHnEzT6thjT2izX1hqPfNx6DSGbMFU1l0eHpFgIvKcCR4cNvR/HbxmXdYf53ISjPlOLmcJI/8fu2mngdugyj2kdx8u6vWt4Owk4xl0Tnseu257X1bxf9+foETNxtdU3j20izotpw7s1J2BcXNfQULa+VWorG4eT73Vtj5MCDgIDx0+GJ4GEc1qQ6cYLuUREdtvuQzbVGjYiYJgDcBSHWx1qfYK93+rh1f/VXlZ4RUH1b6PcAYEcfF3CNi6E8NaRLsp5wvcVEvwas/i0NthZK0g0/nOd4Lcjmf6+IdhPfM8O1UfiJYpkR2Gkvl1xT5PjbP05d0Sjx0zERvbXXK/FeSRWBJl4yxfmEPdKPrvYZ/lUwDYKjjf9OQF5xnlL+oW8qCdt/KEJeGU2k7GjbsfxW8ZF+pqwDD2Cy2pOhQMWrYtSPn2ucblmB5Vz9P04XtYtX8PbS3AcnbZul/N+3frzR8zE1VZvR9VZVu+UfZCWj/B3KOoHuK1+j5zXEyeAw3x70R4fRmL7ZF2GObBLcbjXoTYcxORBVE3y7NOYsPjRg69fbMX/f1vLgHgwTp+e0UK8tsDzxSEo8puyJK/3D4+oOtFO6ms8ECVd1Pb806udeKEN/pNGvsmvQXx1H02Os21RuYthwV9KJFvEQfZCnEdilfxPdyyfsjwKce5zIMRy/NS7NR5hXkqjtpzAeuTw8T/xoC3tcP1gSxYLgdekO/k96m4cv2Vccl/lWM5lhqMQwGJG9GmP7VxyOzRZR7WN42Xd4jW8QQLUrFPW7Wrer9t/9oiZuNrqK8uZKt713Czrl/NSXczmZPrH5V1my4EN3XHC1n1YZ+h+bi0vGafox05su31AvXbdjIBhDtBRHG52qN3MvU00BJoQoMnRNOGHBxlWzybf+J2TX+NlTl40q4wrDRVrkwg8IU6e4IPkZfZnwxwYojjYoXb2qDX7hiJAk2Oo4hsqM6xuSFqHycZvB1gDhxovA8Heqcq42gngj0x/Qpw8wYe7hZthDoxRHOxQ6zEJX4/CrwuKK/1ax9igN7vG4n39X/Qd7e8efbSQ7JFz3dxZ8+s6RKjm+/NLvZH39+X+2bxInu79bFw5/u6ba6Oi7wlx8gQfRvF9lB7DHJCkONih9qjoMjmPQIAmxyMcOtEJw+pEcCcQbfxOQIJigvGigDJpk3E1KTGTmfWEOHmCD5OFxao5hjlARHHwh1rXYD+GgcWAxYDFgMWAxYDFgMWAxYDFgMWAxYDFwF1iAN8A2Ce1iIRdDYHFvn7cEwSu2Nm/5yJg/M7JrfEyJy+aVcaVhoq1SQSeECdP8EHyMvuzYQ4MURzsUDt71Jp9QxGgyTFU8Q2VGVY3JK3DZOO3A6yBQ42XgWDvVGVc7QTwR6Y/IU6e4MPdws0wB8YoDnaovVsUm72nIkCT41RFDxBuWD2AxIoLxm8FnAu7jJcLwe9UbVx1Avajw58QJ0/w4W7hZ5gDYxQHO9TeLYrN3lMRoMlxqqIHCDesHkBixQXjtwLOhV3Gy4Xgd6o2rjoB+9HhT4iTJ/hwt/AzzIExioMdau8WxWbvqQjQ5DhV0QOEG1YPILHigvFbAefCLuPlQvA7VRtXnYD96PAnxMkTfLhb+BnmwBjF4RaH2n9/7+X1/lv+0Yj797e8X6/l86WNy5LG/lv+3vCXy+QYP+P7gb/4LOVycfwp6HQA4g+V/f2kduj/LNQ8308nOOmKzJ7/Fxd1yjkeh6gLsIiP6JXDIPp/PF7ehtdrkbah+hmvNDnOtg+5w1h6vXi8oH4cl/EXBlyF80isEIvaNcV87f9F5BivYavlZ4kH1TaZ3zHflsXpZrnha9J7+WOFTpU6pPEKfj0fBGCMbcwR0gUYVPCtgoT1P9TydrmFWlpVdmznFbyUPMD8QX5oDfPckXj3MgJfEu80tn8d4jHC87tk96j2mbjSfO7Kt7Wc0RQspXxJPGuxE0UV87skd/66Gn0jN91xInERe+FaXjq1kndviiKTrU/EXu222wdNyIY29FXWlCXEXoqvynlA+i7rVskuMS+3oTTxmParMD/G+uOkUBxucaiFjaXY7GGBFVHkAhwSEYre+60ciENSfz70ULcCcNDH1bnNc1pEk26QBYst739RAZrMkCStxcTrdD4SO5x2rzvqKiwATn9M3iPxgkPF++/rXyy0+rLCwJBumhxnK1yLF9DvsHwvn897YbHjO6/FeSRWLVzwmA8zfD6J2hGF1bD1RcK/vIppFDFPOR1FaTc+v7luZyPmA+M/5D3XpQkd13YFvw6TGOcOk1ifQk2jdW4F3yJSGdbf5UP0LFW5hVpaVHZ8xxW8lLxgMYzrDnKk5Z7HlnAcBCc5vesQ547FT8noge0zcaW5zfCq5dtazmjCfVspXwLP5A0es8XN3ZiHKZbShwYz1VUNqq44CTnEfXJrWVqXGAYyL7VDrSYzcI7rlWY3bevygU7cdV9bw/MYg5jCM0JQXI2zmnG4/wpvoRU5tdlH9F2D+RGWHyuD4nCPQ21440KTyyft57O8SSIvCwQ41EksprQtAOmT9bN8XRDSzUwRZwheXkTywbKQgD3p02TXHzdsik9Rok+OVKBiu3IDOuHwmGRvP9R+vkfghYYqRQW7Jr3S5DjbxLV48foxRjFmVaOuwXkkVqrborH7UFvFti3nhQnkcX1+4n99LBE87PYKfnmNFK76HMCXBDswY3KEDr+GpJote/Ht/9pakM87ruUKXkrWpxjGEZSXvC758Seu274GNK3paO+515m40jxtzrdqzmiSsQ33YfiM1zw2/IEjckfjCOfQa0ku/aR2TQaVd+19e5y0+VTPS/lJrcIFwtGxF233AYUfcK2u4QW/mE9teKqWMjluRDkm1fkHNF6C+QF2Hy2C4nCTQ608pLlAdJsbEZAsyFKAyQSPm19MiDWEmdzyYKlHfsLMFpDqIoH+lXVhT9Qp5EUf/cCEBc7zV+Z/GhNlhsFRFhvPJBUeQCZ9GVEYOE0zTY6zjZI4y3hx+tOYGpa1vvO8GIlVixcxTulgkRe0q4ptY85Teeze662/mAL9836b4Qp+HSb05RzDlHLSgC+byx4gX15+DWEdbqERL0pF/wUbF2nBFbxIG/A55VBoEfnGcxLXtbPWbZA703ozE1fIGb0251uIezVnqMDsHnItfwkk16yQkzhwRx7OXlcziJbFfyNIa8/aaA3MOlPDWl4y3kXOJinuDnOWt2pPV8R68lPGk7NQa0OfwovL1TjTPIU2X9viS5iavrKMvT1XYL7X5jPmUxxuc6iFrw2ETaILxBBMKajlwRcC2tdIVghIkrp2FpQFuNn8oCf+Xm3auFJbnCRfOIh8/9xUtMWiXzALdeAiTvXxzQTBgspi/pMxzN8NeEUdpaISB0x3Q5PjbOPW4kUecvMiihZeg/NIrNDT2pXHfBhZWrBFe4Yty4FyzhftEfO1cT5ffR3BTx+1Ude1XcEvq5HMdRHjDfiy6cqDiv+qXFInFZkjmq7gpeTXag2jeJ61bnsd4e9Z4PpaMnhw+0xcaa4351uYrOaMJji2lfIF2h0++IP7GD+Vxk2URW9KcsO+a+K6Sr3A++Y4Ebj4dStieO1etNkHdHrvdW0NbznUCjx7TMr2DOxDiB5J28cOx3y7qafOpDjc51BLvhbGNq8uKP3BURY5+kwOiXG8j8BNh9rIjkiIVPBDoSYHWjeHLSAiIaNMf0MOkrwje3Iy02IAfrpnhlHp0wWKBRuzE69oJXCQ7Isd097Q5DjbyLV4yYpmMWauwXkkVi1c8JgPMwqYrWIrcjvqL7XHAeGmYRzmrreF/RqFFHbN8xX8shpJ3PbttJ424EumV28B//BiYVUuXVeqYk/rvIKXkjNrNYz+Cg7LT4fzCev2bLk0E1cah835JiaznBF9/LGUL2LNknknn7nQ+Cmc9g7D+RT3QBPW1cyVIz6pFXit5SXjvbBGgp3te9HRse5jkK4JmR8ixiLwYn+7MUYy/cVDdFR8+M1ozA934CCBFIcbHWrTVzFdQqZiFpLuK782xoupD8DPl3yds+NQSw7UjAOlkNQOcKyQlGQ6BUIu0ykenEymM8z9c38xOoKkJzdPyiPxQiN1vdg745Umx9n2ZdwxhYCds0f+ML79nGtwHokVg6bwgDnOurOFzvW2YEsWPiqwOTcL84msxH+wJ+YrGXTh7RX88hoJzvs2unnxzev4tkMH+AP8a3Lp2HYNR468gpeS/SmGSyMGr9tqvpdtO7tnJq40X9vzTc5uzYPSOGhPa5l83p6HKSZBZtoHSR/meW6PkwIuYl1KGOg+ct4LMt1UIVeXBq3tPtSktPYFbqv7IxlTQTbzqeL7milMjhsM+kYu42MxXwPkun6Kw60OtfCHBN7id55C4Lq/AMyiSQSYX+zcASF9RQPkif8qqMCL3zCLPzJNwscAACAASURBVJsuE76vkOBXGsVXD4OdqdgXDArNuU7w25FM8QD7ie/ZofpYvMC8wA35C4d1b67vpclxtjU5d0SjL5giNlzZdC8raAz7KdfgPBIrgkzxli/UYZi2yW3EtiXni8ZErjiHTibmNucfFlfsq8kd1XcFv5zDUMuyAy0gAPyU8S3hRDnwY0Q81OWKOllScmL7FbyU3OExXBjl8H2ftG67/CbrPnBH17mCTYOaZ+JKc7k139ZyRpMNbaV8UdYsn4eJu615yGNyvrqqYdUTJ4AL/WAnP3xyDHKNnHfcV/BaCr/+JD40yUXFlh4f4qStN6Jmoxie/0qMKfvrepyhZO0qDsQifrUZR7cNxfxo4w+UR3G416E2HMTk78GqSZ69NYEApwe9nkOtxz8khAMQf+gmtLeQeJk+EZK83j/EoOpEO8li73QhTprt+VumPXhBsqMevFKsDoznQ0U5W0f9U7kLyuWik2yihfRanEdilfyXdxSDtCGKo3wu8MW6DdsgAXOpkPNRT+FG5hytXRn/QZdI24Lk85uv4Jdxk9XGUCcJQDV8ywiF2hY55fHh5pXlyrnOpnx+Wff+nit4KVmdxbA6MOSoeDmBGBM6HfL+v4FLbWvrkORjLBequ6RxJq6IWfG2Pd+24iznYb5AO98T0LUNTMQYcTj6nxhDJbnpmwHRycnqarSL3HTHycq6tJaXjHe0I6u3fbnU7QPq3XBV7fdyaAyVY0SqLMeZHCmeGQ99eAlJmx5HYr7JwEGTKA43O9QOQsjU/CwCNDl+FoRGxw2rRqBuOsz4nZM442VOXjSrjCsNFWuTCDwhTp7gg+Rl9mfDHBiiONihdvaoNfuGIkCTY6jiGyozrG5IWofJxm8HWAOHGi8Dwd6pyrjaCeCPTH9CnDzBh7uFm2EOjFEc7FDrMaFfYQxfc8Gvu7zaf6fg+IQwu47HtC6RJkd9pPX+Nlaz5uZxcXlffp/NzX15OS427yLp+Vw9O9dGxdkT4uQJPnC+54/t52HOGWh9ojjYobYVNRv3EwjQ5PgJh3c4aVjtAO8GU43fOUkyXubkRbPKuNJQsTaJwBPi5Ak+SF5mfzbMgSGKgz/Uugb7MQwsBiwGLAYsBiwGLAYsBiwGLAYsBiwGLAbuEgP4AsI+qUUk7GoI9Pwn6IaWfxFmMDwXAbeY2b/5EDBe5uOkZJFxVULG2ikCT4iTJ/hAObnDvWEOLFEc7FB7h8g1G4chQJNjmNKbKjKsbkpco9nGbyNQg4cZL4MB36HOuNoB3g9NfUKcPMGHu4WcYQ6MURzsUHu3KDZ7T0WAJsepih4g3LB6AIkVF4zfCjgXdhkvF4Lfqdq46gTsR4c/IU6e4MPdws8wB8YoDnaovVsUm72nIkCT41RFDxBuWD2AxIoLxm8FnAu7jJcLwe9UbVx1Avajw58QJ0/w4W7hZ5gDYxQHO9TeLYrN3lMRoMlxqqIHCDesHkBixQXjtwLOhV3Gy4Xgd6o2rjoB+9HhT4iTJ/hwt/AzzIExisMtDrX//t7L6/23/KMR9+9veb9ey+dLG5cljf23/L3hL5fJMX7G9wN/8VnK5eL4U9DpAMQfKvv7Se3Q/1moeb6fTnDSFZnvP+Ypt0E8oU45x+MQdQEW8RFlOAyi/8fi5fUXcEL1M15pcpxtH3KHsfR68XhB/Tgu48+HzzvGopOjjUE5R1/HYdUSv8m7Ml4pxnPMa/8nXeIF41rmW9Iu73bqxDoVcune/M7BI3KIMbCO6UpseI5SjPgI8HX9vXSUchk4xedxeVc0IXZgriGWtIZ5nOP6EqacsW6LNXSdz2j+6TczcbUsM+afyJsiI/eto0WXSEd3nIiYd/Np3Nfy0qn1/XSCa1Rktq9zy2V/OBJ9le5gvKfaVDkPSN9l3SJc0Vu+lrTGMpWw7747bvapm3Y2xeEWh1pINrFBwM2eiGQX4JCIUATfb+VAHJL686GHuhW+gj6uzm12UiAn3SALAp73v6gATWZIrtZi4nU6H4kdTrvXHXW1LGYH4uV8IEVB4rCC9KXdNDnONmQtXkC/i7H38vm8FxY7rvNinMdh1RK/yFYFr7Cpo7nlOFBxfYl6s8DB5v339S/LqAzUrF9DXpHTTbPOUAtiGjsbSF7p+o5rPZ7fCXjcmzOeExkb4FeKo5zz41i5bvOo+VCtYRpWh6/bmJfhRbCXL/nRLB/TdnwO7bF7gvwTNUythaqLeU6pc7WY82300De2jqruiMauONH2jX594ntNukbJPViGnSYz4EblCLPZY5cPbOaeh771fgl+Mp+UmuHwYmNUE3kcZZiqc45tvAbzY304QhrF4R6H2sJm9P35LG92mIMAh/0jFnDaFuDzyfpZvi6YmzaJsHCmzaVOgwtqngh8Hg/6vEhHqT7JUoGK7coN6ISNdtpUbT/Ufr5H4CUM1RYaMWSWR5ocZ9u0Fi9eP8YoxmzNqME4j8MKc1k4j9jQZmxT8VJyDsdTGVUcFRl0bnavjG/VWbUjU3R4w/H8zsRjgKsX49J43w4bZ7mBPJqY43nZbmG9huWx78cfuW67XGJ7gEKMbXdx18yZuMJPrrJ9jFaPsM3HtdyL5Lz6w4LcS5VyhSDqc0XOI/3pdofOBjuSnmvu2uOE7ylL1tbzUn5Sq2CLgrP8wo782u5DPndzS2+cOkXMpzY8W+xrj+UWaW1jLsG8zbShoygONznUykMaHrxEQLJgTYubTHAffK6yY0Kswc/klgdLPfITZtcfD57VQov+lXVhT9Qp5EUf/cCEBc7zV+Z/GhNlhsFRFhvPJNUfGvGrCxnTS5PjbI0SZxkvTn8aU1l40NDBOI/DKsUmuuqvSjzW8ZIYwnPMSRQucgmb4Spl8N78SY7v0RnGZp8a51rOaDmeX/CnZVN9Po8Bsd6cqcQGbGre6q/FHMnP8bxsty7xFGQIfOLa4btxXTtu3QbM6a8myXzb7tsRM2fiqudQm3jV8JRt8NxXRx26EAf8g4AS6nt0BvsuqqMlj2h7c5w01qvEX9Ai8tL1R75EH7ULOGr75kOzD1zBrqfkp4wPJ1Zrc+2k/njf5UubLSb1xPIW+fqcKzDXLbm2leJwm0Mte7viAjG83UtBLQ++ENB+A8UKgQu+kKTKplilhs0PeuLvi6aEoLY4Ob5wkLeQ/hl3dNVkIkmnGpQaqU6qj28mCBZpqjjUkzHM3w14UR3FwsIGTfNAk+Nsoyh3Thflz+sWi02+gaMWlgo4HXPs/TisSGxSF2T+ruIFcpzd+KNuqIQcqrK8UPJR6Wm/Th8X3ua2zUXSve/ueH5n4tFhA/aoMVCCrhobULfbvv1TUrDefjwv6zpLI1ZrGF1LHHYHr9taTZQ2lWwf0T4TVxjvuAWJ/o+uoz4mQg3OjIlWiZv71lHhiPrYHCc0n/DXzOJ6du1etNkHFYENjaIW57WgVN/J/lrg2W3Fplju1lKcMBzzoiXXdlAc7nOoJW9X2IHNBZVfKOWGiT6LIMaDZpy7Qkgp8EV72nyGgo16gnjfj0VcJCS3gBwkeUf2xBdw8NNt0hhGYfOGqqMQ5v+BeEUFykGN9M14S5PjbPvW4iUr0pWY8bJEvJ1t/zisaGwSr1j8hpdNFIMML5ATDzEif6PkbF7s2XAQOkIn6PfxgC/kqEkn3R/P70w8bqxNldiA+v5ZPuKPthxNz/G8bLdwrYbRT0XYmhRzV8YEfV5ft7MaueVFxXb3V2fOxFXroTbDNIv5o2taOoyVAT1a59gXhGW/oKc5Tkprlmhfy0uoVeHPmGb8Umvb96LNPlDxO+674zTqEnWF/fpCHNR94+05SFar8tGYt9o1ehzF4UaHWtiEuA2pS8h0QAtJ93V/DZkWR7o4pk9x3Vy2qaWb4CITJAnoGKWQRNl0XLhnhYQc0rOhQm7WTxqYP649zP1zfzE6giQWhDCfF4Uj8QIF3t8mfIlDF9/S5DjblIw7phD4cPbIHxljV+E8Dqv2+JVYueeEl5QjnwMB1UW+MIdxRx/kePncohPlwdyY1th80vV4fnXftTp0No+bc6YUG7S9o35voe54XrZYAXPqNYyPcWNT7B60bmdYj82RNeRm4goPtakegvVX5F/EjeZNbNRuZO2Qz2FOk7y5YsRZ3h4n8+5F233Q+O1tAw6dTvmT4rsQI6xmFPDsNceNb4q9LYLLc8ZiXrbj6h6Kw60OtfA7sO53lvLDq/8rx2nFjJ+oxCYfcC4ByFwX3I2HLngLQxfldIDE/7ZnbYH3G6loEH6NWbwxDHamxKyHS66TJHumi/ieHapFod+FV7ChEdu6h2N7aXKcrTnnjmj0hVfERvy6EfJ4Lc4jsYL8Q78dTmIx6sCL5RZb4AL+1cUJMGcyCG35rTK+Uafzmekp+JjrPKblDH6v53FnzqixITkOOkj9PYYRkHIGL1vtq9YwFOri9n3Wuq3VAVon0IhrrjNx5RC4PP9c/pC8yO0p8SRzLN9/+ZlKfl5dR0se0faeOAHM5tuL9vhAfd90X1gLeTwpMePjg77oxpzge60sZjQjN8eyJmxb21DMt5k4ZBbF4V6H2rCRlQdRNcmzr9wqGw2/2NI/MrGCf0gIByD+0E3n2gLv+tOnp0GXT84k79X59UJVJ9pJFg+nDXHSbMe3uGnKDrwyn4J/SfgK0Nd10+Q42wqVu6BUjRXfRzZxF+M8Eivnei1+m/BSv5pI8ETCff7wRQ4P0Zg7eKX5j9P5VVlY5YEcnFveWe6HHIz1RtrENR39dBa/l/K4N2eU2AB/xEEq1OAzSt5ZvGyJn1oNS/Igx05bt3G983kyNkeSj/rdTFyhhZfmX6jBWD/b9zv3raOIe+3aHScs5mF/RdeitbxU18usNvblUrcPNUBW+lT7/Ry6nsv10+Gk+yRzQtYq3RwpX5etzz2mdSTmx1h8jhSKw80OtecAYlINAUSAJge22VVHwLDScXlKq/E7J5PGy5y8aFYZVxoq1iYReEKcPMEHycvsz4Y5MERxsEPt7FFr9g1FgCbHUMU3VGZY3ZC0DpON3w6wBg41XgaCvVOVcbUTwB+Z/oQ4eYIPdws3wxwYozjYodZjEr4eFb/mR78OzL9/Pzboza6xePf8wYbRls2njxaS+awbZdGsObrf/9/i9z48/hYv++P4SgnGVSv698m/Vo96xj0hTp7gA+ds/ph8HuacgdYnioMdaltRs3E/gQBNjp9weIeThtUO8G4w1fidkyTjZU5eNKuMKw0Va5MIPCFOnuCD5GX2Z8McGKI4+EOta7Afw8BiwGLAYsBiwGLAYsBiwGLAYsBiwGLAYuAuMYAvIOyTWkTCroZA1/8XZ3C5Ymf/nouA8Tsnt8bLnLxoVhlXGirWJhF4Qpw8wQfJy+zPhjkwRHGwQ+3sUWv2DUWAJsdQxTdUZljdkLQOk43fDrAGDjVeBoK9U5VxtRPAH5n+hDh5gg93CzfDHBijONih9m5RbPaeigBNjlMVPUC4YfUAEisuGL8VcC7sMl4uBL9TtXHVCdiPDn9CnDzBh7uFn2EOjFEc7FB7tyg2e09FgCbHqYoeINywegCJFReM3wo4F3YZLxeC36nauOoE7EeHPyFOnuDD3cLPMAfGKA52qL1bFJu9pyJAk+NURQ8Qblg9gMSKC8ZvBZwLu4yXC8HvVG1cdQL2o8OfECdP8OFu4WeYA2MUh1scav/9vZfX+2/5RyPu39/yfr2Wz5c2Lksa+2/5e8NfLpNj/IzvB/7is5TLxfGnoNMBiD9U9veT2qH/s1DzfD+d4KQrMt9/zFNug3hCnXKOxyHqAiziI8pwGET/j8XL6484cRxQ/YxXmhxn24fcYSy9XjpOOC7jz4fPO8Ziaf5ZfozDqiV+k5dlvFKM55jX/k+6xAvGtcy3pL1wJ/Pc512DTqxTIZe0GCho3N18PL9z8IgcYgy0YVqLnWVZPE8pTjz4nvP30lHOmzg7npcmteogzDXEktYgj3NcX8L0kAcS8zQ24SzHeAmYD0Iuctqdl6pXxzXOxNWyzJh/ImfWoL9hHV1zyfV3x4nEQeyFa3np9Pl+mWCKzJ586vahBZiGMeirdAfjPdWmynlA+i7qS8kMrDuoI7ehNPOY9qswP8b646RQHG5xqIWDn9gc4OImosgFOCQiFPD3WzkQh6T+fOihbgXgoI+rc5vSVJSTbpAFAc/7X1SAJjMkV2sx8Tqdj8QOp93rjrpaFrMj8fouH1IUfNGJtqzgfHE3TY6zTVmLF9DvYuy9fD7vhcWO77wW53FYtcQvslXDK8Q4OWWoselzUNSbBQ6g77+vf1nWmp9Ak3uBxuW5/GQyNJ2hFqTU4Xyjx2ddj+d3Ah4dpqQ2yRpdxnItdqA/5Wg+viy7r+d4Xvr009HVGqbF9OHr9o68pI6cdD8TV7jJT/UkOO04ITkBrSfWUaJLrb8lLnzs3K+Oltyh7V1xou0b/frE95p0fZF1LsNdkxnWHyqH2izvu3yQkzc/98UpvHzEM0JQ2hJXmn2b1xJN2La2azDfZuuZsygO9zjUhjeMNLn8Yvr5LG92mIMAhz0rbqBoW4DVJ+tn+bpgJgW2DLqTkX8qLMfLBX4JG2FcRHghqWx6fJKlAiX10GfQCRvttKHafqj9fI/Ai1pIPz3n7TM+0eQ42761ePH6MUYxZitG+YWrKZ4rQjq6xmGFuSyMQ2xoM7apeCk5h+OpDD+Xb55StyIjdSp3bbVDfXFXtUNRdXDT8fzOxGMAqxljhXcZO14WrBNyE3kkNcfzst26eg3LMfPjT1m3c13bvTpu5kxcdR1qMbZ9TMu9iII1jqfQNeRW+5p13zpKISndt8dJGw71vJSf1Cp8oqGOV7bHxo782u5DPndzC8Zda5w6RcynNjyb7GuI9yY5HYMuwbzDvlFDKQ43OdTKQ5oLRLfpFAHJghUS1R0oZYL7QgodbYdaJrdMk9QjN6quPx48qwmA/pV1YU/UKeRFH/3AhAXO81csCGJMlBkGR1lsPJNUeQCO6AuJyuDLu2hynG2MxFnGi9OfxlQWHm/oeJzHYdUSv8BWHS+JITzHnETCRS5hM1ylDN6bPXlZclOYjXIFbnmLT3NxEyo/5VVmn9J0PL8z8Rgga6ztyEWqY3rswCb9rf5qzFEkHc/LdstSvgUZIo7j2uG7cV2DWoUve/kmM8WIlB1lqetQZ15ud7lr5kxcYQxH3NETBc+EvYarbIPnvjrqlHesWTeuowhz7docJ431KvEXtIq8dP2RL9HH7cSc5a3aU7MP2uSNbclPGZNOoNbm2kn9aY2rFvsauWkR1TrmCsxbbRs5juJwm0MtW/hcIIZPpFJQy4MvBLQv4CzYSJIqxVwlgs0PepTfF6W2ODm+cJBPzvwzrijVZCJJpxqUGqlOqi9uAPxQgkWaCm+son1kDPN3A15Oh5cRfscYfaa6J72nyXG2iZQ7gOzFX7KIxQY2zOJ3yy/EeRxWJDYpKc73GL/4++npE9YcL5Dj7MafdEghggXupKeyUPJR8YnlUmzNbyo6fV57m5NvuYDjW47ndyYeHV5gjxoDGZyNsRM2TCwuM1n7Go7nZbs9qzWMxr+L8dPW7R4ut/vbO3MmrjDes+V4dB31MdG5N6BxVCNhwjpaMxf7muNE4ODXuLiepZena3np1xQMBI9Zmos2wbV9L9rsA1ew/UlwXVrv8/pOfBJ47jCm/9eStiuLM4djHjXPdUNxuM+hlrxd8cGLCemC0i+UcsNEn0UQ40Y4zl0hqBT4oj1tPkPBRj1BfF5ISptUcpBcNY3+fgD46ZKYYdT0ByIOxEvYDIW3VDTF4IsfaXKcbcpavGRFWhRxad9onMdhRWOTeC3ydx0vkBMXOZG/UXIVZyEjTirclHTI4VWdMBj4LdUMKXD/8/H8zsRj/tKxjpjgvcAr1PhP06+r1PWVe4/npaxrrWethtFPRXz8nrZuC37WDB/UPxNXrYfaMXUUCICa1rA3KORbRuOEdTSzUWlojpMSDqJ9LS+hToU/Y1rFrH0v2uyD4v+Wpu44jUrEeaDx69VxunLj8RT7fWXY4U2jMT/cgYMEUhxudKiFTYjbkLoAwrURFs338vd1X9+jxZFvoHBBdXPZprYpEEkSUBKUQhJl03HhnhUSckjPhgq5WT9pYP649jD3z/3F6AiSvuDzonAkXsRAd1stmmLsxY80Oc42JeOOKQQ+nD3ypxhjg3Eeh1V7/Eqs3HPCS8qRz4GAKo6FOYw7+lCoHXSIu6/qxMGgO6Y1Np90PZ5fHTutDp3No6/FTbUfwZW2y2fBYUcNRw2t1+N5adWcj6vXMBiPY9w1xW7YLB+2bit85OYOb5mJKzzUpnoIcFyRf5GIprrnRt+3jkZfKzftcVLAQdQbzLmSStef9ocFmR72WX+nFvK9b50IaDCsKr6XwBPtHsuutUQI2PHYHjc7lNxgKsXhVodaf2B7u99Xyg+v/q8cpxUzfrUsNvni6Q4IZK4L7sZg9IVf/rEolhzp0F2KAV5I8GvM4pOXYKdceGoy+ViS7NF51EV8zxYJmBen7MHLzY2CNN0lb65vp8lxtjXVhcfHlogNv28mf+n6YpxHYgX5V4nfFry0r5uKHPac+9jPsYd46N88g+1cnmtjeavozMYUfDwrTs/g93oeQ31srPsJW4V3FjuyP+ghdTDJ2nd3Bi9bLarWMBTqcDp93Zb4o/JrrzNx5ZC4PP92rFlg+/3qaEsE9sQJ4EBfEKUPM/C/kFzLyzP2oj0+tGBSHVNYC3l8KzXBr7P0RTfmxEpcqcaEGt+9lqjCNjUOxXyThWMmURzudagNBzF5EFWTPPvKrbLJ8Iut+B3FGgchIRyA+EM3pr2FxKvyyZnk9f5RGFUn2ik2VIiTZju+xU1T9uAV5kaceMGoQXx1H02Os21RuQtK5aKTbKFvFq/FeSRWzv9a/PbgRXNW/QTA54+MWcAdcwevXFZiSd5J22UN0z+pfSa/EguK4ek8ZvU21N5U+CR14Rm4oLbS2AGf6EsXH7Cn/MGo0XlXAMQ312pYmhdyR2z+MA449IBzags5kBrg20hR1r68TDaeczcTV+gh4q7VsNPzL+zLUHfvfkfafoc6irjXrt1xgnu8uMfiB7W1vFR5zmqjXANrHmz4v3br4qq9qv1+Rm1/5Gq97tNqXGnWZHi1riWasG1t3XGzTc30sygONzvUTo+tGXhzBGhy3NyV0803rE6H+FIFxu+l8BeVGy9FaKbrMK6mo2RKg54QJ0/wYcrgqBhlmAM4FAc71FYCxrp+DwGaHL/nfZ/HhlUfXncbbfzOyZjxMicvmlXGlYaKtUkEnhAnT/BB8jL7s2EODFEc7FDrMdG/wuSAcj/8K2cjw9zsGom200WTY7Tuu+kzrBxjs+bo/mj6LX7vw+Nv8bI/jq+UYFy1on+f/Gv1qGfcE+LkCT5wzuaPyedhzhlofaI42KG2FTUb9xMI0OT4CYd3OGlY7QDvBlON3zlJMl7m5EWzyrjSULE2icAT4uQJPkheZn82zIEhioM/1LoG+zEMLAYsBiwGLAYsBiwGLAYsBiwGLAYsBiwG7hID+ALCPqlFJOxqCNjXj7tiwBU7+/dcBIzfObk1XubkRbPKuNJQsTaJwBPi5Ak+SF5mfzbMgSGKgx1qZ49as28oAjQ5hiq+oTLD6oakdZhs/HaANXCo8TIQ7J2qjKudAP7I9CfEyRN8uFu4GebAGMXBDrV3i2Kz91QEaHKcqugBwg2rB5BYccH4rYBzYZfxciH4naqNq07AfnT4E+LkCT7cLfwMc2CM4mCH2rtFsdl7KgI0OU5V9ADhhtUDSKy4YPxWwLmwy3i5EPxO1cZVJ2A/OvwJcfIEH+4WfoY5MEZxsEPt3aLY7D0VAZocpyp6gHDD6gEkVlwwfivgXNhlvFwIfqdq46oTsB8d/oQ4eYIPdws/wxwYozjc4lD77++9vN5/yz8acf/+lvfrtXy+tHFZ0th/y98b/nKZHONnfD/wF5+lXC6OPwWdDkD8obK/n9QO/Z+Fmuf76QQnXZHZ8//iok45x+MQdQEW8RG9chhE/0/Ay/0vngETaR+aMNuVJsfZtiE2GEuvF48X1I/jMv5wwEU4j8QKXU1xXfs/5DiOq/gpOVjDGm3xV6wjoSbgvFSHyOjVmhXGKvZckT8j+fUcIXi+LL5jjXV2kC4ASWIU6xjBW7st8LUsqf6lfFT0BpmrMaXpPqhtJC9rJiMOCbOUe9tyIPGQce6MQf4UvtGWK3KlhNNMXJVsxPauHEQeRN1DWfo1cavFS5xTzG2Yr8WFs53x7u17L39s0xg1THfTHScSI1EjMRdKOEuuPSCKTIbpCmrdPqzIa+1GX/O40OKtUNOl70p9Kdnj69xLxF9p8MHtV2F+sBu7xVEcbnGohYOfKFBYVEUkp+IGAf1+KwficAj4fOihbgXXoI+rcxvrtIgn3SALgp33v6gATWZIrtZi4nU6H4kdTrvXHXUVFgOnPybvwXg5I7z8z/J5X5PwK4yq3TQ51AEHNq7FC6hyMfZePp/3wmKH2nERziOxQnd5XIdWnzOiPuCEZQU/LQf9nJS3UZS8Cbka08zNw3zSbAq6JI8sDjR7OmuCNHPr80h+HQYRF+cv4oi1jNY3jxHn28XFas2s8RUOtUxG4IK1eTBXYmor4I3zRvKyZhKLXcnVphzYuA45rt7zrTUzcdXCZVMOVvOopiVwG0+a8Bx1uqnV3Ibxqd4mXSwOM/vSuFnvuuIk1CWOw/V70S4fDiOiVotlvGF8if1oNeZqhjrdTtbXf4CWrxO1ucf0XYP5MbYfKYXicI9DrbLh8EXs81nedLMTNrBQM7EAQtDHOuqQ9EXvs3z9Qig+AVaRhuDlRSQfyAqr7+bzXH8q4ErCoUifZA2b6nA4x6RKsrcfaj/fI/ByjiD+FT/R34muNDnONmstXrx+jFGM2cyo63AeiRW63X2oreLH8xN1NF89aWriqwAAIABJREFUJ/xwlebmcd9as9TFsaMmJBv23Y3kl9dGYTfDeQdnTI7QoawxfoSGezWmpNzjn0fysmZ9vYZtz4G+dei6GriGz0xcrdnanIPVPKppyePB1/P4Amstt5HnXEeKwzUZ+dwZWtrjpM2/hAd6x+dxrnNecBa8ZGjbi7b7EKXvv6nW4oJfrKZzXLYZVNCzTVjXrEsw77JwzGCKw00OtfKQ5gLRbSZFQLJgTQVQJnjcGGNCrOHO5JYHSz3yE2ZWSKoLA/pX1oU9UaeQF330AxMWOM9fmf9pTJQZBkdZbDyTlD3EOaXNYjZjjgaaHGdbJHGW8eL0pzF64bwS55FYIRfJX2zBl1T64bKKX2NeE03iFjh5+VokuvBTq/gmDHO6UrNEDnOJOJ+3nvk0kl/HE30px/yiPHmM2jZZTIZ/qPGl59fiX5Tyr6xVYypXenjLSF7WjE9YhJEihnm+YgxXciC+DKW1D2RHWWIdiu0TrjUzcdXCZVMOBpxLda+sR+aYeF7NbRgfSypRBHF43SdmxJRNt81xQmthRdNaXrr+yLXIWS4Wc5a3ak/NPmiTN7YlP0UseXlam+sg9Wc15loMK+lpmbtvzBWY77P4nNkUh9scatkbIxeI4e1eCmp58CUFkBUCkqRicSzCzeYHPfH3atMGi9riZPnCEd9ChmesyNVkIklXNAo6qE6qLy30bhzBgspj/pMxzN8NeDHfrkt46mrrPU2O1jlbx1HunAzKn5fpcUyHNc8piaf4jQMYPPwrMCOxQox5XIdWgROOlS8JMvxYnJfzOsor3HjefD1IXPmhVL6zca1msbyRytprgpy59Xkkvx5DrI3MYFE/KKZsXPuDzpfQE8UJ3EWsZTEV5513M5KXNS8clvSbBR5bWqMoXy05QNcqOpd+C8u1ow6WMyUO17w4r38mrta8bM7BIEjPo5oW4Mdhkn5IzWR8a3JgvlYm+m3R5F/X1hwnAiNffyKe1+5Fm304CubVWlyqB6SmCzy3mVbSs01az6zhmPcYN3AsxeE+h1rydoVtbOMCJwsefRZBjAtinLuCfinwRXsqrKFoo54gni0aIiG5Bc5eUux5J3tyMtOmAvx0zwwjulGgs5n/R+FF5Thl8JxspAbMd0+T42zr1uIl2zCzmLke55FYIRc8rkMrwwVHhkMqzUE5TuRvnFlqjwP0G28by9tUd5jdMe8Eh9I+pqa9JrBpOx5G8stqI7HZt1MON3JDRMZbzlepTiUO3UQ/h9pT5SyqOvRmJC9rhq/VMPqpSFMOsLWKYB9zxr/9C4dakT8TrjUzcdXEpXJizHJQCOJ5JDrZo5JjPp/DXmc1tyXfSbizMe572K+kpTEz3zXHSQkj0b6Wl74fua7WsPZ1p9mHg4hYr8VKvHndoq7sjpeSnoMcrYgZjXnFlEu7KA43OtSmryO5hMR8hEXzvfx93V9DTm+q8DCF43BBxeLnGXCFgG5QirSQJKBjlEJSO7yxQkIO6VRktIv5ko2IDcwf1xps+nN/MRqdLyz2vCjwBWM7XoCVC7Lspwnr6NolNzQ5zjYg444pBD4yDONf2bse55FYITQYl/jsr+qivIafm9mW10xX9YHnkNcQNluO65iO+KlTVrMK9oCg7I/BVU05oHMkv7w2gvG+LasZFYy6faZ8wX1Wv1mNb4mpbiO6J4zkZc24eg2D2TjGXddzgHISXiJ8vuTXMOih9voauIbPTFyt2erzLRHkh/u2LAelJM6Z7E3PWo7RfKb3aVa6K+vBGMN9X9r7pNkz37XHSQEjVqfSXrnkM+e6INNNFnJL8lx7uw81Ka19EAtOp/xJNVyLN+lTxfdWUwr76+bpOwaOxXyHoSdPpTjc6lDrE+z9Vg+v/q8cs4IsCqDf+LoEIAdfl7CrBRvY8Jtp8WfTZcKnwqozyAsJft1RfCIb7EyJqcvC1lwnSXaCB9hPfM829MfihfbhItPqT5p3zR1NjrMtyLkjGv1iImIDPymiMRynFAp47D/+ZiRWaL3MId+uHWob8WvJa9Qtr24ui2tNp68xrTXrmJog7dz6PJJfzmuoYYXaDJzx3Mi4UJzOxjC+lPyRtZiNTwrAHlpbU98ZdyN5WbO/WsNwclcO7FmHFA7RhouuM3G1BkFrDtbzqKZF4UfkFORSKbdFbBBVPA7hoMJqMxk7421PnABG9AWRPKj1HmqPWXd6fNjNgYgblMdrsRJvsqbHPVUp5lBy7aroqQ0/sG8o5gfafbQoisO9DrXhICYPomqSs68xOQgh8NgbPL/Ytvz140BBSAgHIP7QwskLa04bXzRCv0/OJK/3jy+oOtFOcqj1CLhPbwu2Iz5pygF4eRevS/icgfUWmhzro/eNULkLItVY8X2lN4vjcR6HFfgMsascHny880WpCz/Ml2JulHgOORLncRtgVrBdHND0mhXJZ3naWxNK1va2j+MXNmGxNmc1MdTHVJzga8AR91fjy8kaX7LP6eR8dsVUL9gd40fysmZWrYaluT05ADwkqgMvqQE+PRL5BLpgLF2Tkw3X3M3E1RoCLL6rOShzhedJWY+cB3lNqXVzsTZCvae5rc0H3VkchpouZZdtu7anO05W1qwMD+Ee4xr7Ms5beQUB3T6g3g1X1X4vh+6PyvEiVZZjTo6kz3RfkvbwI+vPSMyp57PdUxxudqidDUqz52kI0OR4mm9H+2NYHY3oXPKM37n4QGuMF0Ri/qtxNT9HM1j4hDh5gg8zxEKPDYY5oEVxsENtTwTZ2McjQJPj8c7udNCw2gng5NON3zkJMl7m5EWzyrjSULE2icAT4uQJPkheZn82zIEhioMdaj0m+tcIHFDuZ+TXCXgSmV0cj/OfaHKcr+3eGp6P1az5NyZu7sfvb/B1P17GxOuMWn6Lq9/IvzPi7Alx8gQfOLfzx/PzMOcMtD5RHOxQ24qajfsJBGhy/ITDO5w0rHaAd4Opxu+cJBkvc/KiWWVcaahYm0TgCXHyBB8kL7M/G+bAEMXBH2pdg/0YBhYDFgMWAxYDFgMWAxYDFgMWAxYDFgMWA3eJAXwBYZ/UIhJ2NQSG/19r94bcFTv791wEjN85uTVe5uRFs8q40lCxNonAE+LkCT5IXmZ/NsyBIYqDHWpnj1qzbygCNDmGKr6hMsPqhqR1mGz8doA1cKjxMhDsnaqMq50A/sj0J8TJE3y4W7gZ5sAYxcEOtXeLYrP3VARocpyq6AHCDasHkFhxwfitgHNhl/FyIfidqo2rTsB+dPgT4uQJPtwt/AxzYIziYIfau0Wx2XsqAjQ5TlX0AOGG1QNIrLhg/FbAubDLeLkQ/E7VxlUnYD86/Alx8gQf7hZ+hjkwRnGwQ+3dotjsPRUBmhynKnqAcMPqASRWXDB+K+Bc2GW8XAh+p2rjqhOwHx3+hDh5gg93Cz/DHBijONziUPvv77283n/LPxpx//6W9+u1fL60cVnS2H/L3xv+cpkc42d8P/AXn6VcLo4/BZ0OQPyhsr+f1A79n4Wa5/vpBCddkdnz/+KiTjnH4xB1ARbxEb1yGET/D8QLsSU4aXigGTNdnZ2j/iF3GEuvF48XtAPHqfxlGLsY1OWgvKOuI7HaYzPip+Gc6gXRcGJtQVtkvhLt09wew2+h9pS8FLWDxjxip/HoxPl+OqGkY9lY61pq9Zr9TfYVDfcdx/BS1+F6JZ4+V0i9Ya5U/C5rOogHsYYxu4Jy5wvLOW/ve/ljm4qypVt7RnG11b7eeSNjIuV5vs+TdvT6Mdv47jhRahGNe48PyVW5J1DxU2SynFkBrduHFXnWvY6AYQ4YURxucaiFg59YgHARpZkcFmJIRFgw32/lQBzGfT70ULcSQEEfV+f+c+Z0gHCFghYB2ATw/hcVoMkMhYXKqVnmdTofiR1u/NZD7WF4CaPVIirGzPBIk+Nse9biBfS7GHsvn897YbFTMG4kziOxKrjb1FzF2efboNri8v39WT5vXieanLhg0DH8dhxqQ+1LJfK7fOKBBQ5ZtC6u1tciZhvWhpZa3WB/Sw4XzQ4dx/CypkUcap1vhAuG/YrfZU1beeD56myha36Kn6SZ1YDM3jTu6LtRXB1td0keW1/OjAn6tiHkHs19ZkfJ2Bu1d8WJVouW6/eiXT7ciJuZTTXMgR2Kwz0OteHNuixq789nebPDHBwAoB7iZoq2hfD0i9pn+fpNpvgEWI1gJyN/WyiHsoXTd/J5vBCHBZ0WbxToi1Y6DGOzdgWdX/hUmqzmWw+1n+8ReAlLPd58IyJGTPNIk+Nso9bixevHGMWYrRk1GOeRWNXcXuur45znoR9/eG3BepTrW7P/qv5j+EW/G7xYid86j+IQVlWHNrXWugpntFY32H/bQ63Ek/pK7+W46nMvD3w9zUWjvLwnxc6ajHzunpZjcmiPBcfOdTgWY5jGAb3vMqGQazTPlG8RdKmYcHB7nLTFb4p3dJbP4zwWMHdTBe4oTbu2+6DNtrYtCBjmgBrF4SaHWvnJo0tQd0jiicoTMC1wMsHjgQ8PDGvR1JjYUo/8hJkVkmrRR//WDCOfXgh50UcvImHBJDL/0xjpR5TFxjNJ1Qfmd3Xk9Z00Oc62RuIs48XpT2MqC08wdDTOI7Haw0XCMEip5grm3rG1JeaQ8oJuj29nzj2G31RX1m2FsS9f2/PRazy2x3+yScqMPNFaJ+KFW4bx4lrX7S8eCLjQ6tMxvFRV+M4qnmxNrPtd1rSFh9rL3iRP6gSe4eUvfTkuxx39PIqro+0uyRsVEzlHvB5X7SgZP3F7c5ywvCs7BPFOvlsvahjDT/RxqbS+8R751OyDnGjPmxEwzAE6isNtDrXswOqSMHwViiZv3JB4P8kCxwoBSVK6camFFZsfDtjx9xXSIkttceJ84SBf2coLSZrL1fMCzvv4E9VJ9RWxoNOZ/wfiRXX4r8Wsf8rNplz4QJPjbDMod04X5c/rFouN55TEE7evPWb4vO1PI7HabiV9MQBSMpxpfp9RWzyPmOuQZ/mmbY+H58w9hl9SVxrN9Pz4+sq/3bGWL34e+bZKWR2xiXLva1XQSWsj409KzfOuZv8zDrV6DJf8loil504eGFdJSroj8lKjv+u3TQjY+HhMDm1UfsK0co4dGxN5feR5VrbjBKcHiGyOE5EDfk8wyV602YcBeP6KCsMcmKY43OdQSw5H7MAWNx9yQaPPpCDG8eGrFcVDAkkLUUhij2hPC2f4g1FCNivE4sASZfobZy/f0PH+9ORkpgUA/HTPDKPwCUK236NYsDE78UrmkT/cRRonvqXJcbaZa/GSHWIrMZONPdv4ZfF/LG2Amt0q1nBeTq0ttA45V/TN324nTxBwTC5I/8FQH6/KZoy6AWNSHVzj0fdnRY5KxHtqU0Otq+QdxE6yETW4q2p/k31USn5/DC+5XNlSwtO3i7WNzpV+0z5+38mDWG+5LPdE5fFeZ3NcF9mvLPFxRz+N4upou0vyRsVE2tOgJSRP8QXwAbmE0q++NsdJKQdEu+cp1tcX+YOg4CnjcWN9k5g1+yAn2vNmBAxzgI7icKNDbfrExSVkqmeu2L2Xv6/7a8j4aYhzlC9wfqH9fMnXOTsOtWTTy6JPKSR5MU4zWCEpyXTDhdwkIb9zMpnOMPfP/cXoCBJgwcbhpituTo7EC+3kCxG2znylyXG2nRl3TCHw4eyRP5JHeihjIk5+GInVHlfqOINkHOOuMW18ju6tLZADkkP/HHNvj3fnzT2GX15X+qzlc5GjkgzXn2peaZRr53LX14ZKHavWaq6n3b6a7eNeJmn2+rbVuOV+l73h43bx4JVweVSvsxvqJoxpixMqYdv9MTm0TfcZs0bFRLbGiTzT7DjD31Ey2+OkUIsUfDIMiTMcv4JMN17IJSKy23YfsqnWsBEBwxyAozjc6lDrE+z9Vg+v/q/2pt1otnFJ/3UOOfi6hF1doAE0ePtMN7x5wqeFU49QXkjyN/l+ln9rhguwLoe25jrDou0OQwQPsJ/4nh2qxYYg2MH+qnIHXs7GXCe1fM57mhxnW5hzRzT6xST/BEjDVGsjkk67HYnVHieqOKNgH9sjagvkWW3DgSZdfT2GX1FXKk65OGa4iBxY49H105pXViVsaqh1kGMiH0WtbrG/zb6y5a7nGF7qOlwvxxMw09bLNb/Lmo7hIekX8ohiHjuwiWexRsYeeTuKqyNtrskaFROMG5Fnzj5uR83ie/T1xAnUovn2oj0+3IOV+a00zIEjisO9DrXhICYXVjXJxdt4fDvPNhWdh7R0ME6fntHiyxfOPCHUQuw3bkle6Y+k5NKgRdWJmzRyqHWjEScXAO6H2o74pClhE5Ma4K1d40sA/PSQ6yh5MU87TY6zrVK5C0rVWPF98q3quA2axGMkVlJ3z3MN5yQHcDy/tkBe3SEvjuE31BH2jQNxOIwkyLF83BqP5ZyJCsIN6EmlLehNDXqtW63V6/az9Uea1fh8DC/ryhieme9hzfKY1f0ua9rGg1zHUs5KO5yNEENZ7IQ1klJetnN7zyiutlvYN3NUTDjc0g+vA85iZkefC1OO7o4T3OMRnOiaksW78FrFL8vxHHchhj12+8Bm28MWBAxzQI3icLND7RbabY4h0I4ATY72Wb850rB6Nu/G75z8Gi9z8qJZZVxpqFibROAJcfIEHyQvsz8b5sAQxcEOtbNHrdk3FAGaHEMV31CZYXVD0jpMNn47wBo41HgZCPZOVcbVTgB/ZPoT4uQJPtwt3AxzYIziYIdaj0n46iH5KocDCX/o1zrGBr3ZNRbvcb+vNtqvM/TRQnKGfJN5LQL35XfWunkMn/fh5dk8tLB5H65avDlijMWEhuIT4uQJPmjczNxmmAM7FAc71M4csWbbcARocgxXfjOFhtXNCOs01/jtBGzQcONlENAHqDGuDgDxB0Q8IU6e4MPdQs0wB8YoDv5Q6xrsxzCwGLAYsBiwGLAYsBiwGLAYsBiwGLAYsBi4SwzgCwn7pBaRsKshMPC/y3gC2K7Y2b/nImD8zsmt8TInL5pVxpWGirVJBJ4QJ0/wQfIy+7NhDgxRHOxQO3vUmn1DEaDJMVTxDZUZVjckrcNk47cDrIFDjZeBYO9UZVztBPBHpj8hTp7gw93CzTAHxigOdqi9WxSbvaciQJPjVEUPEG5YPYDEigvGbwWcC7uMlwvB71RtXHUC9qPDnxAnT/DhbuFnmANjFAc71N4tis3eUxGgyXGqogcIN6weQGLFBeO3As6FXcbLheB3qjauOgH70eFPiJMn+HC38DPMgTGKgx1q7xbFZu+pCNDkOFXRA4QbVg8gseKC8VsB58Iu4+VC8DtVG1edgP3o8CfEyRN8uFv43QPzf8vf+7V8vuehS3G4xaH23997eb3/ln8Uk39/y/uVA5XGApDOWRXM7wf+4rOUS3XI+6DTycQfKvv7Se3Q/1koj76fTnDyFZk9/y8u6pRzPA5RVyGoHAbR/4PxQnw9Vu/lj5EngZ3n2fE26h9yh7H0evF4QTtwXKQTO9z1QpxHYkVdXpbeWO0dH7TJ3Iy5wq1Rn4pzC7noqXwtLI89t9flzvH8FnxndSihWY77xGeeO7X/B5PnF8pnmCf14q6mE/OQy4fafjx/x/NCXZ2BIwVrtfhRu929Mo/WVJ9PYzhCy87lCrVsv/ocINj6fUNhf8PXmsK+KjOlEE9rXKGcB9RRdKV27Y4TiYvY52Jty+sjWCF5962KzLbaCDK7fagBYn1NCPRh3r42NilvHlSqAVwA1p6emEMJFIdbHGrVzQFu5klBdg66ZAVQAMj3WzkQh3GfDz3UITyFa9DH1bkgSYtk0g0ygCTe/6ICNJmhsLQS63U6H4kdTvvWQ+0heHm/yGbOPyccCghP0UyT42yD1uIF9LsYey+fz3thseM6L8Z5JFaci97c7h2vYBtyqikvJS9sbrnAs3gIdYCWC47B+U/H81vw3eGVvTCoxH3YEFMuHHZZfngMSR2ikHmdn+XzxvWCdmr3IYbI2zmuE/qTDfl4TeqWtuN5oVbMwFHBBmqmep9jfhVHaN65XKGW7VeGj8sXkods/5LVo+/yIWPLFpS4XONqrQaX5NI9oC+86ocfZXuv6emKE7++yJcK1+9Fu3y4BubHad2MeW1tPBylcq6CKhe7bh3++k906breagrF4R6H2sIm5v35LG92mIONEOw7EEjaFiDyhH6Wr7qZ0mAE0Nc2mG6B4ITweWwBUXyKmn3RajsEgk4IhrSh2n6o/Xz34+UXQ7bgKTKjs3Pd0OQ427K1ePH6MUYxZolRV+M8EivittuphK+zKHGFOCFufmLveJ63XPfa09pctCWXk+JhTUY+94yW4/kt+M64Cp5gG/LJHAQ5rNbieDrOz9UOtWiHIofOZ/fKWKnT64PNJjsQMDn7H47nhdqE2NC2cMBgNZ20Hc5RwQZhUv44D0do27lcoZbtV74nEXJo/tB7Maz+WOJyjau1GliSSw+1azLqlo/sbY+TNp/SWoJe8Hmcd4WLOM19o7FtL9ruAwq3614ENmNezGeIBScXfij3Ss4V1kCcD2cmnAcxCH3ldZmt640AOZn47yaHWnlIc+A4UHiiwidXSAICSYscuO03HA5tSQiiIq9uXENiZ4VEBA4rJKKPq0T/eKv2FHUKedFHPylhwWQw/9OYKDMMjrLYeCaJP2R4CZ746KmeaHKcbZjEWftGQhoD/LCEvxjnkVhxLnpjtXO8zyWsI1zz6tPq3GSLlAVcb39bKeXtfT6e34LvSl2pxn32QhDk0pd63ndRExGPWM8yOThCu4KOlH+6Ti/7/T7106HjeaH+zsBRwDZurLQNELUZ7+fhCC06lyvUsv3q8izLGxTH1hfkpJULFFKIpyz3gnz85OBBdRSRqF2b44RxUpaY6mcYI2oh4130cante9FmH7gCe9qBwGbMVc5FDoZvmKWzj5LLbO2GfX5aI/HbHEGuP7OBsyz+ov8wLs2PHas3FIfbHGrZgdUREt4a0+RNmxWHASGAFQKSpIyQCm5sfjhgxwU3bX6pLU6aJ4683WZE+qBKc7n29kMg1Un1FbGgipj/B+KFvkeM3sv75F8Up27tuafJsUdOy1zKnRtP+fPzReGBDTP/3XI/5yKcR2LF8eyN1c7xIt+57pWn1bnEFiEqcdm7cRSCDno8nt+C76wO4VcGEwZ53IMcZx/+qAuhyB8PC6u7IEedm2HYqHOB2p1/nToTuLnheF6oKRNwRM3JNlaikz3OwxGadS5XqGX71dccPEgyMXpu9NeoQjyF/Rnmr7uyPHxQHWWwFh6a40Tg4mtjrINpP+l4onh63k7eizb7UMDAmvsR2Iz56tqItpDzEj1TxW7yq0MiNnEIO4tho1zzfbtec3BK7UpxuM+hNmwWXP1lB7YIjiye9JkcEuN48vWpGlqur0SWaE8FP2y2SBEBMeStqBZU0Q4aSLFRveHFC/x0xYxhpAUjGER+l+1AvDJLCf5Z31wNNDnOtmwtXrLNfDVmnLVjcR6JFeeiN1Y7x4u85rpXnlbnUlu4LMxl2KikDQofNe7peH4LvjvMSK1cj3uQEzdtJcyzfJH6hZwqtGJsQafP6c/H/46Qelao6mjrPJ4XqldiFPqGcURtwfvWujYPR2j5uVyhlu1XiFf65yxBlm8nOSk1QI1KL55kf3ouxFPYkxRzuJBf63Lh5XDcAzV8wy7JvO6uOU5KuIh2z1887L5YfXVeMt6zOklxcLnXwvPiXzDSmXZ/PgLNcSNN0TgXMQRTaP7S+yDQzcE6Qe+ZvpV5cSyMizUhtq/fUBxudKhNxcolZNowhKT7ur+GTDeCHEhfhD9f8oekOg61pcOCCAJnV40QVkhKMh1/Qm6N0kxnmPvn/mJ0BEkPFr55PBIvYXGHP2Lm8EeaHGcrz7hjCoEPZ4/8KcbYYJxHYsWgES9p1nO7N7ZbN9HcKnham8ttoRJSPATuY/7SUePuj+cX/JLxq9UhGfPuOc2TcuRzwChbuIEbTXZcmIvwSh3yWXzCfGIuHs8LdVrxCz8txc1LyD8Nx/0cUVtKPCpjfJO0XT6P4wgtPJcr1LL9yvckIMe3Ra5LsgHb9RJVGie5kc/PqaMlBGl7e5wUcBH1Jq0lVEu657wXZLrhQm6SkN+1+5DPtZZtCGzGPFsbsTbSM5SzycUGvtRQctnFB9aKYqyszIuuyxoQO1ZvKA63OtT6BPO/r0SBD0C4vwDMKqwA0pPoDghkLiVkBTa/8RJ/Nl0mfF8hwa8xY8AEA4KdaXNQNyzXCX47kikeYD/xPTtUH4tXshoKZqs/ad41dzQ5zrYg545o9AVCxAZuLmkMxynjcR6JVXTT3/TGau94PTddDrXEMeQa5y7NFbYQx3g8jOeTmOJvz+B3tQ41xT1gyLjQFlRt4WZOKnJYP31QxjKdsh+eaQ2m0vbcn8ELtedqjr4fnjsuL+LGiRqa3UsO5KZc9p/HEZp2NleoZ+vVYxv3TQEP3KQSoal+hcZCnpIp4RZkRhVxgORCcrVWg0ty04cfoOr6Ohpdrtz0xAnkJ/1gJ8eOryW5Ys67jjX+d5OszuaiYkuPD3GS3exCYDPm6toY8p8kq481Ug9Y3OCZKvbLXOO/U0vEwsuSOA8hUGoCdq1cKQ73OtSGg5hc4NQkF5/m4Pe62SbDFeYM2Ap6SCL59IwmfG8h8Zr84kA/jeMLesWaMJ1+ghFGo50sirBwJV3UdsQnTckDHF4q8N/pVO1D/QEnrkedMU0jTY6zjarFCysezBAoHJ6ni3EeiRWDoDu35QaoLbaxrjg//U9HrSjPDbpRpr9CzmfxEPhNOclROPvpLH4lNrQ+NMV94J/OU7967/Gr1VPggsspoaqNTbkIPtGXhvjmW2w+S+I72s/ihZpwKUdyTWzOu3k4QixHcIW6tlxZvkncsUbBYuP/4ryvg6Rmress1bs6VyhXxmHar5XkykPteXmINh5x7Y6Yj1BgAAAgAElEQVQTsfa7+bSOZWuJMJLxjn0Z/7XaiZPStduHNNXuNiKwGfPi2ghrmpPrf7LaS/uV/0GGxSXGD+Qq28e4WIuyqczS+aQOEMXhZofaumPWawjsRYAmx15ZT59vWD2bYeN3Tn6Nlzl50awyrjRUrE0i8IQ4eYIPkpfZnw1zYIjiYIfa2aPW7BuKAE2OoYpvqMywuiFpHSYbvx1gDRxqvAwEe6cq42ongD8y/Qlx8gQf7hZuhjkwRnGwQ63HRP/42wHlfujXOsYGvdk1Fm/7C349eNNC0jPv3mNnzcnjUf0tfu/D62/xQuP6Phyh1c/n6n6cIDczXZ8QJ0/wYaaYaLHFMAeUKA52qG2JHBvzMwjQ5PgZpzc6alhtBO4m04zfOYkyXubkRbPKuNJQsTaJwBPi5Ak+SF5mfzbMgSGKgz/Uugb7MQwsBiwGLAYsBiwGLAYsBiwGLAYsBiwGLAbuEgP4AsI+qUUk7GoILPb1454gcMXO/j0XAeN3Tm6Nlzl50awyrjRUrE0i8IQ4eYIPkpfZnw1zYIjiYIfa2aPW7BuKAE2OoYpvqMywuiFpHSYbvx1gDRxqvAwEe6cq42ongD8y/Qlx8gQf7hZuhjkwRnGwQ+3dotjsPRUBmhynKnqAcMPqASRWXDB+K+Bc2GW8XAh+p2rjqhOwHx3+hDh5gg93Cz/DHBijONih9m5RbPaeigBNjlMVPUC4YfUAEisuGL8VcC7sMl4uBL9TtXHVCdiPDn9CnDzBh7uFn2EOjFEc7FB7tyg2e09FgCbHqYoeINywegCJFReM3wo4F3YZLxeC36nauOoE7EeHPyFOnuDD3cLvHpj/W/7er+XzPQ9disO0h9p/f+/l9f5b/lEc/v0t71cOThoL4DkHVQC/H/grz1Iu1SHvg04nE3+o7O8ntUP/Z6Hc+X46wclXZPb8X7ioU87xOERdhUByGET/j8fL26D9377C52imxPviZ8fhmf+QO4yl14vHC+rGcSWcZsD5bKwQC7j2xmrv+KBNxGnKFW6N+lSc22tLGp/ipFDTVEOOaTyGX/Ali2NWh5K95bjXMMHcqf1fmTgGdKB8WTuTBfRup05cb8LakWFAVXXcH8NLh8LKUMQzxWnCO63LREDIEYlFGpswl2O8FMQ0rmH5eqrOIyaMvJ2Jq61+e44JqLj2IOeka1mQn66YT5yjTHdlctF4WWO1vQaOvdG1O04UHChetbx0sEhOPVSKzLY6CUB3+3AjfmY1tQ/z9nXyWH8hv2l8SvnVmiIHK88Uh2kPtXDwey9/9FSLBVOg4xIUkg/Ae7+VA3FI5M+HHuoUdGhT0MfVucBIC3fSDROBHN7/ogI0maGYtBYQr9P5SOxw2r3uqKsQSE5/3BAciRckzPvv69/KcF+wL5DpMRDcUtwvvKfJcYYZa/ECOh1e7+XzeS8sdnwnYnk9zmdjxfHvjdXe8b5ALK8Xj0uXUzyWuVXxSYnpNLfXljCeFr9QN5psiUbtuzmGX/AlliU0idWh2FiJ+xwTl0tZfvhayjlE6X7D/f4snzeuF7GncLNDZ6jpye/v8ol1t6CusfkYXhqVrQyr1jONixDHkrckJ2DevIZjPZxzbZmJqxUqi90szxynJI7ZfmdzzOd5hodjVu9C7KScSi802LiiJ/N2dMWJhsPi8oDvOykmjCftUKvJDHxSOTUEu3yoCbK+ZgQ2Y67V5matvQMhv1neUhG1mkLHVe4pDvMeape80PmF7/NZ3iR5F5/MuIlB8OBQQPeEcEj+LF+XvKQol3GCxbJIRJiYFmOUxOexBUHxCWdBEU9FKbYrN6ATDjV0c+ALVzQYsRACmP845gi8UE/OW+4b6sU581xpcpxh1Vq8eJ3IkS88pZi4HuezseL4Y8y0xmrveJ63XPfa09rcXlsUbp0JfuNRioc1G/v7j+EXfRf6McZpM7apca9gguOpjOJijXYocuh8dq+MbdVZtIMp2PRwDC+bVGeT6vUsx8+PP3INd3yw/QDynJl6ScNMXG0FwHFG9xlMDo1zes8GrT3kceJnMG4LY9xANm5N15z97XGyttaAf/W8lJ/UHoNtuw9zcnBHqzZjXsxViAUnF37ofgP64hHDASbXQy8X5+K3LXAexC7IxTObgnrRNmVsaKI4THyolZ88OkAcECKpWUFD8CBp6RumeOCTJJRwYnJLg3I98hNmtiBUyUL/yrqwJxYsIS/66AcmLHCevzL/05goMwyOsth4JqnwADIz7NmLhHxMQdjwZpocZyiXOMt4cTrTmBpOeZ/nbCDOZ2PF8Qd/XUFN+MAIPVY7x/tcogWca68+rc7ttKX48kvUvqpR+zuP4Tf5zixS6kriFebQGrJkmMCYbLMtaiLqjDGSycER2lXa0aMzjBWf/GtaetuO4aVXqz4+cRb6Bf4Jd9ePa5yIY7bWAm6teT665ukolFtn4qpsZb3HcZzlGU5RuJPfdsGh5avMMxxJ4kTEFY6AK8YVb73TU3OcMLzLHq7lJeP0IGybfSibbT2dCGzGXOU8X998fY0vDVNtjmaydRzyNa3b+O2kIJeshSz+orBw0xjjdBrFYepDLXsD50gIG3aasHzRJKAzYEjRYyRQWMQ9mx8O2MrbC2qLk+DJIgcLRp4PpNLGmRRwYYp8pDqpviIWVADz/0C8og6QmQI7YEcwcUOpD3HqBDc0Oc4wR/pN+fP6RLHJN21o1fU4n40VegrX3ljtHC/yneteeVqd22lL8eDVXiNWLG7qPoZf4jvVyuoQfo0wvb3N4x7kOJvwh9aYKFrkj29ndRfkqHOjELzZoTOI8PntbU6+ofSt12N42aqdz1utZzQ3HA8Hr+F5nMy1tszEFWeu/cnHMPt4BufqudQf87oceAkSPu1hOYz68Tq2LqLWI6/NcULzCX/lLNbEtLdcy0vG6UHYNvtwJHA/Lmsz5p5zsSapcUDOTmFfwkoBXcdFbCZqIL+L89JAF9HKry+yAeoDxWHuQ61/swtFjR3YIpASLPpMCl0c709TbV8/LhEk2lMBD5st5fAW33JqgRQposETG9UbXrDAT7dJYxhpAeikUSzYmJ14RUvzoMw3HvmYOP3iG5ocZ5iyFi8ZVsWYyTHM5m4sEK1+n40Vt6M3tzvHi7zmuleeVud22lLkjeToiklHdB/DL/WdWMXqkPLiK4t7kBMPoyXMC/PSgirkEJPyWzG2Waciyf3hQ/KmOh/R3nIML+36aiPX6hk9mLD1KfIv44M+k3iP4/kaNrrm1bDQ+mbiSrOvpc1znBIoTvHtYr8TO+OBS2yc6YB4L/IsthP+s7yOg1xAhG/x0bZ73TfHSakGifa1vGScHoRtsw/3omZqazdjrnEuYggcp/WY3gdYCnWZg7YyjwxeqylkKLulOEx+qE1vXZ2zqa6GIvZ1fw05vZ3CUz6Ow0XUzWWboUohTkiRgpoa4VBIdDLZdFy49yShQeSQng1VAyob5RsynWHun9s4RV36QsE3ATzY9uGFtip6M9+4Xpw5w5Umxxn2ZNwxJYCLs0H+xPiN46/H+Wysoqv+hsfMeqz2ji/kOzei8LQ2t9cWhVunOcujgjkHNR/Dr+6LVodkzLvnFPdSjnwOTmeLNXCjyV7/2wpSh3wu6dQIgLmxPGtDGtuO4aVR2cqwej2DyTjGXZP/jpf38rd3Dc9y4jicV1xv6p6JqyaDlUGOt7SvgAG+bXUf1cpFIa8Yt5Uay8YpDtygqT1OCjgIDDDnSq5zTgsy3WQhtyTPtbf7UJNifT0IbMY8Wyfx21L0POUsCXXa/x0+JZ9dfGAdKMbKyrzgcFtN0dGhOEx/qIVPFt/q4dX/leO0SsaPrmOTJ84dEAhRlAQdn9jqN17yT8sL4vqKB36NWby9DHamDVw0Qb3JdULQOGLp4gP2E9+zQ7UItp14gbEgk/siiqbAUHXyokaaHGeYkHNHtHhcRGzEN96URzfnepzPxoogE/1tz+3+2IZ84fi7Nh7L3Cp8qs/ttUXhtrNGoF17rkfxu1qHmuJewUSrIx4nziHHQJHDB5AnZWyjzixuCj4SZc23R/HSrLAysFrPcJ7z/X3WGj732jITV0hH79VxnPYVkBNxI0uEbY95Jc+UeqfVWPibFPTlFzHoRrc9cQI40BdE+eFzLS85p8fsS3t8uBE1U5u6GXN1nQy5HTdZ+TeoWNyEHE21AGpx2i/x36klYuFlCR6Gw142yemHnOIw/6E2HMSkw2piB3ASeDlJ/Ou3DeAhceTTs0Sa46ZeUFkQoDq/waGfxtU2YTgpXVWdaGdy3k9AnBzp7ofajgejNGUPXhDQqAevUR/a5+3o8zd5fv6ds/vMfyp3QaEaK76PbtzmwflsrDgPEJvtsdo7HrTJfJF1h9vEn8pze20JeUhqzlFfXeUW15+O5FdiE+uC34/RTTO1icY9YELn0a+2xlm+ztTqiyYnzhY32lhqUxiu6pQc1mwSalcej+RlRdVqd62epcmhZsVNDPRgTKScdu2AW2oLOKYGsSHyb/38/1/vcLkiT5Kf+d1MXOXWtbWwdSnbu4R9jOdna8zLeRUeM/3H5VUbGueM6o4Ttp/K93Zreck4RZd2YtvtA+q162YENmOurlnODLG/FDWb9yv/mwyLS8xNWdPDSxiUncUdrSlt0FAcbnCobXPKRhkCRyBAk+MIeU+WYVg9mV37Otms7FrezcpMbpdxlWNiLTkCT4iTJ/iQMzN3i2EO/FAc7FA7d8yadYMRoMkxWPXt1BlWt6Osy2DjtwuuYYONl2FQ71ZkXO2G8CcEPCFOnuDD3YLNMAfGKA4/fKgVH7Ozr/rJr+mODHWzayTaUhdNDtlnzxyB38Fq1pzkfBz99Hx+78nr83k5OpKvk2dcOezvmWcjo+YJcfIEH0ZyfoQuwxxQpDj88KH2iJAyGU9DgCbH03w72h/D6mhE55Jn/M7FB1pjvCAS81+Nq/k5msHCJ8TJE3yYIRZ6bDDMAS2Kgz/Uugb7MQwsBiwGLAYsBiwGLAYsBiwGLAYsBiwGLAbuEgP4MsA+qUUk7GoI2P+11hUDrtjZv+ciYPzOya3xMicvmlXGlYaKtUkEnhAnT/BB8jL7s2EODFEc7FA7e9SafUMRoMkxVPENlRlWNyStw2TjtwOsgUONl4Fg71RlXO0E8EemPyFOnuDD3cLNMAfGKA52qL1bFJu9pyJAk+NURQ8Qblg9gMSKC8ZvBZwLu4yXC8HvVG1cdQL2o8OfECdP8OFu4WeYA2MUBzvU3i2Kzd5TEaDJcaqiBwg3rB5AYsUF47cCzoVdxsuF4HeqNq46AfvR4U+Ikyf4cLfwM8yBMYqDHWrvFsVm76kI0OQ4VdEDhBtWDyCx4oLxWwHnwi7j5ULwO1UbV52A/ejwJ8TJE3y4W/gZ5sAYxWHaQ+2/v/fyev8t/2iU/ftb3q/X8vnSxmVJY/8tf2/4a2VyjJ/x/cBfeZZyuTj+FHQ60PCHyv5+Ujv0fxZqnu+nE5x0Reb7j3nKbRBPqFPO8ThEXYBFfEQZDoPo//F4eRte+f/zi+0ahmjaDFdn35n/kDvE4fXi8YK6cVzGXxiAeKoxUIhVlH3U9WyswM7eGO0dHwH1tSXyEnOkhlbSFecp9Qkl6JzW/g/HFBslvlH2Gddz+AXMsrhmdSl5o2Pm+jXsEa81TJW5mUHJBrhbkenXFtQf5vo6/146SrtUqj6fw4uqarUR+UnxnzDwMSvz6IQ1HHMDbVilctWr4wbMxNVxXpmkoxHojhNlD0njvpaXznbfTye4RkWm3F/U/O72oSbM+poQ2I255DzW67RGyjDxhpXOUlJedhZIcp3t+KPqaEIABlEcpj3UQoKJDQECKRBwCQrJB4C938qBOCTy50MPdSuoBX1cndvcpIU76QZZsMDy/hcVoMkMgdBaQLxO5yOxw2n3uqMuwCI+oqtOvwjcY/CCTd/77+tfLDBfnH9RZ7BT2I7mXX2lyXGGLWvxAjodlu/l83kvLHZ85zw4n40VYNGb073jfWFYXi9ea1wusRhWgyHooqeWkN/53BqnQbivA9yOZanwrdp0XOM5/LbUJfShhlmOvcutLF9UTAs2oNq1a0Vm0p/btya2tf8cXlq183HVeqbhFPIj4QTykpyAW+sa7nRMvLbMxBVnzp5mQqArTrQ9pF8n+L6TrkEj9qVdPswE/o1t2YW5jyO+30j7ns467DDU4tKvAXg+c4OUdTHMo/HaSwnFYd5DreK8X/g+n+XNDkSw8YF9JQD2+dK2AI8H97N8HYBkESyDB5vJ7FAoJqTFGDv4PNefFnCF0DjNfYqcihI2a1fQCYfHJHv7ofYYvNDSio9xiPvEnScTdl19pclxhi1r8eJ1YoxizKqGXI/z2ViB27053Tue56sKdbGxwIEv0iKXWzj1fJfyoqCraNv+jnP4RX6EfYgPbcY2NQ8UPHA8laFiWrCBzqvdqzLTJx1uzZCbyJq43r5zeOm1AsbX61nOkR9/5hpe4mabe7tnzcTVbmdMwGkItMdJ23pVz0v5SW2ep9FRV1Mb96XtPkTpdrMTge2Yr8URrpFunNiT4HrM1tvWGCqM64gzDTKKw8SHWnlIQ3AFGQwMJAKSlp78/SbD7TYYERo8oY3JLY/LiodYVF1/PHiKPi4V/eOt2lPUKeRFH/2khAWTwfxPY6LMMDjKYuOZpMJDIWjp6EZs6ZRR9zQ5ztApcda+kZDG1LCs9QXLT8b5bKzAi94Y7RyPBXoT2SUORI0K3xKBelSag4cisYBEuyrz4phjb87hN/HDrFXqTD0PJB7wHGstChc1EprD2Pj1pxLmKERcVZlBsv+1mbf6azJCyubHc3jZZk7iKMwX2MR1xHfjGifyg9WpFB9SdpSlxEq0nsmKrZfdzMTVZSCY4lUEmuOkMb5l7sh9huuPtVLkLDcWc5a3ak/NPmiTrW0TApsx95yLF+/Mgs463BxDIJeezUCtWBOYLesPFIepD7XwcXYA3oEWPmGlCRsXOu93IoLN9V/NCBuX2oJIsRPFw+uJm6AUDNQWN90XC/JJcF480lyqDr9muPbJMOrAoKD6ilhQRcz/A/GKOkpBiwPW+nHcNVeaHGdYsBYvcvHxnJJ4Sjat4bjWnyRtvTsbK7AL/PB5wXKSLLZ7YprJ7EWihLEo0KLgFzkV47g1JV181JFP5/BL+KTGMg7zA36OGchxNuIP1kQqVuYT6wsPXnbjpxF+SpUn4L7t20CaNett5/CyrlcbsVrPaH6dvoaPzxENE9o2E1fULrufC4HmOKH55Muk+zU0rIFpb7mWl37fiJtNX8/SXI6MWMt4J3tq9oHNsoc9CGzGXMRRbgNZp9nYwr6rOYZKNbo9znJbF58D2D73oTb8PpnLPb/xwCR0IPuNPgHee0SfCUhxfPjet3pIQEjClRFJ+kS7Lw6xqLyyrzbnxaP0qQAJFqJOu+UFC/x0GzqGUfj6NkIW5VAs2JideEUFpaCFAR6PFvyjvLE3m4tEo5lr8ZJt3osb6OtxPhsrgLQ3pzvHi3xupDEMK3FAcgk3HjTmS5yW2r22kq4+i3tGn8Mv5YdYw+pSqPdVzAQeJR6rmKJ+zhe2Fq8VmVDvP8un8gfDinIbO87hpVG5GLZWz+jLWrY+Rb5lPNBnwkscX17DZ1xbZuJKUGePEyHQHCelOifa1/IS6lT4k6aVegb5W9qzcgCbfeDT7GkHApsxF/GSm9BZh5tjSKzbUTGp9bGt/YbiMPmhNn2N2CVhOqA5AN7L39f9biZ9w0SJSAdhNze+xaeLYxWzAsgiGJhsRR4rHuSQng0VcrN+0pDpDHP/3FffIkh68PBD05F4oYG6XtfrsaAbVZwy0ZUmxxlmZdwxJYCds0H+xPiN46/H+WyswNXeGO0dX8jziHPtpsABy2UYI/l0zxmn1YWhoKtm3s6+c/jV/dDqUh0zKUc+B+ermHaMoViWZNJ2FgN08v77c3jZZle9noFMHOOucXnCb08dtIY72Wd+Or4NHf4JwlYZNu/5CLTndGG9EvUGc66EnM+XmIwFmW6ykFuS59rbfahJsb4eBLZjXuHcGwDrKYYIvpBkceViI+7nK/JYDBXWaTamBwEYS3GY/lALvwPrfkcpP7z6v9qLqCtEwFfP3AGBzGVE1MHzRMo37gJ8RrIijhePcNBWf/Fa2eQq8lxTrhMCxRGbDrWoi/ieHap54O7FC8zVgjbYFxOg4NgEzTQ5zjAn545o8bGVvxWFOKQ8ujnX43w2VoBMb4z2jsc84bg7zLNDJ6GK2sbG+YMNyeUeTumhqEVXNubYhrP4zeNZLIhNmCnxL2qzR0PB9PvhXPsa3VObFJl5PoJ9tB4fxc5ZvGyxr1rPUKDj5X3WGh5w7uEP7RpwnYmrAe6aio0I9MTJrPvSHh82wmTTBAJ7MIc44mth2vccs4/CM0XaIynrttwzCR9bHikO8x9qw0EsvREAF9XEZl+ndeOUjYVfYMX/f1tDLQDuQMOfRJB2wOTC/IaJHbzx7VeSJ/87ES4hf1I3Emin0IU4abYjPmnKHrxgY4p68Oqx8ptN6m+4T4pzJy9qcXaf+U/lLihUY8X30U3/PDifjRXAIorrak73jg9a3LccSI7LehMoEpeQL3SeeGHVxmkQqx6WKnwLa45+PJPfWl1qwwywp7WYftU1YqFhKutR74FIkQn+iBdPoSYfXebO5CXi1nhTq2dJRIhhgTPGAMenM38ll5iLXGgyZfDdTFwNdt3UdSDQHSehtrh5+ENr4VpeqjU2yyV+4Flzp9uHNYHWv4rAXsyxBmMMpX1PZx1GS1djaH3PhKJ6rhSHGxxqe1yzsYbAPgRocuyT9PzZhtWzOTZ+5+TXeJmTF80q40pDxdokAk+Ikyf4IHmZ/dkwB4YoDnaonT1qzb6hCNDkGKr4hsoMqxuS1mGy8dsB1sChxstAsHeqMq52Avgj058QJ0/w4W7hZpgDYxSHHz7U6l/rc+C4H/pVjrGBbnaNxZtro8nBe+xJIvB8rGbNRcnEOc/P51fidg++f48XydN9no2r+3B1paVPiJMn+HBlDGzRbZgDahSHHz7Ubgkhm/N0BGhyPN3Xvf4ZVnsRnHu+8TsnP8bLnLxoVhlXGirWJhF4Qpw8wQfJy+zPhjkwRHHwh1rXYD+GgcWAxYDFgMWAxYDFgMWAxYDFgMWAxYDFwF1iAF9A2Ce1iIRdDQH7v9a6YsAVO/v3XASM3zm5NV7m5EWzyrjSULE2icAT4uQJPkheZn82zIEhioMdamePWrNvKAI0OYYqvqEyw+qGpHWYbPx2gDVwqPEyEOydqoyrnQD+yPQnxMkTfLhbuBnmwBjFwQ61d4tis/dUBGhynKroAcINqweQWHHB+K2Ac2GX8XIh+J2qjatOwH50+BPi5Ak+3C38DHNgjOJgh9q7RbHZeyoCNDlOVfQA4YbVA0isuGD8VsC5sMt4uRD8TtXGVSdgPzr8CXHyBB/uFn6GOTBGcbBD7d2i2Ow9FQGaHKcqeoBww+oBJFZcMH4r4FzYZbxcCH6nauOqE7AfHf6EOHmCD3cLP8McGKM4THuo/ff3Xl7vv+UfjbJ/f8v79Vo+X9q4LGnsv+XvDX+tTI7xM74f+CvPUi4Xx5+CTgca/lDZ309qh/7PQs3z/XSCk67I7Pl/cVGnnONxiLoAi/iIXjkMov/H4+VtqPw/vyXb0byrrzQ5zrAF/cdYer14vKBOHJfxFwbMgPPZWIGrvTHaOz4C6mtL5CXmCDKiXZOuOE+pTzhT57T2f6NCbCDXoEOPF9Rx5PUYfgGjLI5ZHUpW6xi5fg1rxGINQ2VuZlCyIbuT9drHxprOZVlwvQlrR4/KzAbScAwvROCOW+QrxT9yQtdlouDENRxtkesi0T78diauhjtvCpsR6I4TWZPEuoO5oOWlM8r3y4KkyOzJpW4fmtGxgSUETsVcxkPcEynrqYi/aG9RRhxxyA3FYdpDLRz83ssfPdXiJkEko0tQSD4A+/1WDsQhkT8feqhbwTPo4+rcZiYt3Ek3yIINKO9/UQGazEB8awHxOp2PxA6n3euOugCL+IiuOv0iOI/BCzZ577+vf7Gg+uJ1f5bPG/lCo+a50uQ4w6q1eAGdDsv38vm8FxY7vnMenM/GCrDozene8Xj44LXG5ZIawywogi5apEJ+53NrnAahvg5wO5blu3xivhY2I8ym4x6O4belDqHNNYxyrF0uZfmhYliwAdXWrp5PzkkWG5rOUNNT/eU81lSu9R3Dy5qWtv5qPdNwCfkheUtyAs+9a/ika8tMXLUxaqOuQKArTkIOpdriLHa1k+876Ro0Yl/a5cMVID9Q52mYV9e9fC3GF7g05qBtZe08iBOKw7yH2vBmnoLkF77PZ3mT5IVkRuBw8wKbI7rXhEPyZ/n6xU98AqwC62TknwrLoWkxxh4+z/WnBVwJhjjNfYqcihI2a1fQCYfHJHv7ofbzPQIvtLTkI3JT6sf5115pcpxhyVq8eJ0Yo35TWIqJEo7jcD4bK8Af/WmN0d7xPF/7OC9w4BcEwVsLp9ohQBjkNyfkkCu6D308hl/kQ5iGeNBmbFPjXsEax1MZKoYFG+g89b4xNjSdWpuqo7/xGF769Woz6vUs58yPP3wNR35zfZrNI9tm4mqk36arD4H2OGmrSfW8lC9HK3njamzjvrTdhz5sbHQZgXMwX4uxQrywWFmTUfZpSw/FYeJDrTykOZDc4VWAxYDExQ2Slh6I/WbQvdrSNkIaikyuNgDasuIhNjOuPx48RR+Xiv7xVu0p6hTyoo9+UsKCyWD+pzFRZhgcZbHxTFLhQQ/4KE95WVEQdEkzTY4zDJA4a99ISGN0LMEuvW8kzmdjRf2E1OWf8EdfWYx2xrTPIXEAbSZe5wBetPEXYk2cinzOzYDaR+taPua4lmP4TXwwyxhn0FPHSGINz7G2onAVwzA2/goJvgTFSYVra0UvPFIAACAASURBVGxUdTbqKpigNR/Diya5vy1xFuYKLGKO+m5c445dw5MOGSP9/hw9YyaujvbN5B2HQHOcuLrZcMhcy0vXH2unyFnuFeYsb9Wemn3QJlvbJgROwXx13SvVWVLXV2Vscrc4ieIw9aEWPr4OG04HUviEgiZsWtCcvwC2/1oGS36SmMpmSkWKzQ8H7LgpSptgaouT44sF+SQlLx5pLtdLAoJ3ZE9UJ9VXxIJKYP4fiFfUoQQ8C3ClP869/oYmxxnWUO6cfMqf1+exShthzymJp2STguNgnM/GCnztjdHO8SLPE74tdwoHfprI5VZOxbhogbcx/O4+/85ZHHLGzTH8Ej6okawO4d8ZqMU9yHE24Y96uC9hSHT7nGrYGLL1h8zPbis6fX57m5Nv2fzOhmN46VRaGL5az2h+OZyOXsM99rimlvKxYPyA5pm4GuCuqdiIQHOc0HzCXzmLNRHzIP9QR+4z/DOuJSyHpANiLZPd5LnZBzLHbvchcArmIsZyC0t1lsTKqoxc6p4WisPch1r/ewLwiQc7sDnA/OIoN0z0WQCMB4M4dwXCEimiPW1awmYL9QTxefEobW6cvaU+bquTmTZ04Kd7ZhjRAz6dzvw/EK+oQwY81eEGyf44cYobmhxnGLQWL9khtrhhljiOx/lsrAB/6ldLTneOF/ncx7nkAGcTO3HjQetCidNSO4pFWS0HMjJn6+0x/FI+iCWsDoWXhlWMBNYl3how1D5JJ5al25KONALuGnTCQbqtvkvx8vkYXqTUbc9r9YxizdanyL+MD/pM8iiOD78D72OFjnX2ixjZ5tKhs2bi6lDHTNihCDTHSakmifa1vPT97FBbqk0uB0t9HIJmH/g0e9qBwCmYi1jKzSvVWVGvB+1TnH0Uh8kPtemNk0tCzMH4e7Rf99eQ09spXNRwHC6ibm48BNLFMWeLtBCCSKt8e89k03HhnhUPckjPhq4GUpqR6Qxz/9xfjEbnCws8PzTxTcE+vNA+GfCAowu67IduYnH6xVeaHGeYknHHlAB2GU7qX5O+HuezsQJoemO0d3whzxkvpQfJQRjHchnGNHHacDjSvq5esm5v+zH86hhpdaiOkZQjn4O3h2LYGBstOksvGTeQdAwvGxQrU+r1DCbgGHeNy5NfC9/L3641fP61ZSauFPqsaRIE2uOkUJPYmpP2zSX3XC6mvWJBppss5JbkufZ2H2pSrK8HgXMwr8SDN66w9rJYWZPR4+X6WIrD9Idan1Tvt3p49X+1N62S8U1tbPKbDXeYIgdfB3zjYcpvvOQfi2LE9RYP/BqzePMV7IwH7xUOcZOQhkGQOWJToUJdxPfsUA3zjsIL7CkEfDR2rT8OvOSGJscZBuTcES0+tkRsFD+dW8NxrZ/o3Xh7NlZgFvjRHqO94zFPOO4u99fzUcFY5nIPp9rhyLVF59FWmtMbyWuYdhS/UEepzWLBa8JIwVrUYu+SguH3w7n1G7quNYDPz2JD0ZmNKfjYQEM25CheMsEbGqr1DOU534es4UqMoA0XXWfi6iIITG0DAj1xAvWUviDKD59reelrYLau8DoHL1DJB0IrfvT4sCLKuhsROAtziDEeD2lNU+qsXwN5rNRlNDrYOIziMP+hNhzE5EFUTezsbTiATw96cEhu+evHAc1AlgMNf+hmt7d4eKl+g5PkvRq/3oH8qjrRTlKo3HjESbNdfrKNz9vwgo0q6sErxQrsVxICHZvg6uw+85/KXVAoF5pkx//ZuxIrx0EYOnWloNQz1UwzW4z3CSGQhMDgGF/Rvjcbm0PH/5IAJ5Phh4Dr4DwbK/Qf4yWH9VpOj46PWuBTDizHdb3JXPCraAufp3K5j9Mo0zgcpZxMOuRCw63Z+3pPflt1qA8jxFrWE54XDQx1ve080BKe2vYiNg7mbU9eyMetr616lmXGmqVwJ1xzbsOMbfmLuqwYyVaccXUlrs7w33X2ITAcJ7TfS+uCPFCs5aVZc3WdVGvZmifDPqwJ9P5VBGZiTvUZdISfVL/X9z1keF0GjdjnleNwg0PtPk67FEegBwGeHD3jv3mMY/Vs9p3fa/LrvFyTF8sq58pCxds0Ak+Ikyf4oHm5+r1jjgxxHPxQe/WodfsORYAnx6GKb6jMsbohaQMmO78DYB041Hk5EOwPVTlXHwL4JdOfECdP8OFu4eaYI2Mchy8+1Nof4wRw4Ed+zO3IUHe7jkRb6+LJofv8XiLwfKyumouSh1l3zu+/WdB+JPf5vHwEz6UmO1eXouOyxjwhTp7gw2UDpGKYY47AcBy++FBbiRJv/moEeHJ8NRAdzjtWHSDdeIjze03ynJdr8mJZ5VxZqHibRuAJcfIEHzQvV793zJEhjkM41EKD/zgGHgMeAx4DHgMeAx4DHgMeAx4DHgMeAx4Dd4kBegDh79QSEv7qCPjfWhuKASh2/u+5CDi/1+TWebkmL5ZVzpWFirdpBJ4QJ0/wQfNy9XvHHBniOPih9upR6/YdigBPjkMV31CZY3VD0gZMdn4HwDpwqPNyINgfqnKuPgTwS6Y/IU6e4MPdws0xR8Y4Dn6ovVsUu71TEeDJMVXRA4Q7Vg8gseGC89sA58Qu5+VE8AdVO1eDgH3p8CfEyRN8uFv4OebIGMfBD7V3i2K3dyoCPDmmKnqAcMfqASQ2XHB+G+Cc2OW8nAj+oGrnahCwLx3+hDh5gg93Cz/HHBnjOPih9m5R7PZORYAnx1RFDxDuWD2AxIYLzm8DnBO7nJcTwR9U7VwNAvalw58QJ0/w4W7hdw/M/y2/r5/l/TcPXY7DZQ+1/35fy8/rdxF/KfDf7/L6KcHJYxE8cNAE8O+N3/Ks5bawjjpBJv1w2X/v3I7974VzF/r5BNBlyBz5u7ikU88JOCRdlUACDJL/++MVbKj8nV/qQ5xey68gt0XCcX1g25H/iEuKrZ8fHj+ZH7u/jKVE/wFOHI3VVpdaGOfawaTPqDMq54/kiXk2dLkPv5U6VLOEanSstxynFo8gLvTzCTUdS84rczjZkOqkIZvGGHYGtYpvwFLX66p5Kx378FJTUuFLrBt5LnFS4pgxBnvxh2pb6+8/4xi5VtC8rLe8WpEZ+FJyAkdz16G5XJUo9LQQZyUvcXY1tlucSs2koxUXZV9I4s/3aCpvRd4F3+ZyLpHouxuOE6O+cDwJ/xrHoZ9PADMNmQK7FVeGfViR593rCIxhvlIj19VtHFFZU5i08XrPJqsveL3soRYTTBUfKrYqGSFBMfkQvNfLOBDHTc/7zQ91EpjiLuqT6iAw8uKYdeNsJEf2/3ABlsxYTHoLSNAJPjI7QHvQnXRVAgn0p6K/J16YMK/fv/BURvsSbEt6C6Qv0zBWJD43ux0/kZ90+sf7HE+EeXw6EGJL5cznJlYlHI1V1ZCVjibG1sY25mjGGRVkOaN5cy5PK/BUu/fhF7FKZamqLW+q8ti/5c1qRsYfhazW2qquUf7UoTbW65qdyw41vmq6WsBb47b1VfgS6wZJhrh+Le/3a9G5ssQHB3wdAP6KcVb+LSXvxTwywXo1ZaJfWU6MgVRbLUGft+2TQ5/bwSU086gZ2yVmJqfA31pc7LpHk2se1AWKO+Fr4RtH5dzroTix6kvAXO47CQPwbLVWWjIjXlxOC6UhH1qCvK8bgc2YmzWyW+3gwMqakqR8WO/VmnjdQ21lUXy938tLHOawgOLaRODxtohcIPG9/JmLc0KXXYCMyju+fFQ6UFOjnCeLfrko0CzcCOWilNqNCyzUeHjMi/T2Q+37bw+8yFDLR0M+Db/Y6+YisdEPsegGGTx+SizFw4GwEPGYofjfaMzgtKOxGjQvDR/FOIzfs86czFMCYvBiH34HYnJloW3zqA6eTV/JJqMuVdYJ0J1qbdPOMmeTKUUcpJ6hi314qakkbFS/tW5SG2Emphg40Hg+roklDhQ1j8+tXddkhnZc0/Umvybq0/a5XG2zrplHNeyCqk5Oiecgi69PIITiqz/36l7ytdIelX1dH2tLOKa1P076/Mh+k/1ynqhnxl6bZo3sS/t9SNL94kMENmNezXPMT5CLPzx/KXeZ0ZTr1BRrLM3HB780D2MQ++SDKJoOr8P1/j6HWn1IA0AACJmcMukIPNzg8CdMAShAWJPA0eTXME4cnnlnvi6KhwoWUTxUX5YCV+SfbLXukk4lL/kYJmUshAzhfx6TZMbBSZYYLyRVblAmx57edX+9KFHYBrEi5axmSLgj/2ncCSv+kCZjKbEtk1/2z/bjaKy2+tPGeH6dOZunrbjtw2+uMet24NifUOfL0Ws8Qn86eJbTWUu2Scus1T0pu2GnqslM6VCNl/Pk3T68SJn5LmOT2+LHQtm75tCXscM5uU5Br26LmOW3t1F8E6+gJTxclrJxavX/hkzMxZf5a0xVeR90zOVqm2GZtzhf4BV5MnOwj9MsX48HfdiGWzH6hB3aUcu9qpfBbr7pLkeiLfanx8rR57V0x8mF96XdPpwH8+M0b8Zc5DzBEnOf1eiQk+kclHOXZsjzFJ7Ncq2md2CjXFZTIC/ttVrLSJqaFxyHC79TGxdSAhRIiItqLpp6Q8pAF8nPDoy9hzQxP+oxnl5wWwD1QBZb/AV5zSKMZLJ4qpLIdXJ9aVEIMxkWXJLwn40R/m7AK+lAmTmwiUf2ZCbgsP4ueBJ54AVPjiPUci5BH+eTNgBgU/7JOOIGTf7euZY304ejsdrqi8ZEYkzxGTdHE+rM2TxtxW0fflmN6TQk8BNiPsc6TF3jMczrKaBsYy0fitbrniXbtHOnGt+Cah9eahoqfIl1IzxOX15sk1LGOMrJdUseYJL2gJfkOfSF9SjWvS5Ok0RYrIVtrAeiKByS86/gyN697+Zytc3atTwCqWZsx7xpcqqwr8VFoPTTPYeYb2Nh+2GPPbO1O06UzwHftD/IB/w1jgMulFc71axuH84E+mG6N2Ou8jTAYsYBWxP5ukk4QjzSeUfFJg2hfSyFW2jn86AhzN1Y7+/0Ti0tQABGSF5CJQGiF2B+j4tXmJLGR/CIhIx6eRVAzkUiDVDtuWhGQpTssngYC3gQzoMnaTMvZMFCP+EQKTCyAhCkcSzEmA/xSpYiB+WhlmNpjEnzz73YXCQ2mt2OHwOnEH8YQ7UNg8B+o109047Gqscma0wbY5iRY1/kUMoVXldgPL/Pc0Vupbmxdom6YPBqGX5y2z78cqyyQwFnYzOWR9CDxFwv13gM/bRGcEHFNbdpnT+Y3pKNvkQ7rc1C0g+6sj+pefBiH15qSjk2bAyLZ2gtak/ht4rxULf4GhBlF/OYzjSk/P6IchRrachEHt9dv1rEJG6+nMvVNrPW8ohLFbEd615aXwxOe+MC07Qv97g94trQL/pj3qa9Eb1Bogdd4L47Tmo+q/Y1jkU9a+TLyCcIu324AN5PMWEz5hbnKoYQI74e8OuIIMyhvQ2/FgCvzBNjad031go1jt9yHK79Ti0rSpCEeb8SNwd/8ESWOy/BCwX2/Sef8FeB5xDBNSu4vEsRD3alIs/HxWtRPGoyg7q+jzvjUKUz2vQL3xidQEIstG1y0dkTL3Le0FskkDGGpp/8ypPjCFPa8WPhxOJSxaI8bM23/mistnrUxhil0hh4TSkU8vW1/H5aZ07maStu+/Ara8yYLXIucVSTAf25/tVGQbuU27NOtGVzeSw/tQlFHOgBfff78FLThb70rBtgh/7J87QcfR/1F2uDYVfPGD6tNp6378QFV2tdz+XK0rjetpZHUgKPbc2hfa9jAu51XFCN7ck9aQ+/a+RaHJZ9RVv76gPXccx1f5xUfFbxnP227Zf1rCITpiq5tjRs7fehJcX7RhDYjDmvhaQwtPHzFHRAbNCDWF4L4iSID36oFeexJLj8kz58Hg2jV8s26qu8chwuf6jFdz/gd2A42LGYwjfoUXUMzirQAziw8LK5LTAVYKHg6i+LUkk+VjzoKQQFSVQY7cyFXxmibkudsWDDJoPhgfYz34tD9b54oZmRG/GtkqotYKgwUD6edcuT4wgbSi65VoUbdAns1GKkYpNLmnF9NFZbfWhjHKUCdq9ZdeZcnrbitg+/qsY0jIF6JWqgiHV8t1T0K1nAM69/qpvdKps61gkue81OrLuqvg3WeGZscbkPL4XY1LC6biheaKKcV6tdfD0qP8YcZAFWzXWMNFZeA9YKf/0uY7zvi5eKno7m2Vx1mFAMadXDdmyvcDoQF4nejtwrHGANVq5xH6SvWIdbNYSJPvRyJE7QZ/7wlfYFObek36UrvJ5Br4UjfoyfP5Ao5fCWER/4PL/ejsBmzBs1ktfEEBd0aA1hxtZYyt3Ur/NL/k5tynlwN+y34q/OgRzWibGYY7kHHY7D9Q+18SCWngZED83EVk/g6Yk8J0mA2YMWEceeSvOiOFo8gspQ/PlTbr0Atw0zdZKdLDhACuEEpMMPt53wyVNw0dqGFwY06aHXpI/si3ZknW1fj+4Fu4/8Z3KZDIh8sNgD+wR2AtexOEpqNl4cjdVGM+UnNapCYvymAo0DKX8E5lvqzIk8VV1e6diHXyuGa3Gqx8px7VzBQ6+oXVX/UE/mNOrNDXLR1Ys5HYhSXko7g9oPa3zVdPX7Q61xn/RR3EMMwE+q4wUWXAvmEMKImPJ55qefQl5o/NpxwDWa14ZM9EdtlGJOctpNeR807pNDHxhgTG3nUQv7Nqcg186/Mi4y5lFfbihyz3BBNOlY5XvFwtcDOBfGdd4Mx0n0g/LTylGZe9IQk6sPa9awD9Ikv9uAwGbMjRqJ6tU+Xu2HqIZj3Bl/TUbEJdV1zHGe4vIc1qo5faBwHG5wqO1zykc5AnsgwJNjD3lPluFYPZndJRxmnu3hPb3zvLsPb87Vfbg609InxMkTfDgzBrbodswRNY6DH2q3RJLPeSwCPDke6+ROjjlWOwF5UTHO7zWJcV6uyYtllXNloeJtGoEnxMkTfNC8XP3eMUeGOA5ffKhVb7Onj5KVH7c6NrDdrmPxltp4csgev9MIOFYakWfd35ffq9bQfeLjvrx86v/9eP1erj7lGubfj++tXj8hTp7gw1b+zprnmCPyHIcvPtSeFYau98oI8OS4sp1XsM2xugIL82xwfudh+4lk5+UT9I6d61wdi/ddtT0hTp7gw93ixzFHxjgO4VALDf7jGHgMeAx4DHgMeAx4DHgMeAx4DHgMeAx4DNwlBuiBhL9TS0j4qyNw0DeLPgVoKHb+77kIOL/X5NZ5uSYvllXOlYWKt2kEnhAnT/BB83L1e8ccGeI4+KH26lHr9h2KAE+OQxXfUJljdUPSBkx2fgfAOnCo83Ig2B+qcq4+BPBLpj8hTp7gw93CzTFHxjgOfqi9WxS7vVMR4MkxVdEDhDtWDyCx4YLz2wDnxC7n5UTwB1U7V4OAfenwJ8TJE3y4W/g55sgYx8EPtXeLYrd3KgI8OaYqeoBwx+oBJDZccH4b4JzY5bycCP6gaudqELAvHf6EOHmCD3cLP8ccGeM4+KH2blHs9k5FgCfHVEUPEO5YPYDEhgvObwOcE7uclxPBH1TtXA0C9qXDnxAnT/DhbuF3D8z/Lb+vn+X9Nw9djsNlD7X/fl/Lz+t3+cdx+Pe7vH5KcPJYBA8cNAH8e+O3PGu5XIe+jjpBJv1w2X/v3I7974VzF/r5BJBvyHz9Ck+1FeKedOo5AYekqxJIgEHyf3+8gg0/P4uwjXBnGFpYCSdPugG7jvxHXFJs/fzw+Mn82P1oqYn5AU4cjdVWl1oY59rBpE+qM2fxxDwbujyG30qdqlmqakkqd/BXLbfU4poeaNd1OtVN1FXWuNcyUMZbmpt9c3mp8CHWjWweYc55wN5W7Wr9/VGsf5QrWPd4Tcy6y6uWzhAgi6yvxPE83uZyVSLQ20K8Ib6wh1EYV/NsBWNmAOloxUbZRzz9sH0KE1q7bOTqUvWlJuz49uE40f6qPS9hX+M39GvwDZmixq3AMuzDijzvXkdgDPP1uruuccuIyppiiKK4HYk7EMNxuOyhFjcUarGh4qSSEYBAEBC818s4EMdNz/vND3UGqrwp6pPqIDDyApB140RcjGX/DxdgyYzFpJfIoBN8ZHaA9qA76aoEEuhPm7M98cKEef3+hacya76E4E22ctDPvebJcYQl7fiJ/KSdMt7neBrDfG9/jsZqq/1NjEPuza4z5/K0Fbdj+K3UKcvoWCdz2fhb3qmWlQfN1Vps6aC2UKdlXIA8qmsipgq7SMic17m8VPgQ6wb5BXH9Wt7v15JrEvXp2hUfOmTycKCVf0vJaymf9PDXNZ3Yn2WV47m0Pa7ncrXdQhG/tHeg/UQRz5yPEjOQlTElmzpiY9d9WiVXm76Qree/DsWJtYeEnCH+4l6XahV4t1oLLZkROy6nhdSQDy1B3teNwGbMzbrbrXZwINYMXfoLIWGNeS/vF53nihHVBo7DdQ+1i108X+/38mLJu4RkpoJG4GFBTWcBgCKQ+F7+zMXZwgpkVN7xZcP14oD25Hmy4Jc+JVGhqOTDcGo3LlAnHh75YrL1UPv+2wMvMrThYxoC77gTZ9R4jVeeHEdY1I6fEsvAMdvIo43luCNsPxqrrT6NYhzGT6kz5/C0Fbdj+EVMVhc8cGJlIW7zXDlUmeCs1/6sa32sqeKDxrm8VPiw1k1qo7VV+GTEOo3n41Y4haF2zeNC6LpDZ9CH67Pe6JOUPV/ncrXd0hy/JIPFcZOTDoxBJHHdiI199h3MbnKFvzZ94QPPve6PkxV/oxtNfuOhN+8dDU4JDuBR7Lepo3zt96Gc6y3bENiMeTUvMBZALv7wMwn2ibWa8pzMD3JpLp2DaB7GLsrV+38ag6+9D1JILcfhwofauJglBAEQAEIltUg6Aqby1B5kaRIIFf0q5OrOfF8UDxUs0J+Kh+rLUuCK/JOt1l3SqeRtP9TugFcydD0oBSZp3jUueHIcYVHikpQJTjWW+j5N6np3nEbv9Xo0VlvtbmN8ZJ2p8bfVs7nzjuEXMUllvukSjv2pPBBb47m77oQc5It5aRTq6vtUSjn7s5a5vFT4MNbNjLcV17otcqeJFvXOwgXX+75NTp9OPCS/zF9lsiz4pG0uV9sty9xFGYKHyJWZZ30YZ/l6POjDNtyOyXdl0h7GiDfT29VcbfliSjylsTtOLrwv7fbhFISfqXQz5iLfCZuYK6xGywd/OW9phjxP6VpNn/AocxDqQzoX0YPLoBfH9tX7ZMVNPn4M9vIEBhLiO1S5YOoNKQOdz+UHxt5iKeZHPcbTC24Lmix/F0SQ1yzA6rCe+SquuM4gP+KSFoQwg2HBJQj/2RjhLztgi/FcUO16LSj7/axpmNm+uUhsNIpzCSI4n7T4g035Rz/hgllrmG80bmXa0VitmFPtbmN8ZJ05h6cqMCsdx/DLatCKPdQdciTkhMyFNZ7DPLZgk7ziVdTCojc01GywR+/bOpeXCh96HVCbIjwo8u/AQDm5bsnDS0JEyUntgYNY93o4CxM7dYb9gFynk96dL+Zytd3YtVwByXaMd2CsOK3FRqBV5NqGfYeYX8fD9qU+/uie7jhR/uKhg/YH+UHcGr8BD8qrnfal3T4cDe6D9W3GXOVogMiMA5aT7GFUghTikT45qGIzjVmbJ/RifXnuoTYuPpB74sCWgEQAKDdpc4/37PCUxscNLJGQUS+vagSp9lwsY2FRssviITdiWTEPntxqXcmChX5CEAiMrEACYRwLMeZDvJKh7aAsF7g08RIXm4vERuvb8WNgGeJPx5AxbqM9I9OOxmrENj62jTGMzLEvcijlyl515hyeOBYj18fwq7FFCwMP6WFO3qxx+3FMzoU1nkN/Xiy4KHmtarzsxDuQlWpu58fzLDlb2ubyYvMh1424HvO1rtgkqVivYVrMKxFBnu0YkKP7dGIcvLt+vUjKH7+by9W4PTRjLVdoHLzKPFvHOIzviI2p+zTuALuWvrCOky+746SWR6p9jV/MgfiVps0c7N+XdvtwMtZPUr8Zc4tzFUOIE18P+HVEEeZQrvNrAXJrnu7D+wcfavFpITgISZj3IzHR/uB3M/liJwEKBez9F+YmkKrACxbERlf0KOLBriRbDMQbUTzY5rkYquQW/ayh0Bnn/sI3RieQ7OCQC86eeJGBtl7szYcHGn21181FYqMjBZdCjoWlhaE1TgiacnM0VludaGOMUmkMvKYUCvn6Wn53qzPn8LQVt2P4RUwy5iPWyrnEYU0C9Of6WBsF7VaOyfFZF9rQJ1fK2Ho3lxc7Rq11A+zQP3kt1HL0ffTe2lxpYHrGhDlah74PJ7T8fQ4Da642qfd+Lle9VpTjcvyWfWUL4og5qjG173VcwL2ODcr5Kfu00onYwn2pDjq8oz9OKrVJxfIav7IWVmQCCkpuC5h+H1pSvG8Egc2YWzU1tPHzFFgCsUEPjo3cgfjgh1pxHiNPWvMw9sCP4ofkkpjGK8fh0r9TG3wIoMHvv3CwYyGFb8+jyhgGK/ACSQAWm8tJaIAEXaHY6i+LUkk+VjxIJgVJNCDamYt+27BSJ/odgoLhgfYz34vN2r54odWRG/EtXbEHDt2ci7abp/Ty5DjCgJJLrtXAMsSfip/4jntv/HANn1wfjdVWW9sYR6mH1BmDz61OHTDvGH5VDWr4BfVMxLjKhTWeoV+uF3VlWDtlnnH9UhcuzMK2uuiPe2bzsrpuKNzJITnPiPUwj69H6pCZBS2v5jpGA/Xrmk7dj/e9MaG19dzP5qrHBmuMjF85gsd56BF8awzVwUeMzXKt2EgU77JPs3O17Uu27+yrkThBLPnDV8VBuOUPEUrvdC1EmRJD+pNmvXVtxIfSIm/ZgsBmzEPOKb7jPpLXwxAX7HAp4obyNvXrdVD+Tm3Kd3AU6kSaxz036gvvrlxzHK5/qI0HMQ2Amdji47TgvbFoVcGsoEXEsScJPMlbiwNIFEFAKkLh508mdHDRQPvV1El20cV9SQAAIABJREFUisihQ3TWxW0nfPKUT/Cyn7hkfTrgbd/ObuXJcYQtJpdJceSDxR7Yl/lawzwJmnJxNFZbnWhjTFIjlqrQ7lNnzuWJPBx9PYZfK8Zr9VCPlePWeIZ+vmCv4UHcAw7hh8VGoSvW35yba9K39x/Bi/Y91/HKmhbcwThHDJArPs98BzzgJnmkdSnhnt4pWMOsrRN9sg7VvKau6RjrP4KrMYtwdBG/Qkgrz9oY13OsjI2cK1FfbmhseoWh6UbHa94vtnxJ00+/GI4T2u9RbRLvhGOOytyTLpo8fbgvHfZBmuR3GxDYjLlZd8EAtVdhax6ax/uNvyYj4pLqOuYgT+8vP9RuYNqnOAIbEdhcJDbqu/M0x+rO7K3b7vyuY3TGCOflDNS36XSutuH2bbOeECdP8OFuceeYI2Mchxu8U3u3MHN774wAT447+3GE7Y7VESifp8P5PQ/7lmbnpYXOtfqcq2vxcVVrnhAnT/DhqvFRs8sxR2Q4Dl98qOVvo+eP5wI48NP66EYtwPZpd7v2wXGbFJ4c2yR8zyzH6tlcP5ffq9bYvnh6Li9r/t+Pt+/lao3L3v77cd7rGR/3hDh5gg+ckztcO+bIEsfhiw+1dwhZt/FoBHhyHK37bvocq7sxNmav8zuG11GjnZejkP5cj3P1OYbfIOEJcfIEH+4Wa445MsZxCIdaaPAfx8BjwGPAY8BjwGPAY8BjwGPAY8BjwGPAY+AuMUAPJPydWkLCXx2BZQkPdxyIPgSg2Pm/5yLg/F6TW+flmrxYVjlXFirephF4Qpw8wQfNy9XvHXNkiOPgh9qrR63bdygCPDkOVXxDZY7VDUkbMNn5HQDrwKHOy4Fgf6jKufoQwC+Z/oQ4eYIPdws3xxwZ4zj4ofZuUez2TkWAJ8dURQ8Q7lg9gMSGC85vA5wTu5yXE8EfVO1cDQL2pcOfECdP8OFu4eeYI2McBz/U3i2K3d6pCPDkmKroAcIdqweQ2HDB+W2Ac2KX83Ii+IOqnatBwL50+BPi5Ak+3C38HHNkjOPgh9q7RbHbOxUBnhxTFT1AuGP1ABIbLji/DXBO7HJeTgR/ULVzNQjYlw5/Qpw8wYe7hd89MP+3/L5+lvffPHQ5Dpc91P77fS0/r9/lH8fh3+/y+inByWMRPHDQBPDvjd/yrOVyHfo66gSZ9MNl/71zO/a/F85d6OcTQL4hc+Tv4pJOPSfgkHRVAgkwSP7vj1ewwfo7v4T96X8HWBMs74HDI/8RlxRbPz88fjI/dj+E0ivFJYxJ9B/gxNFYbXWphXGuHUz6hDpzJk/Ms6HLY/it1KmapaqO8Hhv8QziQj+fUNNB7bpOp7qJskT9DXa9ll+xYJGgfV/n8lLhQ6wb2R/CvIS1Vbtaf3sU6994vqzIDPzw2krr8FzO5nKVeeBXxAnoxh/ldzWHWpxxDTGXzPUmyyhjIiThwB4sy8q+1Nc48lvqXYkLcEvluZwv/Z51NxwnymaYz+0mLDJuMgZCP59g4ABzRY1bcX7YhxV53r2OwBjmHbmwrnLDCMxjHW5ZkJHn9cF5GrviOFz2UIuFRi04VIyVw5CgmHwIzutlHIjjpub95oc6hop1GfVJdRAYuUBk3SgAF2PZ/8MFWDJjgeotIEEn+MjsAO1Bd9JVCSTQnzZne+KFCfP6/QtPZaQv0Me4DP6yewv7k9p4chxhQjt+Ij9pp4z3KZ4Ax8QlHXBz7M22/2istvrTxNiKxb3rzMk8bcXtGH4rdcoyOnDFN29/y5vFf5Pn0UNtiAFZo6C+Ul0Tugq7LOP3a5vLS4UPsW6QL1jX3+/XkmoSdS26dlUeKlj592m+WDKjPdnO0r5k+o4Xc7myDRWxSfsC2isUscpzqMQEZGXMSF8H77vswUp7llibKQ/JomVp2RRHmXEB82j/SIdumfdZx7yroTiJGKStXjAL/MhrfzMGrFpoyYyxUmJt4zDkgy3CWwcR2Iy5mQuDyruHYx7LeOWT1/r5WPua43DdQ21lUXy938uLJS8VM9z3EzhY4NJZAHAIJL6XP3NxtoDCYlcnAufo4oH25I2XXBSMIk2qQ1HJRYmarVfUiYdHvuBsPdS+//bAiyw1fCTsaUhcgAQ/qe/cC54cR1jSjp8Sy8Ax28gLGw8tVPf580ejGIfxM+vMwTyJGBm4OSYXqGZ3GLaCW5vnyqHKVLte+7Ou9bGmig8a5/JS4cNaN6mtqO/gXFm7woFE164VTgNMPWM4nrXxoR3X5lBHxT6CC9jvei5Xtp05NqmfxWgNmzC0k7MO3vfZUxj2gJ3WXqlpU8TB8r2QVYl/gnLSa3+cMC4btjRjoDjUVnAG+QU+daX9PtRleM8YApsxt3IhqMZYALn4w88kRm5Q3pHZscbSfDw/0TyMXezjD46on4SMv4JM+nfhQ61+5xEAASBUUouky+DopE4HPk0CIaFfhVzdme+1Hv0OM/Sng2c1kEAe+Zdl166STiUv+RgmZiyEHOF/HpNkxsFJlhgvJFVuUKZ+uhdwCJsIu78i7PBmnhxHKNe4y/jRWOl7ZWFnzKpZm2+PxmqroW2MT6gzB/O0Fbdj+MWYXnt4iD7g2B/+qQ/m3BrPoQb1KAp1lS/mTEm8RF3Wp1LKsXu3zOWlwoexDmS8rbqk2yJ3Gn+1hplYjeZLQ2ZY114v89eYTN0fNs7lyjYu8xL7BR6RBzOH+jjL8vV40IdtQHMeh3aM7yks+SBL7QHjIQ33HLU59MYG30zH2i8etDTmRzhnvHTHSWcuaOzlvkI94BPxob3r35d2+6BV+P1mBDZjbnKOsZ/OKyFl+CdCsV+UcLEuYF7mvT99CiTKZTUH4jProX46SMsc7QGH43DpQ614SgQkxOLDEzYVyuA5A10kP0tMQUIDLjE/Fj/j6QW3BaQFsliRFOSFQKptlspCXbOO6+T6qlhwQcL/HfFKOlBmDuzUgdgAhgyf3HuNK54cR1jEuQR9nE/aIIBN+aeW8HXcZ/lxNFZb/WhjHEDPH+WfXmeO52krbsfwy2pQp6EhR0JOyFxY4znMEytyRaGq/daomg3W2L3b5vJS4UOsG+UBAQ+L/DswUE6uW+wjnhwQc3MlBhi/zsL7jeumTFxnj1qD5nJl+C4OeNgfYlWtuXb8dnCmsK3xHtJM5NGGPZj1bn9wSe2VVm2KOKlx0FraXx7G4+ypL91xIjC91r6024epSH6X8M2YG7mQPs0qIGR5yx5YpSF8XVCxmcaszcsDw1XIycFP0XAcrn2oZU/kgqO0IUlA6gWY37PCl8bHDawq8ApTvK0RpNrz4hAPHkp26Ce7rUBKynnwpEbzAmTmQyP6CfcCIyuQQBrHQoz5EK9kKXKQ7QtKw++tZBjg6Y/ckKbpJ1/w5DjClHb8GFiG+CuxC3JU7M22/2istvrTxhik5tgXOZRyhdcVGM/v81yRW2mutPoMnqQF/XfH8MuxzLbhwkYPc+wHgTgm58Iaz6GfilBWVV6FHLN10mCQlWru4AJMMra+zuXF5kPEtnUYKNY2lJPWgRqmxTyJyqZ8acjEGHiL9Uhq3PduLle2rcFH/iC0sS7IHFrnLIzn8gqsefyM1cbSG2VPGsDkdsVinFjYah1qazqT8ikX3XFSyyPVvhYDmAfxK00NXLKTgHWusbm9vOr2oZzqLRsR2Iy5xbmKITSJ5zO/jgbDHKoH/Fr4szJPjIUbmd9Ft9HAcbj4oTY/NYMkzPuRmGh/8G3IfPMhwQsF+P0nPwZTBV4jVQFWEQ92pYVbiwhnSP42e0UmzFNyDVGpqdAZ5/7CN+EmkBALbZtclPbEi8wr9UqdMK4cQ7PPfuXJcYQtBZdCqYVTGUMgIxUWMX/uzdFYbfWmjTFKpTHwmlIoFNfX8rtTnTmLp624HcOvrEFjtsq5xGFNRsA/k1sb1rWoZl1oQ667DbE7dc3lxao5evMffeYHp3id1xstR99HMKzNVezanC81mbx9YL39hLa5XNmW5di0+2Ur8oJpoTmy78En/aN5pzT7bA+m9UfLBXc4RtsD99mmOI/zTyAIWdCI8sh+Gjb7Fezt+1eu/2Ge8mMtBkJuJScrMkGwktuysd+HlhTvG0FgM+ZWLoQ2fp4CSyA26KGGkRsQH/xQK85j5MnKPBpGr5Zt1Fd55Thc/lCLT4jhd2A42AhS+JbjlJjgrQIvgAMFmM3lJFQAouZQkNVXpeskHyse9HERCpKoKdpZFGEyRL2WOtFvIJZvrtB+5nvxBGRfvNDMyA3/FihdGKO/gjrl41m3PDmOsKHkkmutYUnxE3mnosKnHnB9NFZbXWpjHKWGujCrzpzL01bcjuEXsempBVDPRI0MdYVyIT8ArfkLccDrY20ctGPtzLKpjfTLmMJNIfW15O7RN5uX1XVD4U4+yXm12sXXowD08kqbpiQpfOQ4bZaouffV3BRpe2JO9gRer15j3GyuDJXyIb4a0M4hjZE61AzwnmD9aA9m2KP3Sl02RRDMuFAHuiBPxajCcMbtSJxgnvGHr4qncGsc6pnhuhaiTFnv8OOobTlMZHjQwe/9ej4CI3EjrDFzoayJIS7Y/lLEDeV26tfroPyd2lQTwBDIszjv7y3jLuhIMoXV1RuOw/UPtfEgRgCQV2Zi60NtvBcbGQYmyWq+EnHs6STfvMjNTSlJBAF1h8LJn3ZKUmlY7dXUSXaKyKHNWdbFbS8eAnyEFwY0BBf/IX0BB9ZH7TUfz2rnyXGEDSaXSXEsMgw3sC9RXMRRxD4NSIKmXByN1VYn2hiT1Bi/qpjuUmdO5ok8HH09hl8rxmv1UI+V49Z4DjVoIDeIe8Ah/LDYKHTF+jsgfpSONP4IXrTvvF7XceQHBOSKzzM/VhZwkzzig2O5jgT8e8E1ZKI/6rByAGdHcJUCI14UsSkGtHKozdkI75mqqC83iA2tMK240bZCTMhY6bMpCjbiIvTEOAgxpuQXJk1qGI4TYTPmCs+1dgzgA0CxLwa/inVKYr3m+rAPawK9fxWBzZjXcoHOW8aah8bwfb7x12REXFL8YB7zEsAPtUXcsXV2FYA4gONwg0Ntr1s+zhH4HAGeHJ9Le7YEx8r5fTYC1/TO8+6avFhWOVcWKt6mEXhCnDzBB83L1e8dc2SI4+CH2qtHrdt3KAI8OQ5VfENljtUNSRsw2fkdAOvAoc7LgWB/qMq5+hDAL5n+hDh5gg93CzfHHBnjOHzxoZa/jV5+1Il/lOPYQHe7jsVbauPJIXv8TiPgWGlEnnX/XH6vWmP74ue5vKz5fz/evperNS6h/3589ni1ZcwT4uQJPmzh7sw5jjmiz3H44kPtmaHouq+KAE+Oq9p4Fbscq6swMccO53cOrp9KdV4+RfC4+c7VcVjfWdMT4uQJPtwthhxzZIzjEA610OA/joHHgMeAx4DHgMeAx4DHgMeAx4DHgMeAx8BdYoAeSPg7tYSEvzoCy+JfSz8QBVDs/N9zEXB+r8mt83JNXiyrnCsLFW/TCDwhTp7gg+bl6veOOTLEcfBD7dWj1u07FAGeHIcqvqEyx+qGpA2Y7PwOgHXgUOflQLA/VOVcfQjgl0x/Qpw8wYe7hZtjjoxxHPxQe7codnunIsCTY6qiBwh3rB5AYsMF57cBzoldzsuJ4A+qdq4GAfvS4U+Ikyf4cLfwc8yRMY6DH2rvFsVu71QEeHJMVfQA4Y7VA0hsuOD8NsA5sct5ORH8QdXO1SBgXzr8CXHyBB/uFn6OOTLGcfBD7d2i2O2digBPjqmKHiDcsXoAiQ0XnN8GOCd2OS8ngj+o2rkaBOxLhz8hTp7gw93C7x6Y/1t+Xz/L+28euhyHyx5q//2+lp/X7/KP4/Dvd3n9lODksQgeOGgC+PfGb3nWcrkOfR11gkz64bL/3rkd+98L5y708wkg35A58ndxSaeeE3BIuiqBBBgk//fHK9jw87No2xbCPuD4Wn4FsRr08+6BwyP/EZcUWz8/PH4yP3Y/hNIrxaWcO9+Lo7Ha6lEL41w7mPQJdeZMnphnQ5f78FupQzVLRJ2QdbzFI4gL/an+1RRAe84rczjZkOqkIZvGxHWhkPNhjW9Zvw8vNQ0VvsBfhgfNJk4K/xnGZe1q/X1SrH8yX2QckO7yNfNa6gwBshQ1MvA0bz2ay1WJALQQJyYGOICtGRzbFfyYOtLR4r3sIw5+zFhi4uOlZQ+3V86wbVqPNZBC8VbsW6SKaXfDcWLUF443YVGLgdDPJyAIYX+d5xj7uAYCwz40ZHlXHwJjmPflQp/mkVGVNUWJoBzE+BuryRyHyx5q8eCnHKONhEpGSFAsRgje62UciGOxf7/txVnhi7dRn1QHgZEPHlk3TkFiZP8PF2DJjAWqt6AGneAjswO0B91JVyWQxOZkT7wwYV6/f+GpjPAl+My4DPcZIxP7kxp5chxhQjt+Ij/pCQDe53j6W95sowmyct9864/GaqtHTYytTW3MUY1lljOaN+fytBW3ffhFrFJZahkT62AeW+LG68pqra3qGuVPHWpX7KQHeNmP/CCT2181b6VjH15qSip8iXWD5kLNfy3v98uoOxHjVLsUhiTCyj9oY3VN80xTy9c1ndif87ocX8r8rGUuV7ZtuU5hv8CvGbslHvaa0sH7Lnuw0h7KrTKPWjZFnKxYWxr7FhveKa1DcRLXJ1Ffgh95T9WMAXrwwQVYMmOslFjbEAz5YIvw1kEENmNu5sKg8u7hmMc83PTUUKNYzdf9a/cch+seauOTXp5QIVHf7+UlDnNYzHDtJPB4W4QjkPhe/szF2YIMi12LCJili8cSiyTNk4uCUaRJdSgquShRs/WKOvHwmBfo7Yfa998eeJGlpY9lwBr6aPrJrzw5jjClHT89WGYrS5xz34yro7Ha6sMoxmH8xDpzNE9bcduHX6rJHVasLLRtHiuHJlMt2WTUoco6AbpTrW3aWeZsMmGgxqc5xsU+vBiCQxNho/qtdZPaCDMxxcCBxvNxTSzjwJ4xYWiHziAL3+0LeSj2Etywfa7ncmXb2MyTJpYd+IFK4jHI0nsWip/+3LK9gFbDHtKveWvaFDWM+l43bPee/jgBXOvvVpNhzRgoDrUVnEEY4KqxJiXqtd8HNdFvNyOwGfNqLmAsgFz84flNuc3MpbyjpiCX5lKc0jyMXZTL3uQKZyZ+T8L6XzkOFz7U6kMaFUmV1CLpCLzysBkWMDhpahJquAm5tUGlHv0Oc/9miPyr66KeVLBUYCYfw8CMBc0Lr8L/PCbJjIOTLDFeSKrcoEz+MKIsjIrDiqQzmnlyHKFf4y7jR2Op77mFiKnAnXdPuD4aq60utDE+us4cz9NW3PbhN9eYdTtw7M+PvcCt8Qj96eDZVJZt0jJrdU/KbtiparI0o7/Gy3nybh9epMx8l7HJbewgwxozdjhH1h7dFjGjp70kp4lXHNS5FpeHIFtn4Pj1Mn+Vicza63UuV7aVmZfYLzCOmJg51sdZlq/Hgz5sw60WfYIO7ajllu1FliXjCtrL/UPbpqhB4KC1Wr7oMfPuu+OkMxcyHrbv0J9qZROX/prV7cM8GL9O8mbMTc4xB1Jc0Kc/00ONnNsJaHE+0Hsb+qRVlMtqjhV/r1c+DHMbkq7GBcfh0odacRgCEuLb0zxhU6EMDjPQRfKzxBQkNFAS8+PG13h6wW0BaYEs9jZ6SR5/8sH1l4Wa9/JrrpPrq2IhJ7PfZ9kRr6QDZeqFKNiZ8HstEMB6f5NEnHjBk+MIMziXoI/zSRsEsCn/qA1/iNPYfzCgR2O1lY82xnHDToV7Vp05kaetuO3DL6sxnYbkWiFjfY3HMK8rB5hNos7X1wlLtmln2Cx8XuNbUO3DS00Dw4YPAZzYuiYfvsX1kfcbv1Or14Qg3txcccX2esJH5Gscm2ulPFTlcbjWCn9y565Xc7myTV3LE5hlxm4PZ4ovfEDAv/uExU9nbtleQGuNe7VXWrUpalDjpN6aLjlq1l13nAhMr7Uv7fZhFohfKHcz5lYuhDa9drE1kT2wSlDzdUHFZhrTNY+t9cGOsfMBx+Hah1r2RE4c2BKQrIAGBPk9K3xpfNzAisU3Qy+uagSp9rw4xIOFkh36aaNlBVJSyoMnNZoXctFCP2HDIDCyAgmkcSzEmA/xSpb2LA5MV5p3jQueHEdY1I4fA8sQf6wAMCMD/3Q4Y+2zLo/GaqsfbYxBao5HkUMpV3hdgfH8Ps8VuZXmllYfzVNpQV/LPvxyrLJexIAe1uiFFMfhmBzrazyGfqq1WZVxxW3q468lW9i5U403jE5N+/CSxKkLjg3rUvEcfOZrXeE3ykkH2VC3DJ6LeUwnHb64Htmt7vp0Ipfvro9xKgXDt3O5ss1ZyxM+S8RurGstznp5xzTsyy1uj7xWfKZOJpfeTeIxUoupWnuQW9OVlE696I6TWh6p9rUYEPWsiQtgnWtwC4RuH1pCvG8Igc2YW5yrGEJDMC8wn/l1NBPmUO7xa+FFxzyxbx3PRY7DxQ+1+EQRiiwkYd6vxET7g29D5gulBC8U4PdfmCsKNZEggNc3snCmXkU82JVkp0H5QhQPtnnOI+KVklv0s4ZCZ5z7C9+Em0CyA0MuSnviRQbaeqk3vA74KuYdcMOT4wB1MjYLhRaWlbiEuVahKmTu13A0VlstL/LFEERj4DWlUMjX1/K7d505mCfD3a6mffiVNaZLcRok5xJHqVtdQH+uf6pT3Eq5PetEWzaX18jPnerePrwIQNgN+qLXNGvdADv0T56n5ej7qLKRCwHzrrWazNc69L2qkTvxQdqt17lcWRrznsnu1a2IEd+0rnGoOYd7PYdqaE9uaYvyvcEfdArecEzbpiixEWv0oDL7ka044qo/Tir1RWCyHgOynlVkFli3kej3oS3He/sR2Iy5lQuhjZ+nwA6IDXqowWtFtBHijmq0isHsxcq8wpZK3meBxRXH4fKHWnz3A37/hYMdnYZv2KPqGdxU4AWwYOFlczkJBTSyIRRk/Uv5ijgoDq1CKIsHfVyEgiTqi3a25HDLSp3oNxDL8UD7me/FoXpfvNDGyA371ktuO70r1uurnDv/jifHfG1ri4+BZYi/GD8QNyz+S77nenA0Vlu9KfPFkBTqwqQ6czJPhrddTfvwq2pMQzPEr6gLPNbju3aiX8nStVZ1s1tlU8c6wWWv2Yl5+FmNZ8YWl/vwUohNDWUdUZtexQtNlPNqtYuvR+qQSYLiO4Zps5Ta1y7WdOp+vOdr5pqG0f7ZXFn2tOpdO3Y1PuoAOcB7WpY6csvyAdsMe6K8VAe6bIoawlyVl0m5oSv1zb8YiRPMM/7wVfG0oVaiTIWNxnoFhhEfVkR5dycCmzE3c6GshyEu6NAa4yrVyxgfuU7jOpFyE84bYS7KTTUBfIO8TXJV7lVyugUJx+H6h9p4EMsAoGtmYouPBcK4kiQJZgum2EfEsafSmbS1Qwn2pyAgdYE0/pRbFRMaV3k1Fy2yU0QOHaKzLm474ZOnfIIXBjQEF/8J+si22CdtqDh5UjNPjiNMMLlMiiMfCtOCr9Q/FkdJzcaLo7HaaObKu+EkNcZvKrTYvk+d0TweyxN5OPq6D7/ad6gPNf/1WDmunSuVWms6jXqKPMoNatHVstt2BpUf1njT7Ni4Dy8tDe11A3go1jR0mn2kFzGStV4djmFOWBskz/hOnFxHwGdbJ/ejrRNz2TpUqwMCF/nh9RFcaRPbedKK3TZ+I7znVIr6ckORW9r+fK9tLWtHn01RohVrtL9MayjGnYzbbNGsq+E4UXsqmM9tbseArmfRqw9r1rAPs8D8IrmbMTdzAYBT+3i1H5L9xl+TEXFJdR3zmJeA4hwm5o3XY47DDQ61XxSh7urpCPDkON2YixvgWF2coA/Nc34/BHDSdOdlErATxDpXE0B9oMgnxMkTfLhbaDnmyBjHwQ+1d4tit3cqAjw5pip6gHDH6gEkNlxwfhvgnNjlvJwI/qBq52oQsC8d/oQ4eYIPdws/xxwZ4zh88aFWvc1+8sdPcjK5XRmL4694chyv/V4aHat78TVq7X35vWoNHWXAHn9fXmx/+lvvx+v3ctXD6v347PFqy5gnxMkTfNjC3ZlzHHNEn+PwxYfaM0PRdV8VAZ4cV7XxKnY5VldhYo4dzu8cXD+V6rx8iuBx852r47C+s6YnxMkTfLhbDDnmyBjHIRxqocF/HAOPAY8BjwGPAY8BjwGPAY8BjwGPAY8Bj4G7xAA9kPB3agkJf3UEliU83HEg+hCAYuf/nouA83tNbp2Xa/JiWeVcWah4m0bgCXHyBB80L1e/d8yRIY6DH2qvHrVu36EI8OQ4VPENlTlWNyRtwGTndwCsA4c6LweC/aEq5+pDAL9k+hPi5Ak+3C3cHHNkjOPgh9q7RbHbOxUBnhxTFT1AuGP1ABIbLji/DXBO7HJeTgR/ULVzNQjYlw5/Qpw8wYe7hZ9jjoxxHPxQe7codnunIsCTY6qiBwh3rB5AYsMF57cBzoldzsuJ4A+qdq4GAfvS4U+Ikyf4cLfwc8yRMY6DH2rvFsVu71QEeHJMVfQA4Y7VA0hsuOD8NsA5sct5ORH8QdXO1SBgXzr8CXHyBB/uFn73wPzf8vv6Wd5/89DlOFz2UPvv97X8vH6XfxyHf7/L66cEJ49F8MBBE8C/N37Ls5bLdejrqBNk0g+X/ffO7dj/Xjh3oZ9PAPmGzNev8FRbIe5Jp54TcEi6KoEEGCT/98Ur6K/gpH1OZgrPzr8BDo/8R1xSbP388PjJ/Nj92VKSo2Mij9j/6mis2h5U4r02iWpBjFcej4RlDfPQzyfUdFC7zveUf8uyNOyg6We97sNvhRdRh7KHhH0JbysXWn/vEvOpWZuyenX1mc5Z3O7Di3I13V6DLzKH4mG9rq3EQMgzXltpHX4tA0svmdX9Opcr2wzCrFa/6nHZinepi3S08rTsY/WO10Apmt1Z9lT2dkE07sWk3pW4CGHwSns7wEzOZ+a+/qpkAAAgAElEQVRMvByOE72mKLuJn1oMhH7tqCFzPe8yKMM+5Kl+tRGBMczXc2GjGSvTKmsKzVJ7oFrM0nDrleNw2UMtHoLUgkPOq2SEBMXkQ/BeL+NAHIve+80PdRY8rC3qk+ogMPLimHXjPNw8yf4fLsCSGYtJbwEJOsFHZgdo33qo3QUv8IEtVBIHTKbkX8BAcctgP/OSJ8cRdrTjJ8Zz2nXFRZ7HExgJeL7ey/tFeXCE5Vf7puiVwskhifmWYfxb3ix225wA3D+LyGkuW18bsQ65EXJhxQ4t6uj7fXKhwkuIWfXQcoE68Vre75eBr86FCg8BU1VbmrWpheqHOsVGU8ZYS+ta3z681LRcgC8ybWtds2JgQb9y3pbckto9X+dyZVvarF/NmlNiYte6jjzdZQ9W2kMH8rSXSBC0bIqDrLjYXBuS4l0uhuIkrCn68A3+y30nx0jux4zaacmMscLltJwd8qElyPu6EdiMuZUL3VpHB2Ie5/3W+ny77tTncRyue6iNixBPqFCs3+/lxZJ3iRsh3PcTeFjg0lkAsAgkvpc/czNlgQUydOEox+kFBO3J8yQ5RpEmkaGo5KJEzdYr6vwLb+nnRXr7ofb9twdeylKeNIVvxJOac4FbnhxHmNOOnzJewuLEDmBLzJP3Xzl2tv1HY9X2ZyCmeGwaQtucGBsCQwY2rdSQFTuqYg/q2IffCi9WHaY2qtXCTyO+aTwf14Npz5gg8wOd3Tq48X3X+/BS03UVvsgOg4Oa6dRewz6049qsN/k0de/XuVzZ1jbrVw2bIMrA2soxaguy9J6FeNtjT2HYA3aCfrEHpAe7v8s/06aIU9P3gTFx6J4v/XGysqZEo5oxEN/gyXvHCs4gy8K64ni/DxUB3jyMwGbMq7mAsQBy8YfnN+U2M5NqATUFuTSXzkE0D2MX5aoHzzQfXqu28UHymuNw4UOtPqRRkVRJLZKOwMONJz8Qh0UMHhVoEiQ2+U7Izc36qigeihDoT8VD9UlZ5J9ste6STiUv+RgmZSyEDOF/HpNkxsFJlhgvJLVvGH5BlnEQ4/y0hR3Xy5PjCK0ad5nQyE/GSd/zHCn7Ztt/NFZtf3Ist8dBL479+bELa5sTrC0pp1vKQn7yRUEPbtuhRx99vw+/FV6MupJxxzk57sFz3Rax049/VU00MWO1yexPjZ/ojPZVYiyp2HCxDy81xWi3htVaN2fyldafgvea3ay9EQO4Fr3MX2NiEna7nMuVbWbmJfYLPFpx2RfvWb4eD/py/ORxaEfi1Mh92xNLPoxUe8B4SMN6UZvTuVnurg22xVtbu+Ok0z6NvdxXqDVMxIf2oH9f2u2DVuH3mxHYjLnJOeYO39uEnE0PkHJuJ4NFLmNe5nWbPp0U5bK1EOKT60nyigcuvKd+zXG49KFWPCUCEuLBiCdsKpTBXwa6SH6WmIKEOkhCd6iH/Pcu8kaV2wLSAlnsACfIC4GU50rtZaGW/fmO6+T6qljkqepQvyNeXIfaiAS7GCYwlPsgpp58w5PjCFM0DpxP2iCATfmHHcREPCGXuaDMt/5orNoesVhuD0y9AeuALcPUiE3JidoQJGnGhahBRn9sqtlRn3FMzz78VnjRdVgtsmXNQDk5DyoftVdySqRG8uRznTO43YeXEhlsuQBfn9a1ZgzgOpu/V6KGwz7tc7mybYSY4+uArl8wy47LjnhX2NbyNDwUEfVvwx5M7SOyt2qvtGpTnKnGZXl0NVIbaM4+r91xIjCND7XT/iDvLddiIPBPT64CLnmu9EhhLTvFXbcPYpbffILAZsytXDDjgOUte2CVbObruIrNNGZtXh4IlanrE7JiyiJ/Fe7ah1rmoDiwJSD1AszvGThpfKjm7IuSNDTsvkaQas+LQzx4GIe39ETCCqSkkgdPajQvZMFCP2ERExhZgQTSOBZizId4MUsDJgyH2sLHF142/dTLzUVio9Xt+DEW2RB/cAjjsQ7KjbEbbeqddjRWbbs0Hjg6xJ6x6HNZOCYfbNuc7H+oJVu0HdR+1us+/Nq8yDoUN2esZuh3For4VnU4YdSssZE7ridNtC5UTm3UCZL35HYfXix/g6X2N1WKdWMmXzpeFAc1s3l7IwZCbr/fmzZOXEXv9VyubCvW6hefJeNSYW3EexjP86fAmvP36Z5C2ZMMZ3Ipt5o2xYmFrUlguAi4cTmye+pdd5wYnETjxUey12IA8yB+pWkTF8A6r40tELp9aAnxviEENmNucW7GFs9nfh3N5OsCvxZerMxjY4v6wvpalxyHix9qcRMChx9IQnqwlH6P9g++DZk/YZLgBYDef/JdwSrwGjJZOFOvIh7sah3ORPFgh/Qkjy6UXGq2Xgudce4vfGN0Agmx0LbJoNkTL7Q0+KsXhsI3qdfy8aw2nhxH2FBwKZRaHFJc4ivYW/xo/IXM/W6Oxqpt+ScxJee2ORk41Lby3XRG2mEOObBxH36tGNaHIhxTxPEPr61ajr6PwFiLdewya1MTT61D36/rzOJxbirPuWP4ah9eamptH611Yw5fO9S1Wgzw9mJNquHxWftcrmzb1uqXnMXjUnNv3/fwTnH+2R5M64+WC+5wTNumOI/zL0HAd64PWjeV6nDbHye0/ispApO8b1aj0m2ohURSa51ScpMA46LfB2OyN21CYDPmVi6ENn6eApMg3uihBuZaCpvQzb54txorK/OS55XYTv31C47D5Q+1+EQffgeGgx2LHXzDnkBYgRdIgk0/mwvAdxavUJD1l0Up4tYWEFk8Kk/so536AFqjsNSJfgOxHA+0n/leFK898Yo2mNiqYFUY1vw8o50nxxH6Sy65VsRUxEXAjorMyljePeH6aKzaLqhYbgyGvGhh2uZk5FBr5zvpp9dkapXbNOLQi734Xa1DFb/lvFou8PoW3rZZXmkRJrhatYnGWK/bdc7kdi9eLI+hTeIOLVb9LmuQnLcdO2mXIUcOKO+sDVvxSZYYE2L/UIr6tGU2V5Z9rfrVjksDa75WD+RpgvWjPZhhj94rddkUUWrERe+e0MJ7j7aROME842/yxE/gsX1uKwbAXugv94oqpzXWK46O+LAiyrs7EdiMeSsXUvLqh88qbmJ85NzBdSLvreTv1DKxIKg4h8n1oxOAOIzjcP1DbVxQM3DohZnY4uO0MM5YuAwwm/ARcewdsUwakszvtSxdPEJ/KMT8HTZVTLQQdW8WLLJTRA5tULIuaSvik6d8gFfhU9RJwsm+gOOYv8r9qbc8OaYqisJNLpPiyAeLPbCPIE3DwgWOlfzKEXvfHY1V234Lq1qc6bFyXJsTVdjbRoVeqlWAV/hJD37adnSInjpkT341BjxOzRoZPOOHKSu+eX+EItQZyWdYQAl7/monEsP0A5209iR9yiamZfRyT15quk/lSxhlcSAGlDdGDKA/1gOQWj0txW5pOYIrbVe7frVqjoV1zrGRPM2pFfXlBnNDq33Ae20r1E+ZR302RelGXGyvDbbFW1uH40Tsp3Bd0TWV32u7TNyKPZzEWsvQ98M+aAF+P4zAZsytXAjaMd9BbvhJexUyjfcbf01GxCXFD+YxLwHloRbltmKWLLBeOQ43ONRaLnibIzAHAZ4cczQ8R6pj9RwuLU+cXwuV89ucl/M56LXAuepF6rvHPSFOnuDD3aLQMUfGOA5+qL1bFLu9UxHgyTFV0QOEO1YPILHhgvPbAOfELuflRPAHVTtXg4B96fAnxMkTfLhb+DnmyBjH4YsPtfxt9PhWO73lLr6g5Ogwd7uORpzr48nB2/26RMCxumqullxtaXk+v/fk7/m81KL1fnx9L1c1Dnn7/fjk1u95/YQ4eYIPe3J6hCzHHFHmOHzxofaIkHMdd0OAJ8fdbD/aXsfqaMSP1ef8Hot3rzbnpRep88c5V+dzcAcLnhAnT/DhDrHCbXTMEQ2OQzjUQoP/OAYeAx4DHgMeAx4DHgMeAx4DHgMeAx4DHgN3iQE67Ps7tYSEvzoCyxIe7jgQfQhAsfN/z0XA+b0mt87LNXmxrHKuLFS8TSPwhDh5gg+al6vfO+bIEMfBD7VXj1q371AEeHIcqviGyhyrG5I2YLLzOwDWgUOdlwPB/lCVc/UhgF8y/Qlx8gQf7hZujjkyxnHwQ+3dotjtnYoAT46pih4g3LF6AIkNF5zfBjgndjkvJ4I/qNq5GgTsS4c/IU6e4MPdws8xR8Y4Dn6ovVsUu71TEeDJMVXRA4Q7Vg8gseGC89sA58Qu5+VE8AdVO1eDgH3p8CfEyRN8uFv4OebIGMfBD7V3i2K3dyoCPDmmKnqAcMfqASQ2XHB+G+Cc2OW8nAj+oGrnahCwLx3+hDh5gg93C797YP5v+X39LO+/eehyHC57qP33+1p+Xr/LP47Dv9/l9VOCk8cieOCgCeDfG7/lWcvlOvR11Aky6YfL/nvndux/L5y70M8ngHxD5utXeKqtEPekU88JOCRdlUACDJL/++IV9FdwQrdfAUNtt3Du5Bvg8Mh/xCXF1s8Pj5/MT3d/4n++F8dhVYnlmouU5zEWOSRtvJfFzFdTT+aGy09DyYaUa7GnJ/dpbs1+U2HSvNvFPvxWuBN1KJtM/JQuZrzLXGj9vUvMp7XalC0wrjRngdN1nUuDR0NLd9M+vNTUXYMvso7ioW/NaMXIAsm9yPpKa/FrGVh+ybSu17lc2SYQZmWexPHVuFzBj6kjHa08LfuIgx+2B2FCi0vLnsreLojGvZjUu56nsjbw9bcwaFrDcJzomqT2vMRPLQZCvwTq433psA/T0PwewWOYr+fCHOQqawpXpmpSX73PAjgOlz3U4sFPLTbkuEpGSFAEAcF7vYwDcSx67zc/1GVQzKuoT6qDwMiFL+tGCVggZf8PF2DJjAWql8igE3xkdoD2oDvpqgQS6E8b7R3xAh+S3GhLsg+T6fX7F57Y9PppcjK5kSfHZFVBfDt+Ij9px4X3OZ4qHB9h+KHfFD3gZ8yllAbL3/JmcdnGe/xQO1RrenK/w/7M/1yi98mFCneiDpEfUCdey/v9WkofUQ6vHcBlMS7gp9aNZm0i3ZXXwJmUB3WW22GuVSs8VrR1Ne/DS03VBfgi00KMvJf3i9Z36qi9rsUI9ueYKcfXJG9tn8uVbVWzxjXjssTDzDGoqWt5usserLSHHhSJ/AswtGyKOFm1wVgfcnzY+M5oHYoTax0JnMh9J8foiH3pkA8zQPxCmZsxN3NhFoCYx3lPpvVg7uZtLrx5KddcPUPfcxyue6hdyoIWivX7vbzSYQlc44AQeLwtuh9IfC9/5mZKQ0Ry608FaYZeQNCePE8uCqVPJMd8ipw65QXqxAMiL8BbD7Xvvz3wkjaaGz2DUzXr9FueHEcY046fMl4Cx+mQRvF+hKWljuOwGvBzpVi38R4/1PbnTsllQjRsUuKGpMN+nvNJxoSLffitcGfVYWqjWi18MvCj8XzcCn5haM+YMBDqYq7lXI24tuRZbWLS9pt9eKnpvwpfZIfBe810a33RMRJ4QU71Rr8q9oOOuVzZhjVrXDMuDaw1fqCS2oKsfJBCa4i3PfYUhj2kX+wB12yKODV9j9ZbnxCM02e+9MdJX01qxkB8gyevIxWcwWHgWmNdAaLfh4oAbx5GYDPm1VzAWAC5+MPzm3KbmUm1gJqCXJpLayfNw9hFuezQWtQRo3aQ/Morx+HCh1r9ziM5qpJaJB2Bh5vT4kkVPCrQJFRA6k3monioYIH+VDxUn1RN/slW6y7pVPK2H2p3wEsbKnihTuSH80I9V3nlyXGETYlLUiY41XjZ91gkoJCwQkHyJr4eh1XO63V3cGwNizbemAcpX5vKsk1aZspDXmsEr1owz/11+/vs0zrG7/fhN+MkLODYxI6MI86RdUK3RZz0498mzklR30YtyOKLuvAg35g6o30TcnIfXrL58grt1rBa6+ZMvlIOWQdVaTC764uRIPv1Mn+ViQnb5XIuV7aJmZfYL+KzFZd9+GX5ejzowzbcasl32BOnRu7bnljyYaTaA8ZDGtaL2pyej5qjXFl3bMv2bu2OE3NfVVqTOYp9IgbUOqf6pDS+Nskefdftg57o95sR2Iy5yTnmDt9fhJxNDzVybieDRS7r/KFPyUW5bC2E+OR6wn3Q08jfpLS84Dhc+lArDpZAQnyHiidsKpTBTwa6SH6WmIKEEpzUIubTx2npCUTe6HBbYG4gJ72TZhWPPDfpChcYEMVmQg7Ckenj1lJfFQsuQ/i/I15cR3Ujsi1ghejJNzw5JqsK4tvxg3iBTfmnfnCVBWi+9cdhxeK0062QhwE3iVcbb5WvTV3MJlErKrUmLCL9ud+yny8GTRM/7NyHX4YTt0fUoXLDGWKZ1VHaLOc8kBvmJNpcrFNv2nR3bVwFr1yGum7orPGoJAzd7sNLTeUF+BK5gvZ08RXXndUYiYei/Gs4NSw+b5/LlW3fWo2DWXZcItZN/FSs1/I07GNE/lTqou1CbK1xr/ZKqzaRuMrHGoOdcY3t2YA1bd7W2R0nAtNr7Uu7fdgGkc8yENiMucqZIFrUXVLG8pY9sKJe8bBTxWYaszYvDkw1Saz7WUrriuNw7UMteyInDmwAXnBcL8D8nhW+ND5Uc/Y7pQ2YagSp9kQEHTwUIaGfCqUVSMkEHjyp0bwAmXmRRz/hXmBkBRJI41iIMR/ixSwNPiscsLu2SLHJJ1/y5DjClHb8GHiF+JMHtWwn4zA3Trs6Diue19mdEO+Ud+lpYu6HKxyT8WrjvfFQy+qUyC+eaxtz37Sf6ol0dfe7ffi1uRM4EU+8ZhR4qVxQdTg5X8xLPeGiXpvkuDh44B3dHGOGpCIOrTG9bfvwUtN2Nl9av+K9ZnZoV2MrMRJi4P3u+2h5U99651yubP1rNY7PkvVlHb8wviNPsUSx9YjXQn7NjSmulT2pn8ntqh1x4kptgFGIR+3hYzJg94vuOKnEdKinbA1ciwHMgfiVpk1cAOt2bSMwun2gCf76MQKbMbc4N2MLcxDzmV9H03ku82vh2co8vn9KOdgXc6SG43DxQy1uMuHABkmY93Ix0f7gyRsvQBK8UKDef2FuOgRWgSd46FUWTmq1ikeSnQblC1E8FHl5VDxsCl9Er7gBmUJnDMZf+H2QBBJiIcZRwKRFaU+80MTgb5IvzAbt/kVRCpKCS9Fv4VWJS5hnFSohb98bXkj2laylyTjVve17ObeN99ZDbdwMNWtNg7eYv/xb07NPpf05x/OoGVf78GvFcMQr1QkcA/r0T65fWo6+jwg0cqBdmywEG5zx4Q2deRjam8pz7hi+2oeXmlobV3mYwTGaK7j/nC/E3JK9/s6qtl3fqxrZzLsaPmPtc7mybVmrcXIWYsQ3rWscWtzoORTnn+3BDP7AeMEbjmnbFD3uydOeMRLAXe7646RSkwQmed9cMy7UQiJpp31pvw81q7x9FIHNmFtxHtr4eQqsgXijAyavFdFSiDtax1UMZl/a8+TaArMqeZ8FFlcch8sfavGJPvz+Cwc7Og3fsJcSM4ORmgJJsFFiczkJBTSyIYCtvyhEEbe2gMjiQU8CKUiivmhnXhikHfqu1Il4ALEcD7Sf+V4ULxVsH+EVbaAA10aH+8hb+pozc9CpjTw5jjCk5JJrNfAK8Yfx8/eWcRRirYk/l/359XFYqThtmA4xL/KI4QXT2nhvP9TiA4V2rcF8lJzRPLK5x36e4w0oPu7ai9/VOqQ4IsPlvFou8PqmDi0kKC6SafFN7esXFmcFR6FuSl6LMRUf1y0oR+zFSykZWyTu0KY20hVf5LxP+OKWGXJ4t7g2xgZbKUZ0P97PzKfZXAn3402rxrXjUuOjDpADvO+zBzPs0XulLpsiMEaehvqbjKX9GcWLhe6ctpE4wTzjb/IonjascyhT1jC9Nq15PuLDmizv70NgM+ZWLtA6qfOB7SnDHpP6Yy7mdRXXCdrLhHUjzMU8pmnBM8hbkitqNK3hKr5X4OA4XP9QGxfUBEB0zkzsSEoGz1i0OJgrQIVuIo69i5BJ27hJDiTydyVUMVmxy1y0yM7sfDQf/zYskA4/3HZ6IpKnfIBX4VP0LwjHYCcb6FXasuL0Qd1g25H/TC6TAZEPFntgX+JLY05FIs2fe3EcVhYOtZzRY+W4Nt4fHGqNBQEfyKm/ta05S09Biat1+2duwskKeN2TX6rXIBN+eO6LhZIbIA5TiAufVxy2YK61WBeY89okFJo32na9Fpk6KR5S7so4NBV1Nu7JS02l9pnjPp0vYZTFuxjAbqyx+UCOPqkDS1w3U01l0va4PIIrbWe7xrXqSxu/Ed4znlFfboAimze02nhxr22FvJV51GdTFGrVhol5KlxZuRmOE9rvpfpS1lSes1q9iVtRJyXWWoa+H/ZBC/D7YQQ2Y27mAqhXe/ViT8n7jb8mI+KS4gfzmJcAXQNCPFZiuQcUjsMNDrU9LvkYR2AfBHhy7CPxuVIcq+dyC545v9fk13m5Ji+WVc6VhYq3aQSeECdP8EHzcvV7xxwZ4jj4ofbqUev2HYoAT45DFd9QmWN1Q9IGTHZ+B8A6cKjzciDYH6pyrj4E8EumPyFOnuDD3cLNMUfGOA5ffKjlb6PHj6N98Pb3fsngdu2H5bgknhzjs79rxrOxumoeHhdjz+YXcLwnx8/npRbj9+Pre7mqccjb78cnt37P6yfEyRN82JPTI2Q55ogyx+GLD7VHhJzruBsCPDnuZvvR9jpWRyN+rD7n91i8e7U5L71InT/OuTqfgztY8IQ4eYIPd4gVbqNjjmhwHMKhFhr8xzHwGPAY8BjwGPAY8BjwGPAY8BjwGPAY8Bi4SwzQYd/fqSUk/NUR8C/HGYoBKHb+77kIOL/X5NZ5uSYvllXOlYWKt2kEnhAnT/BB83L1e8ccGeI4+KH26lHr9h2KAE+OQxXfUJljdUPSBkx2fgfAOnCo83Ig2B+qcq4+BPBLpj8hTp7gw93CzTFHxjgOfqi9WxS7vVMR4MkxVdEDhDtWDyCx4YLz2wDnxC7n5UTwB1U7V4OAfenwJ8TJE3y4W/g55sgYx8EPtXeLYrd3KgI8OaYqeoBwx+oBJDZccH4b4JzY5bycCP6gaudqELAvHf6EOHmCD3cLP8ccGeM4+KH2blHs9k5FgCfHVEUPEO5YPYDEhgvObwOcE7uclxPBH1TtXA0C9qXDnxAnT/DhbuF3D8z/Lb+vn+X9Nw9djsNlD7X/fl/Lz+t3+cdx+Pe7vH5KcPJYBA8cNAH8e+O3PGu5XIe+jjpBJv1w2X/v3I7974VzF/r5BJBvyHz9Ck+1FeKedOo5AYekqxJIgEHyf1+8gv4KTq0+4dzJN8Dhkf+IS4qtnx8eP5kfux8tldi+loFQ+sjVo7HKxvbEdh5NGKfUSF0tfFt/QzFzRNjrXEwqxMWKzFCfsuwwNdSK4zjl5s7hN2Ne8gF/OlbX6NHx0QNdY1PN4x5WrqtzK3EXzP5ZRAwEP+bwNocXCwv0V/gVli9jbdbTice4HnCuKR9rNS308wlatr6v8gXhdBwv2iy4n8ZVFd+cLxnfcj9kYqxx/FHYWQ7ythWbWpRSTOgxWF9VTQw6eS7aPuu45aaKa+03qxVHxc9wnGib1Z6X8MwxIDGcwf+wD4IEv9mCwBjmK/uPLQZ0zeG5Wpkgasf4uslxuOyhFg9+yjlyXFW+XHgQvNfLXnRh3PvND3UVgKk56pPqIDBygci6cZIuwkXxsGTGAtVbhINO8JHZAdqD7mRsJZBAfyraO+IFPiS50Rayr9VHWF/klSfHESa14yfyk06peP+TOI44M9yPsJl0HI0V6V2Wntim0ZCvr+X9fi0cN+zV+OImuBgX8lPVogUXiNfvX3gK2Zu7ZJVZ36JfWX9pX5p/wMUcfqNP3TV6dDwdjCVfUBu7OAr1uTYXbWHpl1gQeRzruTUuTfjgYg4vlkF2/IV1plVzCv//ljcbL7CidYvWiviAIOeAZRdra/KlDrWFXUzOpMspXBV+cHwNzuKeg8c/cCAwjmNEzEY9fF4Vpg6bhGwhqFWjsc4Wc4O9tA+r56VQY91cJH6G4sTiKqxHhIeK+54cs2SO8D/zAY7Fm7cFBIbihmMWuJXrHO/e93olP3UOhvscyz22cByue6iNGzxeUMNi+H4vL7YALiGZiRwCD4tkOgsAKoHE9/IHgLEFtg5YpZiqCXqBRnvyk1G5eBgLDskbIBJ14maaL0xbD7Xvvz3wIkfiaytpWn1KzNG3PDmO0N2OnzJe5IbS4O0Io6OOo7HKrlGe55ZwZeU2tVH+iyklvuGdQl0fmvFqyBA6Kjc1maEd60fgWtS6iqxJzXP4Je6M2CWOiLPg1+j4vrptQ7Y2l2wpZ+c8XpNRzh1tmcOLZYUd27IGGfNqsR2HZqxorsQM+vm6RqPKVzmv7Oeb+/Wx1vxP26Zw1cTX5gw/AZE3ihLjyhxwvndf0mFTcTAlcCnfKf+pPb5KW7FRttXzUolSt+sxAXpwD7o+Vgkfuu2Pkz47st1khpxn4cf32jSrm38/1CbIjrzojxtlVTVfMZdALv7kmmG+mUC5S+KDXJpL5yDKT4xBlEtnNuuNGRiX+0l065XjcOFDbXQ2VUJyVCanTDoCjy9mCEU68GkSakh1FvOieKhgEcVD9UnV5J9ste6STiUv+RgmZSyEDOF/HpNkxsFJlhgvJLVvWvi1+tpSp/fy5JiuzPrYouAU+cmLjbqPY1+vXET6NoP7eHY0VtnqHLe5LW7A1IE0x7XCLkzUbXhfYCg4ERrhadmO79SibDw0vMxftdDaZ97P4RfxgrKeuWF+Ywd78Dg4PnDFF+IBhFbnZlu0VPRl47v2WtjK/RxeLKV2bGN8ql8NEtNx3k9lY6J5159agP4iB4X8eLPKF8XYMbxYJs7hqoWvzVnzYXuzvvXuS9ZtSls5BVSOh4rtxX5B7QFrn9xReorbC8VPd5wUWBRehYaMaexXHIscUxsBJecAACAASURBVH1SYi//Ez9qLw3yO4ZAd9ywOeHS5DzmMEvUUOvTg3XsZ9340CvtuTAv836VPkFS1gYRf0VM6/zWxpf3HIdLH2rFgRVIiODxhE2HL2Qq/0KyAIolJrQnEkpwUouYHw/YxtMLbgvMDWQx+YK8EEi1DVc/kVwn11fFIjmlN/4sSIW/G/DiOpobfdSZA19MPP2GJ8cRxnAuQR/nkw5MYFP+YU+wAmfsPsQXPR2bb/3RWGWPWNzmRlVg6dMZGZ9yM07FNuNrxqW5AJDijfHclIm1oKtOkRkTXufwy7jrqjmD44XMQVBW5zJblOiQtyFPc7ypIbvdzuHFMg/9zbUn50lPbNYwade8WAPFzsmyLa5lacNlj6nZYI/ev3UmV7ZvyFlZx+T+IswljHfalwB6LZtInUBZ1cGyRgepy5v/zijkKdtj2etkbZ/FtK/me80fJmOny+44UTYHvNL+IPsMPPAYCLwwzGbw3+3DTpi5mA8eJKi8C1iadYCdBayHRzwXVWxmfox1k88TdQPWmNcCb9SY9SILFVc89q59qI2/twbOiQNbAkSDxe9ZEU/j40LIklsgw29qBKn2XMTjgq9kl8WjtunhwcMNKa9BZi5Y6CfcC4ysAARRHAsx5kO8mJnBZ4UDdbf6aMyZrzw5jrAj4JEWpR9zsc5cR/7oHRAVi7S4i/ETnTgaq+wKz/PcKmPb+FhLUchRTsKrwDPKLuYxnc0HOHycum7IDDHxfsuNnJp+xO0cfjl3PTVncHyNwx7AVudyW6RA4CzV4JWDlpw5fjeHF8sOlR9xCD941DbVXBqOyeteu+btf6g9ihfuM10fwZXE1+Zs/ju15DG+WjZZm9Qwju8VKnUxjIsCKNeyxnpe5jHG1Wq+YyweET/dcVKzWbUP5VgFc0Ssf1/a7YNBhTdtQ2Az5hbnKobQIp5b/DraC3Mof/m1cGdlnhgLN2xfUPTZDRyHix9qc1GBJM1FMSbaH3wbcn46RZt6GkeFUBTBKvAarAqwinghW4sIZxD+UaqKTJin5BqiUlOhM879hW+MJucrm225iMhg+wwvNA9sS0GeLF7vU0NPu+XJcYQRBZdCKfKTDl2hj8VQUZis8ULgrjdHY5WNt/20Yhts1D8ZTy1H30eNBc7ZEqo5WSbva1zXZPL2gZrQ0LS5aw6/iDGVqfWaMzqe5cew52tzpS1cfM5jHJPrMB+1z/UcXizb0Bcd2zLPrHm6TeKWsdLj8D6sIRQg9pDYusZX3j9Qns7kxTL1GK44vjZnen8hMW7guLkGlTaVlOIYXZ/hXsdc/og62JofkCDmXJfFQq2t4XeckmM12lo6URM+1N4fJxWbFU/ZbtuMGfz3+2Db5K3jCGzGnO8zSG1o4+cp6OD5ZuQZxB0/1IrzWBKcP0FLTXwetdGrimVqbr1yHC5/qMV3X+D3yzjYCG74lmNRZBTogSTY1LK5LTAVamHx5h97gX4F+FjxoI8xq6Ic7SwKubKHbkudseDCBp7hgfYz34snIHviFW2gACdjw2urTww8/YYnxxHGlFxyrYibiIsQfxQ/ql/0cTlzro/GinuxGtsVLOQ8hR8oUPkddFoLQDLGkJH6GhemTC0L73lONyTu3jWHX/QplanVGj063q6xwLvIowpaGB+UXzgoz1W2MBkyj3Hj2aOPiei+nMOLpR791X4EjMw6jzIyXlGmykWJVakX+ntjvs0XP9SCnrm8lJ588PFAS1hsa+NrcGbsLzTGFo54kDQOmIZtPTalnKf5Ki6oGW3h+xboiX6Z35pez0uSWXu1/Oa+yFidFz8jOY028zd5ynVL2l16vzf/oGHEh9Iib9mCwGbMG/sPXntDrLFaL+KG1u7Ur/ND/k6tyH/I/TSPe65l8L76Ncfh+ofauBBpAMzEFh+nBQCw2HGS8JDc+pILBRwRx97x4Yv8aPEI0kMx5+8gyU2UsqC4NXWSnSJyaIOXdXHbCZ885QO8Cp+iThDe6iu8O7eBJ8cRlphcJsWRDxZ7YF/mi35vNPMr+pKcORdHY6W9oBoAdsAPj21RfMVELJqIE+LL59HGV+BoLgAoh3TTq5QlFMsbQyb6ozZzMa+FPVLStDvwaf9/iHn2Z63mjI5Hi3Vs6PWj5Vd9brRV5CPW7iKPJ/I2hxcLEfRXx3TAx9yQkAyNk1zfCqxoWnyt564aGG/rfOlDba6XOf5smXu1zuGqha/ug9oo8QffTIyLdbqcV8dF6+VzdR/aFL7g0CSC1+iskXgup1jy5XqQpZRXJJdqOK8VRaxOyuvhOIl2JJuN9U/nLfd8f/79UMvxPep6OG7IsBA/PEepQ+1rijrP+42/JiPikuRjfoq8hVpDssWc/rwli+GV43CDQy033a8dgbkI8OSYq+n+0h2r+3PY8sD5baFzXp/zch72o5qdq1HEvnP8E+LkCT7cLfocc2SM4+CH2rtFsds7FQGeHFMVPUC4Y/UAEhsuOL8NcE7scl5OBH9QtXM1CNiXDn9CnDzBh7uFn2OOjHEcvvhQy99Gzx/fBHDgp/XRjbmB73bNxbctnSdHe6T3OlZWDFw1fy1b223P4/cZ3DyPl1oc3p+v53B1Ry7uY/MT4uQJPtQq0VXbHXNkhuPwxYfaq4ap23UmAjw5zrTjDrodqzuwtN1G53c7djNnOi8z0d1XtnO1L55PlfaEOHmCD3eLL8ccGeM4hEMtNPiPY+Ax4DHgMeAx4DHgMeAx4DHgMeAx4DHgMXCXGKAHEv5OLSHhr46A+hY1B6SNABQ7//dcBJzfa3LrvFyTF8sq58pCxds0Ak+Ikyf4oHm5+r1jjgxxHPxQe/WodfsORYAnx6GKb6jMsbohaQMmO78DYB041Hk5EOwPVTlXHwL4JdOfECdP8OFu4eaYI2McBz/U3i2K3d6pCPDkmKroAcIdqweQ2HDB+W2Ac2KX83Ii+IOqnatBwL50+BPi5Ak+3C38HHNkjOPgh9q7RbHbOxUBnhxTFT1AuGP1ABIbLji/DXBO7HJeTgR/ULVzNQjYlw5/Qpw8wYe7hZ9jjoxxHPxQe7codnunIsCTY6qiBwh3rB5AYsMF57cBzoldzsuJ4A+qdq4GAfvS4U+Ikyf4cLfwuybm/5bf18/y/jsOTY7DZQ+1/35fy8/rd/nHcfn3u7x+SrDyWAQTHDQB/XvjtzxruVyHvo46QSb9cNl/79yO/e+Fcxn6+QSQb8gc+bu4pFPPCTgkXZXAAgyS//viFfRXcJJ9EiMN+Zn3wOGR/4hLiq2fH45N5sfsp3hmmFsxOMufo7FCP3riOntM+Ka0SF0tbFt/3zDzQzGt8zCpKC5aOpdlCXxm+WF6qBWv5VcUwkLwlIb9+M1+lzyQ3z+f1yVdV1Od64CnOne77TlnK+tRh1nWkP14saRDG/qs4zrE+xqmqiZxvikXMy4y1kM/n1AzL4TMz/LDxpJs0+Ywri+nGyo3dX3EVRXLHJMZyzLGTDx1nP/8LBqzpqMrNjFKCjHEkR6DdVTGAk5GP3G87XO37drvFMdZrrYr2ED+GuNb2BfOrzQMx4n2R+15Cetso8R3RmwM+7CCiXevI9DG/JyaR+uHmU/Mper+ScX2mhwQyXG47KEWD35qM0cFRnkJCYrFDQvU62UciONC+H7zQx1D2LqM+qQ6CJRcILJuFKALdFE8LJmRxN4CHXSCj8wO0B50J2P5gsCcA/2qQO+CF/iQ5EZbkn1/y5v1FZgw886+5MlxhC3t+InxnE40cQFOHJcWHont0Vihtz1xTbhArr6W9/slNsBcDs85E7uQm6oOLbhYvH7/whNJLoM026+aTzjH8s255rccb8ud07ofv9GP7ro8Op4OxpInqIdd3ISaXJs7aovBWaz5XbZ0ULkfLzVlhg+0vrA6XsyO61guT2Xd5xisrpWFgtwg8wbzKKxjac3BsXJNjPPNnM6y97zazFUTS4MfI8Y0RvjQTB1+ox7OS9X/Dpsy91pKqxZjPS3mBp9or4U+F2O0Guv+Bvk9FCeRa4kFYEhYxXxI+wa9H9PrDtXPD2JDHSwsGrxtfwS64+bAmrd+qG3tn6gvPsU3ctdCkeNw3UOt8bQYivTr/V5eLHmXsMGkDQkVPgCG2iIEgdT38gcgtRbmhBiCKwtH6kwXwSZWPNCeXBzkwmIsRiQpkJeLEjVbr6gTN9T8abVcwAkLJUH4T2P2wEvpaSRRsLOLAyXzgFueHAeoC4cauaHgcVfGSxO7BuYzfDkaK/SBYlZ5JOI69lEb5b6YUmIbNn06LpuYGjKEDn1jjCcbaWjQh/UjcC1qHQ065nU/fomz3jozOp7nzCg2a3NHbTE4BpOA55243I+XGla2D83aA6KauVJutNtrZc02bJfrKsleWxOjzBU725rHejdz1bTR5kfHmMSoMgfc6Y3NDpuq+yWqc0FGuc+RtiLGsg3tr8qv0nKP/O6PkzV/Mnb1fQXmS9477hAbfqitRuDMju64qeYucg9y8IfnppFzlMfkVJBLc+ncQ/MwVlGuOo+F+UbcFbWIZJFC+5XjcOFDrX7nEQACYFRSCxAyAFAQeVKHBRkqoibFxqi70Gs9emEXhbkaWGAE+VczKLcnnUpe8jEMzVjkmXEBSxv3PCbJjIOTrF68hJLWQon8cW701DPveXIcYYfGXcYP8pOx0vfSQhFrsmvK3dFYoRM5ZoVTRpxmbC3cdBve54U+Slc5JnQaD95kv77r04mHh5f5qxZa4sz7/fhFv7H89tTlwfGBI74YD6CyOnfQlmpMqHVrwEQ9dD9etGS613GK7RiX6leCaEp4xXk/+oFyHJPzMTao3BqpX3pskq1kpnWM26nG8K69r7dz1cLS5qf5kKDpc+/eY92m2qEz8VPLD7GPAxZ0vqDumvwqb8HvVm3IcrONKC3Fjlhb+rCv2lPp6I6TAidboPZF7ivUoXaX2JAfAbWt8ta9EeiOG5PjmM8sqULMp4evOTeS3SIX9F6ePpkT5bJ1AOKx2FsZtaBcY2r5liwKFxyHSx9qxRNEICUexnjCpsITXGMkiORnRVuQIoERd2I+fXyDnkjkIsltgfmBvHRotIpHniv0FUVc9vI7rpPrq2IhJ7N3qnfEi+swghW5jPixJBLTLnDDk+MIcziXoI/zSR/jAJvyj/XEK8xc3ur3ambbfzRW6A+LWe6gzmtVxGvFMuMqD1tJtJKT2sNFX8HNc3D8qs5YC/o+UZKl7321H7+MM1FXa3V5cLyQOYjC6txBW6zaF0zSm/RBO9nw/XhhQsVlGacpZtnaJqawm1DDQs2Stapd69RayeRZl0EHW0e47NAX7ZRrYpTUzGlL2/a2T7kKvhRYIj/5YSfZJ2NMYBR8/nzvAZpaNjFKyKjiHfyyFgepcv3S9TzmVYrDgEnNn6xa7CFZc768Rn53x4mqVwHLtD/IeABHPD4CZyx3Z8RGtw8ZfL/6EIFuzK2aZ9YEtibHnBM5zfNSxWJ2heUUNfJ51GaslVZt0LGcprMLjsO1D7XsoCcWpwSQBo/fswKfxoeKzA51DBV9WSNMtYfikIoK/7ITFFgWD7nQZ7U8mHKrdSVJRj+hgAmMrIAEYRwLMeZDvJihwWdWQFlXuMRCnAuw7j/znifHEXa04wfjmS9OuEiXMWQVg9n2H40V+sNznHko4jo+hOIxWBR1ha3K6yS5mJd6ql+ow0fI6z6dWDPecpMnBR1ytx+/nLOeOjM4vsZdD0qrcwdtMRZqNIP53WNXY8x+vNSUqDiNw3iNwRpOD9vsWo5jcq1q17r9DrX0Ll+5JiZHlhd7F6GGwh7te3ElsbT5Ib9pE4p1JH5tZbOOQWxmnnr9tmwi3VxGGNesxTg6jIsCwHax7om9Cpe+cn2T/O6Ok5o/qn0o13aKjW4fVijz7n4EujG3OFYxg1r5esevo00wh3KZXwuTV+alsWUdK2pFdT1NQsIFx+Hih1pc6KC4QZLmghmL8B98GzJfUCWYVCRFgawSIUHSC0TqVYEgZKdB+SIUl2R4Y2Oj5GYJ5VWhM879hW+MTrrKgAFJMmj2xAvtDP5S0JemY4uVYLWxB7fz5DhCdcGlUGpxaMWQ1SYETbk5Git0wsLEjmuwT//kjZKWo+8jZM1Yrcypoq3H63v1e4kDNaGq8oOO/fhFP6k0rdfl0fGfxP/a3FFbDE6Bgx253I+XWnDYPsi1ozaXt0vs2rVuz0NtxluuidG2Zk5z+z+/3o8rjqXNj46xsBZT0rE3CAqvNsdmaVNSl5TgGF2H4T7X4jg48QI5qQ/ZXFcS3nFxj/zuj5OKP4rDsVyryAR0ldwW4P0+tKR43wgC3Zin3GLSQxs/P0Efzz0j5yAeaH9fjY2VeckEHCfqQCHTkJXm5wuOw+UPtSGpXvD7ZRz8CAZ8m6aoogqAQBpsbNlcTkrGxLwKi7j+SKcCfax4xM23LtjRTkGuaRE2ljrRbyCW44H2M9+LhW1PvKINFPDcfvCP8VTaxQefe82T4whLSi65VsRUxEWIP7ngn4Xn0VgRMqW/alE2MIK5cl4NW54v6pBJBqRXQ0bqsy6M8aKe6H685zltSZ3Vth+/6EcqAat1eXQ8cVvmhcidClAYF7W5o7bgeKF3sL5XzEzN+/GSRKoLwwfKH6u+x9mAo/Bb5WG71u18qI1P+AGrIn8CH5JvBcBut1u5amNp8GPEGODNfbfiHH/X0jhgGgj02JRynOarGKBmtEXVWnpXxvyWdJWHJKjj1fI7+6LkdtYmEecG9h1miSEjcYL+8Dd5ysPnaK5ZGI3EBjgz4oNw3m82I9CNuVnzMPaLGsFqvKghlBupH/ddORfk79SKWgB1IM0jd406ps8oYn9E88pXjsP1D7XRSQ2ImdjFR1RK0vCQ3PqyCwUYEcne9ckk4kLM79Vs/P0TwS4VIP4u0tgCaxYsslPpIpyAdPiRtqqCThsBLsMMRu2l5VP0L8iKPCQMx/w1tE1r4skxTQkTbHKZ+jVuiCmnhz5RIHlNAqZeHI0Vd6YV16IQ80miYCK2Ejd1OIa55mKA4yin6FXKEorjTVsn+qQ2ejGvJeeW7P3b9uMX/c4+xLjODfiOQFr0Rsej7zom9JrRQqg+d9SW6FuqdZCz+9a7/XipIYI+6HgOGCWOrLnad+l3u9btfail3JUHu2C1mdOWP5+3beeqhaXus2PMrINhkxjX5hCjkqO2x1ovn6v70KbXy8A/KDFqLT040W8khPGWfL2fqVt/9fwejhPa77E6w/N1U659FBt+qK1H37ye7rip1jy1lynqO+83/nqMiEOqB5irfHmX5y4uM9eiFL+mzDaGHIcbHGrbznivI7AnAjw59pT7RFmO1RNZzT45vxmLK105L1dio22Lc9XGx3sRgSfEyRN8uFs8OuZl/vih9m5R7PZORcCLRD+8jlU/Vncc6fxekzXn5Zq8WFY5VxYq3qYReEKcPMEHzcvV7x1zZIjj8MWHWvstcAAHftJb4YdHtdt1OORMIU8O1uyXBgKOlQblqrmr7ey7fwa/z+IEmHsGL60YfA5n9+Lqjrjf0eYy9u8VJ6X931GXbL/PbH1C3OyBH8fhiw+1e0DpMp6GAE+Op/m2tz+O1d6IXkue83stPsga54WQuP6rc3V9jq5g4RPi5Ak+XCEWRmxwzBEtjkM41EKD/zgGHgMeAx4DHgMeAx4DHgMeAx4DHgMeAx4Dd4kBehjg79QSEv7qCHzFR/v2oxmKnf97LgLO7zW5dV6uyYtllXNloeJtGoEnxMkTfNC8XP3eMUeGOA5+qL161Lp9hyLAk+NQxTdU5ljdkLQBk53fAbAOHOq8HAj2h6qcqw8B/JLpT4iTJ/hwt3BzzJExjoMfau8WxW7vVAR4ckxV9ADhjtUDSGy44Pw2wDmxy3k5EfxB1c7VIGBfOvwJcfIEH+4Wfo45MsZx8EPt3aLY7Z2KAE+OqYoeINyxegCJDRec3wY4J3Y5LyeCP6jauRoE7EuHPyFOnuDD3cLPMUfGOA5+qL1bFLu9UxHgyTFV0QOEO1YPILHhgvPbAOfELuflRPAHVTtXg4B96fAnxMkTfLhb+F0T83/L7+tnef8dhybH4bKH2n+/r+Xn9bv847j8+11ePyVYeSyCCQ6agP698VuetVyuQ19HnSCTfrjsv3dux/73wrkM/XwCyDdkjvxdXNKp5wQckq5KYAEGyf998Qr6KzgRrDXbqf/sV+DwyH+EB8XWzw+Pn8yP3b8sC8X0CX9f+WisarzoHGvGocIrpUtNeGjv4AHG6bxWeWbpAttFHgf7XsuvKHxN46Z1fs5vxs3yPcWuwgn09o2Prldxb0GTbcu5VdEb0gzrvLSr9TcyYx4r2+T8ln31vk94adWbvI4y3dF+bXcem3HUY4IUyrfEMZNdXGZZmZORemjNV/lV5RKN2TsfP+GqgIc3EK6x7mfsbQxyf/bzRzeqWAXbRW3i+q3rFZu0Oi6C4lKPwVrOY4BmoZ843vZ53XZ7nrZB1/Win0z64HU4TgyuuF2Ep51HsG34Wfbmf9iHD/DyqYhAG/OO9WkKkDw36wpon2blaavPkshxuOyhFguJ2txR0eTZGxcpBAbBfL2MA3Ec937zQ50FD2uL+qQ6CJRcZPUiqItwUTwsmbFAWeQya9Jl0Ak+MjugM+hOxlYCC/SnDcaOeIEPSW60RdkXNrGv9/J+DS6WyfP5Fzw55mvDxYXzLuMn8pNOOHifFyOIRZYjIY7Y/WQHjsaq5o7IsVYcxjxLKbL8LW8WszX5y7LGQyguyw/nIuYjr0tZb9Yk6kdhXx53xtXn/I7Wl9Hxa7i3UNOckiyrNmGevd+vciNIKszcw01Fyu9Q+z/Pz094EfFGawbVacuHuF7lmoMOZzkbOCPMilfNCd5n3bpfb86x38qzrKrNZfYrP6Rqy8uSratPuLLkhbaiTvA6VmJED49SHMa9UMY1x77wNerh8z6xScgWglqcYA4Vc0Nc0j6sh3ehMN70YDUnh7U1Q3ESc1JiAnYSHmv7Cp03O/DvfzlCU3rIfXfcWLV9moVr+Ug59Rfe0ZX1pdVXN5jjcN1DbbGRjIn6fi8vlrwLbEzTZpLA5G0RiEDqe/mDgtC1kUVwZeEoQRWLYOiW86A/Lx5GESWRokhTo/2KOjEgsuzth9r33x54KVuLJCJuGhgoEWfc8uQ4Qn87fkqswqGX4pdiOhlq8Jj69r84GquaBzLH1Cgeh/xaDWvfrvAQalD9XT46FFu1JPMv60bbnmN6P+eXct6IS4pdUY9Hx3+CWclpQNWqw2Qj2WzBb8VWIYv8swT0t33CS4430scxLDEJ4w9bc0v9ot4ZewJ8UEqf6OrAd4XLjA/HhbAaf/2Eq6o2K9bS4BLD0KViEfzMe4fKHJio5iU1+qLDJqv+JdtgTavkl7QVFcu2Dt61veG+4jf3mV+zOVVfTD3rjf1x0heXOY5Jt5xn4ScPF3Fe4T/JK1/7fSjness2BLoxr+Yn5gDIwZ/8YMTct0A80P4TTA5yaS7tgSgfMeZQrvUwt5J/AYpWX4kVx+HCh1p9SAOAABiZnLLoEpiVJ1VQiTQpJT7Y0pnMRfFQwSOKh+qTqsk/2WrdJZ1K3tZ3ahEW+Q5FktWLlzZU4ZfkWRsTPffEe54cR5iRuCRlglOd2Poe4xzfsS/7SOSs16OxqvkhckwPEnGIGOl3VPWU8l5jq+4DZ3wx0BJwvLURQv6tJ5ZaxvH3n/Ob/dZxnuqBqC+D41dxb2GmOExD1foS39XCDV9tDi3ucuEOPvINwE617xNeNA/6E1GJl4AHrUkKEyOn9llDNL599/pwZuUZ0Zv917JxxN75+AlXZHP5irbbdcz2Cx/+06YzrhsElFhztDaKAd2u79dtInV65honco8Hs1U8xryqydf68v06VrNyONuAV91xInJPS8n3GdPYpjiG/pQ3qi9Lgate/pdwKJJz/W42At1xY3Icc5YlToj39KYh9rNudX7CPMwPQ+gTI2UtEPGWQKnlHwxo9SUB6YLjcOlDrShmQErcIPCElYswI0EkP0tMsYlKmJQXYj59nJaeSOQNLLcFhATy2EZGkBkCK8+VSnWhlr38juvk+qpYyMnsScuOeHEdOiCF32PBKsQecMOT4wB1IV5yUdDxg1iBTflHbpzBxhADMIbF3RG2H41VzSeRY2KQHWsJr/QJDzHJuFnhQdWKUgDOF4tDHDRuSyl9Vsvn/DK/BUa1ejw4XsgcRQF18dxDCaoOq81AucmNetU4aLXGAt+lzjHbP+FF6w/xx+sGxxR8OnLNjetGrnVQ93i9Q854v8Sy7Be/oqM4qvGD8rneMX746E+44nKsa7t29MV1mEsFKeDy+b4EbGzZROqELx2cFIdYiFEes2bc1Pzh2texqsWIjDsuc9t1d5zw/KQak/YH2WfggdsYeGGYzeC/24dtEPksA4FuzFWeBVFm3rO1OeaVyFueeyoWs3mYV9V5aWAt/2BAqy8JSBcch2sfatkTuVBcCKUErAaP37PNSRofqq4qiAkXeVEjTLXnIh4PHqxwgMCyeNQWSx5M0hR9BzJzwUI/4V5gZAUkGsT83xEvZmTwOeHAdcAgvM/2s4kXuOTJcYQ57fgxsArxRzHEYjwtcNQ33/qjsap5JHKMDZJxyDriZcgXsWkux2DLCg+qJpRSdA7kEWBjyt30hDT3n3n1Ob/cbxargBfVB34talbH+FXcW+gZnIbhTC/lFNkK/dbmoNJebohrOlt2ln2f8NKuN6Ar+y/Wk8QT5zQ4zr7pMs8Vn4hKc0tfZIuBT+CYaprqL/jXtinp+ssnDS73zsdPuJLW1+9kHVMYpWmMm0n7kqSK8ibV1jovRY4YnIBcHovEUdZXl5/HWFfrWBX2Tdq/dMdJEfPRL9W+luehn/bTFcxRMsQN5Z+FYW7r9iFP8asPEejG3OJYxQyawnOJX0dDYQ6th/xa+LEyL42t5R8MaPUlAemCVSOCCwAAIABJREFU43DxQy0eCmHTB0lIOZg+EvEH34acn04REDSOCqEoglUiEj7xQi4CqVcFgpCdBuULUTzYhiGPiFdKbtHPGgqdce4vLNrkfCUoZJGWwfcZXmhg8JeCPjQhjhB0xY8Yxxw88ZInxxFmFFwKpVZi57iUXMJEa7wQuOvN0VjVjJc5hqPKOLRmy/i3RmCbhWvmgR8EbBl1PZl/HJPz15Z0ZOvn/Eq/1+vL6HjOwSgyqKt4uCbqcOTEqF3FvK5Ng/Rv1GIa/wkvOd5IWvlKY+A1LSf0McSpa67FCedY99v32WbuG44F7PQP55J8p1r6aT5+whW3vn2NvqHfGpM4U8S1eti+075E2ljaVPLSx0mQm/IL4kEfsrguaUX7rgMrhRvFRelLW9Nab3+c8HxgUpWdOY7ZGHYJ/Tm2KzJhvJLLRBSX/T4UU71hIwLdmKf8YYpCGz8/QR/PLyOvIB5o316NjZV5yYRK/oX+Vl8SkC44Dpc/1OIT35d5eA3fciyqiwIzkAaLGCOOk5IgsS/CJkz/eQlF5FjxoI8xq6Ic7eSLq20RtpY60W8gNhcq0sV8LxavPfGKNlDAVx3Acb2+VsVM6uDJMUmFEFtyybsNrEL8xfhRsUi/tC9Sgovb+fporGrmywW6HoeQzyLuOJY14aF9hQd6J0FttrI+nG/xIvnHzYWwsWnX3M7P+VV+r9bj0fFU42Q9zbi38DE41XW4Eh+4LvC6GgJgeSn+i4cdOl9b5jX6PuFFxltFCdj5OmPNNTgRHNT6iQsVP9w9ISd3aC4lPp/n4ydcZSvlVRHfwjcDIx3X+p3aSv2i9aSnHvXYVNQ/YXf2UXOCPdEv8y9bNHjPYo2rHqzUgS/YTPFmiNzYNBIniA9/4FQePmUcl0ZBf7lXlHV0hH/QMOJDaZG3bEGgG/NQAxS/8U2QIg7YHl7ECa3fqV/XR/k7tSLfIW/SPPLUyD/qGnyDhuNw/UNtPIhpQMzEjkBkMBE0Tpr4WFQCsHFBRLInvLzIjxaPoCkURv7EWAdbw564IHEbwmiyMzsfm+FP/2Rdcp5eDD7Aq/Ap6lT20JNOaUfb3yN7eXIcobcdP5EPxh/YxyENRYf1H4nr0VjV+BCFtxmHGs/evNPzMLY5D2Ab1aSUb6mIW/NRd8F/zGMtu+b7zPbP+UW/sy8Rh9yA7wQonHL32nj0vo57C506JzRLxBU1hle10YW2wJsRT1SXQ44a/UJu380nvBTxZqpE/45fcy1OeL3DflnjOBf2fBjfy2WBz4f5+AlXJjWhUfvJ40r3Qa3i/SjVxKOoneW8PW16veTBKsvmnOZWyvNcH6jP8pn/ihaN06/WPMPnCTmsLRmOE2ETrkc8L4o4Vgr3598PtQriQ2674ybEixHbdL6iPWRai8n8uBaEfuOvx4g4JPmYVyJPobYk2VxmPCekv4nd6iObyleOww0OtaUD3uIIzEKAJ8csHU+R61g9hUnbD+fXxuXsVuflbAb69TtX/Vh988gnxMkTfLhbDDrmyBjHwQ+1d4tit3cqAjw5pip6gHDH6gEkNlxwfhvgnNjlvJwI/qBq52oQsC8d/oQ4eYIPdws/xxwZ4zh88aHWfpsbwIEf/lGOYwPd7ToWb6mNJ4fs8TuNwHOwumrOacSPvb83v8/l9L68PJeTWmbelyvt0R25u4/NT4iTJ/igo/7q9445MsRx+OJD7dXD1e07AwGeHGfov5NOx+pObI3b6vyOY3bEDOflCJT30eFc7YPj06U8IU6e4MPd4swxR8Y4DuFQCw3+4xh4DHgMeAx4DHgMeAx4DHgMeAx4DHgMeAzcJQbogYS/U0tI+Ksj4F9LPxQDUOz833MRcH6vya3zck1eLKucKwsVb9MIPCFOnuCD5uXq9445MsRx8EPt1aPW7TsUAZ4chyq+oTLH6oakDZjs/A6AdeBQ5+VAsD9U5Vx9COCXTH9CnDzBh7uFm2OOjHEc/FB7tyh2e6ciwJNjqqIHCHesHkBiwwXntwHOiV3Oy4ngD6p2rgYB+9LhT4iTJ/hwt/BzzJExjoMfau8WxW7vVAR4ckxV9ADhjtUDSGy44Pw2wDmxy3k5EfxB1c7VIGBfOvwJcfIEH+4Wfo45MsZx8EPt3aLY7Z2KAE+OqYoeINyxegCJDRec3wY4J3Y5LyeCP6jauRoE7EuHPyFOnuDD3cLvmpj/W35fP8v77zg0OQ6XPdT++30tP6/f5R/H5d/v8vopwcpjEUxw0AT0743f8qzlch36OuoEmfTDZf+9czv2vxfOZejnE0C+IXPk7+KSTj0n4JB0VQILMEj+74tX0G/ilPUQhj/JTg34ufdg35H/iMuEyw+PHwM30b8sC8V0wP21/IqEmevJ0Vhxb3Re1WNPY1SpDVx4uK7kz9LBCczXOa5yzgp/8EnkdOD2WE45DJ/zm7Gy/E2xq7ABvX3jo7VVrLk3+jrblnOvojeEENZ5aVfr72DmPKbYFNxqcwbuP+dlQFmMd2178CnxVpEnapPEtl33oKz9LENrRCsGGnZULN+teRpXVZ/64trEV2P4o+rRGiorNsnckcIoHvQYzJ2cS3kW+onjbZ91zOa5dGXP0zbA6L1zmCyg1+E4MbjidhOeubZJDGfwP+wDOe+vmxFoY963Pm1WXp3Ic7M6qJpTlGsUuzyua9I4Dpc91OKmUG3oqGgqLyFBsYAhmK+XcSCOG5P3mx/qahDF9qhPqoNAyQUi68Y5uggXxcOSGQvUehFGHUEn+MjsgJ6gOxlbCSzQnzYjO+IFPiS5tAgQThVbIsxXeuHJcYRd7fiJ/KSTKt6nzV6IJZYj4Z4wn2/90Vhxj0RetWIv5lZKi+VvebM45TLldS1mNSfGBlzzEnOT16hsT9YqYqGwO4876upzfiNW3fV4dDw9sGA5ILBuIVXySIfssg5DzX8t7/erftAKfEk7Foi1cDD4C0+uS7kt++p9n/NSl132GDjRWtPKoyJ+Zd6JWCd5bD0T+V0aJVta+bZix3/2rgTJcRWG9rlyoJynT9OXmcN4SgiBJASG2HiLflV+bBYt70kCnHRGCtr/bgpXTZ8MvgI+tEdCHwt84xhRl6KerrjtsEnIFlC38gtzqJgb7KW1Dn0uxggd1k0PVnNyWFszFCcWV6HWEB64JnHejtiXDvmgAfD7jxDoxjzkp16fPlLZMWktHxs5BXaydUXHbU05x+G6h1rjCXFYCN/v5cUWP9w4EFkEJhbJdBYAJAKp7+UPCgIDrQYSbUjWCqVenPU8uXgYRZQMEEWaGu131IkbpXTAoY1BMpiwUDKE/zRmD7yUHpFEpEeNueAtT44jzGvHTxkvIclj/PJrtNXgcaITR2PFXZF5xXso12NNEHGoxjVvazFbchIOQ6mmYMFOaVjoqMnlG5E1GYXQKQ3b+SVfjbg06/Ho+C04GTwCilYdpppJNltoN+OsosuS09G2nZcOJWmIbXtZe9IEvGjiwWOd5kkum/lNU8K7nCe64GbFjmL8zg1TuGr6ZPOl41riW5kDWFj5YGHUYVO1Jq7kl7QVlcs2tL8q37I3tFX8Nn2ujK3KHuvoj5OVeI9qAR9+qD1iX9rvwxg2PrqOQDfm1fzEuAY5+MoPRpZ4BhN5RblKJgW5NJe+jUP5iLGKcumMRhPhvSOnqnZzOUuwnVoufKjVnzwCQACMSmpRgAjMctEMizCwo0khJPS7kKs7831RPBQJoviqviwFrsg/2WrdJZ1KXvIxTMpYCBnC/zwmyYyDkywxXkhq3wj8UE9OHCvA2+KO6gUbj/xP4y43YYhbXpzUvcAYrFa5MdmRo7Hi7oi84h0BBvgzAyrOFHujMYfzREEPehQHsTCnh0shJ0m3Ngzua3KpZu37qZ5lQW/bdn6zrzrO7foyOH4V65anmkcaW+ZQtr02Z+3w1JhHagfet/MyoKyy8Qj8pQc5ljz0+Ses2WV/xjT2qbWsmd9c3GoMtO3gomZcz+Gq5VMt1mRcC3wV9hKH3n3Juk1lLUVNORYqtq+uczivJl/6w+8q+sx1tDaWy/v8ujtOCixsnRnT2K843p9/ebCwrfLWvRHojhvFP9qBMZ32LmEZ498ANfIK4i/VfawpeX9K38aJclntF/GWQOjIqc545zhc+lArnhICKRFMnrBpcxSAYiQIMFhhFqQkdMsLMZ++TktPJPKmldsCQgJ5ifR4T9U2BFaeK5XKRUf2yTuuk+urYsGnC/93xIvrqGyEaEiwMx06qPUa7zw5jrCIcwn6OJ90AAKb8ksezsL41P9aXgf+gf7RWHE+gt+UV7yjEnsZJ4mfmCpuWG4Y7ZkP9URc1Q0xNdzU5EbuT/jb6NJGbNnOL/NV4FKrx4PjhcyaF7V21JUXZBqn6rDaDFQPc2ocScP3mi45qvduOy+9mmAc2s7jPV2zda4msZZ30M6xD+OYvHBv5rfS1BkDNTuUtN1vZ3Jl+1SLNRnXAt+d9iUAXssmk06VN3Z+SdvLDyasGK3tszjFfVjhjNpYLu/z6+44UfGOeynaH2SfgYfu/NqJ/24fPofJZyoEujFXeRbEmLyztTnWfpG3EH9Up1UsZtMwV6rz0sC1nFrrT4Lu80kt/+QpJC+hlIDV4PF7VgjT+FB1MykZk/KqRphqz0U8FhYiPEosF4/appoHU2kOb5EFC/2EAiYwsgIShHAsxJiNeDEDg88KB9YNRoS/NSM6Zd+5d91FYicz2/FjJHWIv1YM0VdAdjKwIeZorLgpIq9Yx1rs4Saghh8TJHKjbE8bBlUPxIM4Pi1d8xqVGsMF2J7y+AIPfbbzy31lOc9rEL8WmHeM19hLOFfujNxCFkRtCvHCa5m1OYB5tfYgs6ZrxcRK93ZeKoLNZtt2jgvmVLmx5uJ03rXrXjwc9SwQgzGg7eA2zrg+givpk82XXnNF/WzGLuRhT72U6Fk2WXSGcR35FcZFAVQns0b02ZKfx1hXfVjhzNpYS+54W3ec1OJdtQ/l1078d/swDo/PqCDQjbnFsYoZVMFziV9HA2AO5Su/FvatzEtj2zkVYph0pTn2Bcfh2p/Uxid/sNEDB3PRioX2D34NOT+doqfKNI4KoSiCVSI0WGxTxbtUIAjZfFy8DsSQQa3DnJJriEpNhc449xd+MTrpsgNGLiIy+LbhheYFf9cC0Uqw5N25Fzw5jrCk4FIotTisxCXMG4ghoebDm6Ox4mbKvMKertgTBycuUV/L3Mi9mhN93+AnCKnJxY08HpZxTM7lrP3Iq+38Sl/X68vo+DWsW2ihrvRwgoaKHIo8pG9C0MFNfgoSpjZrWkUX6Rx8387LiELbdrmO9MhDObQ8tevewKG2taaaZkk7zCE7Nh7DFffJ5kuvDbJ+NvJI5MMIMKVNxH2WgmMAI/0q8jLlF9iqD9lcV5a+ftWHFcqpjF1X0jWiP04qXCmexvKrIhMsV3JbzvT70JLifSMIdGOe8odJD238/AR9PL+MvIJ4oP19NTZW5iUT6jnVt5dLgu70SW1MqtfLPLyGXzkWlVKBGUiDgsmI46RkTMyrsHDrf15CETlWPOhrzKooRzuLQm5axTe/NAD9DgsDwwPtZ74XG4A98Yo2UMCTaYFC6e9owDJR0y+7i8ROlrTjBzEVcRHiT+KJpuDCJMbuZGNNzNFYcTtCDKVYr8ce5IDApIoflw7XKjdSd42TnGeYd5KjbEdNrs7r4/lMLsaL7fwqX1fr8eh4u55mrLVH/N7gUdfhSqwgv5nvIDXMlZxnbYau3Dl8tZ2XEZW27QEDo9aT5IIDhWW77o0catsxsGYH2TvrfQZXbZ8MvnRchzVZ/pNJgU99WDTm1XDqsSmVaxKiYoKa0RaVX7Ee2/+yBfpcyCeB1fc+rHC6MbYqd7xjJE4QH/4hT9wns33uaH5t5R88HvFhHCGfYSHQjbm5PmFM84fnIQ5YXRf7rFgP0qE2nify/kr+Ta3IR8h1Jhd9sXIq2lSMtbzPbRyHy39SS1+b0YCYiV1sREvSwpOnEcCISPY0MZOoN6IZZLoSQZEb1ZPJ2maIJsh3s2CRnSKSaMHPT0K57eXGfQNeYYHKeiDIwgvs0X0j+EvXp9/x5JiuLG4uJCdca+SDsIzviWLiPLbX5XCZ+10fjRW3XOSVji/CKwClMezNNT0P4hnmYrvEunzSTfUp5UGK+Zpco5ZEfhPfHIADrrfzi75m+6PvuQFrg8Imd6+NRxDqWLdAqvNAs0SMUWN4L/m2v36M41IM7JSn23kRzqzcIE4y3uO6knizRGh8Zd6ZaxgTU8eeDWKX9Rho28FETLmcw1XLJ91HdUu6Z+Jb1FHJmZSg77RePlf3oU3w+w98Q50lGvmVfsRGHebCJEu+8W2KrCBeWfO43TBsTg5rU4bjRK39MJ/n6Ef5tYl/P9RqTo+4746bEC86to34Lmo6j3/jX48RcUjyMa/yOh4fuiTZXGY8J1D8FjEY+4WwElmOww0OtaUD3uIIzEKAJ8csHU+R61g9hUnbD+fXxuXsVuflbAb69TtX/Vh988gnxMkTfLhbDDrmyBjHwQ+1d4tit3cqAjw5pip6gHDH6gEkNlxwfhvgnNjlvJwI/qBq52oQsC8d/oQ4eYIPdws/xxwZ4zh88aHW/ggcwIEX/yrHsYHudh2Lt9TGk0P2+J1G4N5YXTXPNMrn3Tu/52Hf0nxvXlqeWX33ztPncHVHHu5j8xPi5Ak+WBXoym2OObLDcfjiQ+2VQ9VtOwsBnhxn2XAXvY7VXZj6zE7n9zPcZs9yXmYjvJ9852o/LJ8s6Qlx8gQf7hZjjjkyxnEIh1po8Jdj4DHgMeAx4DHgMeAx4DHgMeAx4DHgMeAxcJcYoAcS/kktIeHvjoD/LP1QDECx8/+ei4Dze01unZdr8mJZ5VxZqHibRuAJcfIEHzQvV793zJEhjoMfaq8etW7foQjw5DhU8Q2VOVY3JG3AZOd3AKwDhzovB4K9UZVztRHAL5n+hDh5gg93CzfHHBnjOPih9m5R7PZORYAnx1RFDxDuWD2AxIYLzm8DnBO7nJcTwR9U7VwNAvalw58QJ0/w4W7h55gjYxwHP9TeLYrd3qkI8OSYqugBwh2rB5DYcMH5bYBzYpfzciL4g6qdq0HAvnT4E+LkCT7cLfwcc2SM4+CH2rtFsds7FQGeHFMVPUC4Y/UAEhsuOL8NcE7scl5OBH9QtXM1CNiXDn9CnDzBh7uFn2OOjHEcLnuo/ff7Wn5ev8s/HmX/fpfXz8/y/uONy5LH/lt+X/hrZXpMmPH3xl951nKlOHkXdQJo9OKy/965HfvfCzcv9PMJIN2QOfLv4pJOPSfgkHQhFumWvAIMkv/74hX0V3BCt18Jw5+f1/IryCUDz33nyTHDEuKOYunnh8dL5sPuR4sIZ82/jquC+50dmo3VnubqPCQMCWeBFdWJGMuir2qUxV1Zq7QdVXEX6NjOb8bExJBw3lqPdD1N8logZtsoBuDdtHNZFspb2d/6dzAxr5tx1jKv0bedl4Zwswux0vUm+LaGNXFs5BJhmvHntTBiLgE3rVuWPi7PyL1pXFVx3YCFzqOfn0VzXiEAm1dsalFJsaDHYP7IuEBl6CeOt31et92eZ9uQ93m6v4lJZ+dwnBhccbsIz6HcMmSuY5gdHPYhT/WrDxFwzBE4jsNlD7W4QVcHHyqaPHvjhgOTD4vU62UciOO495sf6lYiKeqT6mAjk4ssFA+e+LoIFwupJTMWEy6nZVnQCT4yO2B80J2M5UWfSQP9aSOyI17gQ5IbbWH2dW2AmJlnXfLkmGFDO14iH+m0j/c/iVPcRL9+/8LDGxkv1BefFIQ4U/mzs0OzsdrTXJGHrViNuZggX/6WN4vruk2au1BwwkMczpOwoy7sEj3b+R2tL6PjCWMZ51BrOOY2mH184VzIrdfyfr+WnItKaogbaUdYw1js6LVBSei+3c5Lt6o40MCK1hvmXyF1JZfatXD8UCs4j+ssbzsj96Zw1cTV4KoHizgm17388J1jWHBMDR02Cdk0L7y38gvXtWJusJf2YehzMUbosG46sAK/WIzvlcPamqE4sbiCdYrtt4Zzy5IZOe3i3//lCE3pIfdDcXOIReco4Thc91Abn77yhAqJ+n4vL5a8S0hm2kxQccMimc4GgHNI0PfyB8nLilSdgkoxVRN08UB78hN/uZAaRZTkiSJNjfY76sSDDd9khYKbKjthoWQI/2nMHngpPQFv4sWQr4Zf5ZYnxwyb2vFSxkfgtIjXctxSxA9xO8MLlDkbqz0tl3moJPNY5ddqWPvW4AQmKF6adrQVHN67nV+KQSP/zXo8Or6vRtvA9fEV5lLNJJstgT1x0zPGkq3atvOiBK7e2ljZtYkJW/G3XQs3HmrBjAvk3hSumrjaXLWxqMwxMGTsyssOm9LWRM5EnmCNCzLooJoHWTVTtqH9VflZlLqq+K3iRkxq+ilGDt30x0lfzRvLrQoO4EELC+Vhvw9qot9+jIBjjtBxHC58qNWfPNLGSCW1SLpc3HRSpwMfjC8OCUZMCblGf2zSevQnzKL4Ngsi+VfXRT1Jp5KXfAwDMxY0L7wL//OYJDMOTrLEeCGpfcPxi3a+4lfDIQD5Ybwt6NhenhwzNGucZbzoxUXfk0Vle7nBLMfQ7L3eZ2O1l50gR+ShFsxjNX2VkR7I6MG1+xresl417aiJPql9O7+ICWw2ddzb9WVwfKgr5Sa4D64+vkBWtr02hx6arsSMiLM+K61R23mxpLbabL/LmqNl4Lzan5pkXOM8tZ7154ptX/sBs7Z1zv0crlq4foCFwl0i0bsvWbepdujMcVCxvcgbWVPp6+c1+dIfflfRFz4oyR9M8Bkjhzwxb+WmO04KLGzBGdPYrzgWuaX6pMRe/pfwrSQ51+9mI9AdN7MNOVk+x+HSh1pRQCDx4mGUJ2zaHAVQsUiF4iaSnyUmtH9wqA160t+L5o0UtwVMCMWCyS+LR54r40AXatnL77hOrq+KhZzM/N8RL65Df8oeuGAbvlBEK4uGkHP8DU+OGdo5dyCf80eLM9iQXwy3ZFC5GFsbTK0rTd/pYjZWO5kZxASczV1PiSVMCOMDDxb+lmW2nCtsrC1re9q28ztaXwbHixrf4xEf08eXfOgUH7Sy+p4kNjeGMKqmL0novtjOS7eqOBBtzzWJ1ScLCyW+lku6PoVxTF64N3NWKahiK9fUfnla/uf3M7kK/hQ1qhZnDSxC7G7flwBKLZtMKlXeWOuYrqFhX8jihHJLxmfNH85lH1Z5Rm18HvHpVXecqJp3pX1ptw+fguTzCgQcc4SE43DtQy17YiYObOlgikUmF0t+z4p4Gh+qLjvUFTGSG1TxSB2qPRfxuNCLYhuLPBmoCniSGS7A3r4NNOjMX8tGP+FeYBQXelKddHEsxJiNeCUF+qAWMRdfGZ+3ODAzPrrkyfGRgJVJ7XgxcAnxpuOiHFduBsoxK6YNd8/GatigxoSAe5EMRqwqGbhp0PirQeG2hjfLK9r0GXZYEs9u284vYoLuMhx4DeLXo/Uo5EbP5tVCso+vIq9qNbzWHlWH+FNrg2VVT9t2Xnq08DE2VhwbzBM67Nqc6Fxq10K1dnJzimvbPn0YqtWAQtyODUdwJXH9AItm7ELe9tQ/CZplk1X2wjieFxVbwrgoAHjM+x/Qiz5b8qVV+q4PK5q1Zw6TTHrvjpNazVPtQ7lVwRxt6+e/2wdy2t83I+CYI4Qch4sfanFhgwIGSZqLVky0P/g1ZL6AyuJGhVAUQbGJasUU24TxYUbxkAWWD9YLc0UmTFFypRR5J/xhc3/hF6MTSHbBlovInnihjaGY8kUKmouiadsmvTznjifHDAsK7oQSCxcrZoxxRfxIboWanW5mY7WTmUFMiMuUGyjZjNVCaS+OBicgS/Fi2VGovEjDdn4lduv1eHS8lRu94PXwhWMAB/0qan5R47IdfXGWx69dbedlTYPut7GSa4meY91LfgGXAkc2rT9XbPuukHvHcMVx/QSLRh6p+sXoWbksbVLlNx1GdW7BfREXKb/AVn3I5rpWzBLdfVjBlL1zWJgx9CNLFa4UT2O5VZGJjhc/SKptp/tjYp20+Tsg4JhjHHAcLn+oxa+avMzDa/iVY1EpVXELhRA2JOzgC8mvD12V/AiLtv5nHjYVj/j1NV2Uo51FIa/YVRYs9BuIzYda0sV8Z598o+g98Yo2mNhiX/IvYKgXpoqzBzfz5JihuuSOa1E4QZeJlTFOc6vilGvZ63o2VnvZiTDy3KjHKuR8ilOcuNT+JlDaZ3Bi5HXYHImaJaVc6W47v4hJcne1Ho+Opxona0nBoQlqB19m7pFOXletB3egFHX0rjemmUbjdl4Moc0mA6vgsv2vDJCoggeFZ7sWxoNECh6Sar0b9l0k92Zw1cb1MyxAZlHnDAwt9KGtx6aCShUPJBttUfkVc8n+ly3Q50I+Cay+92CFY/bOYW3SSJwgPvxDHtonZMxGc2sr/+DPiA/af7//DAHHHHHjOFz/UBs367qomIldfA0lFiRe7aCQmgevSlCljVh+Ws83vaPFI2gJxTzLKxaTiinUbOokO7mvtPFgnzRw22nTladswKvwKfpHwsm+aAs1k09XeefJMcMmk7ukKOLP+AJ7Mlb4RBXa+CtxKjCWG/2kYseL2VjtaCo+aScgm7GqOejFUc8Djsq5wD9/8LSnj3vL2s4vYkKwU70R/ot6PDoePaa1IOVEV31f56vOlfHJRsg9xXczzj5nazsvo7oRq1Rn4vSAexNrjbHEp10Lxw+1if9QH6UuMLnO5yge/ePncNXCVfcN1KEiXksM655rvXyu7kObwg9H5uLARBv5xfYy5RRLvvFpL9OAl9Y8bjcdFuV6G+KsNKKQPtIwHCdirUf7eH5+lFub+PdD7Qjfe40djpu9FF9MDsfhBofai6Hn5jwaAZ4cj3Z0B+ccqx1AvLAI5/ea5Dgv1+TFssqeDZ0BAAAgAElEQVS5slDxNo3AE+LkCT5oXq5+75gjQxwHP9RePWrdvkMR4MlxqOIbKnOsbkjagMnO7wBYBw51Xg4Ee6Mq52ojgF8y/Qlx8gQf7hZujjkyxnH44kOt/VVOAAde/Kscxwa623Us3lIbTw7Z43cage/C6qp5qVnZ7/7e/D6Xr3vz8kl83pfL53B1Rw7uY/MT4uQJPnxSnc6c45gj+hyHLz7UnhmKrvuqCPDkuKqNV7HLsboKE3PscH7n4LpVqvOyFcHj5jtXx2F9Z01PiJMn+HC3GHLMkTGOQzjUQoO/HAOPAY8BjwGPAY8BjwGPAY8BjwGPAY8Bj4G7xAA9kPBPagkJf3cE/Gfph2IAip3/91wEnN9rcuu8XJMXyyrnykLF2zQCT4iTJ/igebn6vWOODHEc/FB79ah1+w5FgCfHoYpvqMyxuiFpAyY7vwNgHTjUeTkQ7I2qnKuNAH7J9CfEyRN8uFu4OebIGMfBD7V3i2K3dyoCPDmmKnqAcMfqASQ2XHB+G+Cc2OW8nAj+oGrnahCwLx3+hDh5gg93Cz/HHBnjOPih9m5R7PZORYAnx1RFDxDuWD2AxIYLzm8DnBO7nJcTwR9U7VwNAvalw58QJ0/w4W7h55gjYxwHP9TeLYrd3qkI8OSYqugBwh2rB5DYcMH5bYBzYpfzciL4g6qdq0HAvnT4E+LkCT7cLfwcc2SM43DZQ+2/39fy8/pd/vEo+/e7vH5+lvcfb1yWPPbf8vvCXyvTY8KMvzf+yrOWK8XJu6gTQKMXl/33zu3Y/164eaGfTwDphsyRfxeXdOo5AYekC7FIt+QVYJD83xevoN/CiXBnfRZWZOKZ72DXzP+IO4qlnx8eL5kPux8tI5w1/9Db6tvbr9lY7WGvzj/Ch/AV+aHiVPRVjbE4K2uUzvk+2VWlh3Rs5zdjY/pLeG+tR7qeJnktmLJtFAvwbtq5LAvlrexv/TuYmNcy3niut2xr923npS0fexEfXWOCP2v4Eq+x3nPMCMeMucRE52vd0gH+dHwc+O/QT+OqinEfLibOW3FasYnHgeaV4kKPwfyRMcLjE8fbPuvY1TqXxZ5n20D7PMuWUvJoy3CcGFxxuwnPoTwzZK5jmD0d9iFP9asPEXDMETiOw2UPtbgJfC2//FRLRZNnb9xwYPJhkXq9jANxHPd+80PdSiRFfVIdbGRyYYPiwRNfF+Fi8bBkxmLC5bQsCzrBR2YHjA+6k7GIRbolgaA/bUp2xAt8SHLpcJVxIvX0XuBCHSe/8+SYYUo7XiIfKejx/ieRiJvo1+9feHgj46XVN8OTJTzkmSN5P6kizloxGnMwQb38LW8Wz3WLNGeh0ARsMj/ETSxmoQao2lZXcFrP9lwYrS+j4wlriSXUwYx9Db4e3mgu8Pda3u/XknOR+uJ7iB9px6JiSMSimj5yu52XHm0GPrTGtPJiJY/a9S8+PMhJ2DDUsC+urYL7HdbbhhGrXVO4amLch0sRi1tx6rCpTmsrv7B2FnODvbS/QJ+LMavs9GAl14ECt1UdfQOG4sTiCmoN2w8O55klM3Iq8qnhzpAPDTne1Y+AY45YcRyue6iNT9F4QoVEfb+XF0vesHH4oc0EFTcskulsAH6HBH0vf5C8rUU5xVOlmKZ+vNDFA+3JT/xlETSKKMkTRZoa7XfUiQcbvsn69FD7/tsDL2VrwJt4GehTQ4++5ckxQ3c7Xsr4CJwW8VqOy7a2+vKoPa5mY7WHjTL/lEQeo/xaDWvfVvDm+cyvgzCcM74Ja1uyd+92fsnP3voyOr6vRtu4dPBGE2nNoDWE2vl7R/zYucyF9F1v56VHj43Pqg8rOLTr38ZDLbglcs32IXgvxvXg8dmYKVw1Ma74rPyVdbEyp8CzgUGHTdV6t5Jf0la0Qbah/VX5VbMrfius+PTV+OeDB67746Sv5o3lWQUHsL+BhXav3wc90+8/RcAxR+Q4Dhc+1OpPHmljpJJaJF0ubjqpQzGCqkcFdC2KhNz6YK1Hf8Isim+z8JN/dV3Uk3QqecnHMDBjQfPCu/A/j0ky4+AkS4wXkto3DfwEJm0ph/fy5JihXOMs40UvLvqeLKq1Q3+rj+bv8z4bqz2sbMaaiFHE7Sc9IOvVXsM716lyI1Sb06vzmHHb+UU/sewa32gp6vHg+FD/6NOaUUxqHGTeSGLO2docemhaeYgXBKFc/pCW5I++b+elR6PtaxnLWhbOq+VRxjLOU2tYM1+FKts+8VBZyRbTwydbLb7k6E/v5nDVwrgDl3BW+cnfOtgFp3WbaofOHBMV20WdBiZ0juK8mvw6dxV9hXySsF8Ok0R6746TAguSIN8zprFdcSzyTPUpSeFbKuIDIjkg3XX7kGb4xVYEHHNEkONw6UOteEoEiRc/seIJmw5fwTdW3ETyQzGKCxi0F598GaEl5tPXacu/q+C2gJRQLJj8snjUNmG6UBs2xSauk+urYsFFCf93xIvraB6s+v0UIg+64ckxQyXnDuRz/uhACjbkl7Xxqi3GILHVt69Hs7Haw9qAr7nbsXEK4wP+Fu6WRbYcvvGyDgI6DizJZ7dt5xexCfCLelqrx4PjhcxRtNZ5CxLVhs/i0hqXrAk2xnw24zCN7L7YzkuPKsQn1yFWk9j6VpNUyyMd92Eckxfuu3Dq4C9wt329rfnY0z6TKxvjDlxo3SGcd8SpZROpE7h15ZfaM4g9DEizYrXGO9fehxXuQ/fNYW4FXHfHiap5oR6l/UL2GXjgD9ACL7U824n/bh+0837/MQKOOULHcbj2oZY9MRMHtlTUsCjlYsnvWSFM40M1/+hQm6JOFZVcxGPRY4UD5oR+MlAV8CQzXLCNnuwo7mTBQj+hgAmMYqEn1UkIx0KM2YhXUqAPaqwjfKBh/72zHHXeHU+OGVa048VYZEO86QOWMS4Z2+pLg3a5mI3VHkaK/GMCQ7vKVdYdf3BL485H0HUN75xP5UGoNodkXuN9O7/oJ9agjIf4tsyWeqRq8RhqNQ6YnVa9qtXwWjszCjegeePJuoYut/PSo87Gh8cy+kOHXdsvHJPzqF3/1HrZNNO2jz9Mkt+C0cKA52yX7t3r/giuJMYduEzal3DMLJuKvchAfgV5UQDEED+w0aHWks9tKq/7sOLz0C871vm40evuOKnVPNU+lGfN2tWfJ90+jILj46sIOOYIDcfh4odaXOSggEGS5qIVE+0Pfg2ZFxgsUjSOCqEogmITVY0VKPvL2/o1TKN4yAIrZYbiQgbVZMIUJVdKkXfCHzb3F34xOumyC3bAJG3m98QLbQz+JvnS7iqmetiJ9zw5ZphRcCeUWJxZcWiNI0GtPhqzz/tsrPawUuYfSmzHKGmVuUGt5XsFb57P/DoI6JVdajuyZTu/0s/1ejw63sqNXoQ6eDM/AcJDXFHzmxvDaFPPmA7zt/PSoST6rv2U60e/HFqW2vVvh0OtyLVGfIhxPX58NuZIrhDjnrjWOM/Aiecyv+Y4YjtgpF867vIDCrBVP4yoyee6rGucV+hqxcZOOayt6Y+TClfK5rE8q8gEI5VcbTe/7/eBz/LrLQg45ogex+Hyh1p8qv8yD6/hV45ptQy+qeIWChAUTHbwhSStHrpkeIUFXB9sVZKPFQ/6GrMqytHOorhKc9JdqZMtDgwPtJ/5Xhyq98Qr2tDAtrQnuXSZC54cM4wqueNaEEMRByHeVLxUNpwoyZDBVex4PRurPUwFvPWDHiv/ITbXcbcsMvAu8lltGlQNsaReoW07v4hNKkmr9Xh0vF1PCy5NMDt4M3OPdPK6Gj5yWl56sw3+Jucr80zb2o3beWnLx14DH+uTNSWqwF5h2K5/+rClhItbw74i7whzVT+NcUL0jjczuGpj3IeLrIvbceqxiaUCIqxig2AHWWLPFjqiX+a/bIF9hXwSWH3vwGpSDmuTRuIE8eEf8pSHz9E8Q5nb8mTEB+2/33+GgGOOuHEcrn+ojQcxvRE1E1t8nRacxaKVN7Ux+RsHryK04gIIoNGLb35Hi0eQH4p5llf7UY3Clthg6iQ7VWUnnCzbCZ88ZQNehU/RvyQcN/Ycu5p/Z7bz5Jhhh8ldUhTxZ7EG9iQIKRdUP2KK+BLP9D4T79lYJVg2XADeKf+bMaqxVwt81QY9D+LemEv5Gbgz+qvyz+vYzi9ik+M3YpUb8JOAVI9HxyM2usbptcJGcJ03ETtCiHpIAX2BX82r1qH7hdDum+289KhC23X9CFgnviw5bZ/b9W/8UEt1Dt8r+BZ5XxlnubOxbQ5XLYx1n12PzNjehJPWyzHWfWjT68Vqs8DZyC96oCLWQ5pkyddfUaax/N2ax+2GsXqM7ufyPr8ejhOxnuBei+fqR3m2if+Bvwv+HCafqRAYjhs1/ym3HIcbHGqfArv7cQcEeHLcwd4zbXSszkR/vm7ndz7Gn2hwXj5B7Zw5ztU5uN9N6xPi5Ak+eNzcDQG0l8eeH2rvyaFbPQkBnhyTVDxGrGP1GCpNR5xfE5bTG52X0ynoNsC56obqqwc+IU6e4MPdgtAxR8Y4Dl98qLW/rgngwIt/lePYQHe7jsVbauPJIXv8TiPwHVhdNR81G/vf35vf5/J2b1564/QZ/D2HqzvycR+bnxAnT/ChtzpdZZxjjkxwHL74UHuVsHQ7roQAT44r2XVFWxyrK7Kyn03O735Y7inJedkTzbmynKu5+D5F+hPi5Ak+3C2eHHNkjOMQDrXQ4C/HwGPAY8BjwGPAY8BjwGPAY8BjwGPAY8Bj4C4xQA8k/JNaQsLfHYHFf8FvJAig2Pl/z0XA+b0mt87LNXmxrHKuLFS8TSPwhDh5gg+al6vfO+bIEMfBD7VXj1q371AEeHIcqviGyhyrG5I2YLLzOwDWgUOdlwPB3qjKudoI4JdMf0KcPMGHu4WbY46McRz8UHu3KHZ7pyLAk2OqogcId6weQGLDBee3Ac6JXc7LieAPqnauBgH70uFPiJMn+HC38HPMkTGOgx9q7xbFbu9UBHhyTFX0AOGO1QNIbLjg/DbAObHLeTkR/EHVztUgYF86/Alx8gQf7hZ+jjkyxnHwQ+3dotjtnYoAT46pih4g3LF6AIkNF5zfBjgndjkvJ4I/qNq5GgTsS4c/IU6e4MPdws8xR8Y4Dpc91P77fS0/r9/lH4+yf7/L6+dnef/xxmXJY/8tvy/8tTI9Jsz4e+OvPGu5Upy8izoBNHpx2X/v3I7974WbF/r5BJBuyBz5d3FJp54TcEi6EIt0S14BBsn/ffEK+is4LYT96f8OMAFhv/PksEdsayXuKJZ+fni8ZD7sftRNOJv81/DfZrY5ezZWptKiETEzsUhxXkzCBhWTPFfaPC2LmdcVNaFZ5zyzDWQJ+4Ndr+VXFL+W8Dl9V+C3xUOu+8z/GWuE4o7HCdN82OX+vPSsFdk94qTEoVW/Wv9mKNRAY26pIBuhrxRHuMat6VwgkdO6DriOqNQmWPf7c2Vp2adN1zRaZ8CHApuPcDM4Futf9MPkEvoqcRpovGYN7WVmOE40Rip2KUeJO7nPqKxfhkyxLq04M+zDijzvXkfAMUeMOA6XPdTiwU9t7KiQqpUHEhiTD4ve62UciGPhe7/5oW4laKI+qQ4WynwQybpRFi4Esv+HC7BkxmLSW0CCTvCR2QHag+6kq7IAgP60od4RL/AhyY22JPsAM8Zl8Jfdr9BwZDdPjhl62/ES+UinGbzP8YObtNfvX3h4I+Klif8MT67yS9EaM/TVPPBwGGLOpXRZ/pY3i982T5VNAZfPr0POy3gH+4g/oauwiws69np2LvR4I7ChGkd1xaojsb7mnEEtWc5ozaOci08YDC57/NhzzP68ICY5F6K1Yq0gD7CWv9+vRWNMhw6Ka5gBuBfjLN4aBxbSXH03OOH5FeZZOotckzWgqm+gY3+uBpQPDhVcATasHoZ6KvKOPwDoxU3XarwX8dHkshKn+lBb8DoIxAnDh+IkYMTxB4MhL+W+k+eh4M/KS0tmxJHLaUEz5ENLkPd1I+CYI1Qch+seauMixxMqbEze7+XFkheTmTaMVPRw4U1nA/A7JOh7+YPkZcW6Hj24mSkWejUhb5aoQ84TC4XhE83CJ8a5KKV24wJ14sGGLwihcCWDCQslQPhPY/bAS+kJeEdeCPs0xNCX+s694Mkxw5J2vCAfPOYDp0W8luMKWzn+Rec+DbOx6rPSxsLGjUlcwafNU2WzzsTnS1kPcnu+yrrWx+ZZ86+uwG/GhvzlGJXch/F7rhFhs8frMupMZZbMOvB9f14qPom1IjpIbUVNh/6Sj7Cu6fpl5l7FhlVceTw0Bls6rbaGiE+69ufqEyv65kDu8P2EmMWx4tdi0NpNGR+yTq9xWY+RXCfWZKzZeE5/f5z0+ZfxIH/kPMl1yQvNGtmX9vuQpPvFRgQccwSQ43DhQ63+5BGSEg5JMjll0uWip5M6HfhoUV4LpmIzY0/QevQnzKJ4NBcD8s/Ww1uTTiUv+RgGZyz4XLnJyGOSzDg4yerFSygJjwLFJ8kBh/AwolFAtYwT7nlyzFCvcZbxorHR92RRrZ36S/xZz26Xs7HqM9TGQm6WLEk474d/g4ANa/M0cKgNOcoPRUxJvERdxqfv5dBDW67A7xoPqU4FZKiG7rdGlHFkx9uRxOzPC/pUHNSN2p/5sHDQbXhfHJTUuoXYxbHpzyfoQfUKsh35FSQ0dXbqWjHF6t6fK0vLPm3AbcEViRb7IeJqFDc7PtJD3FUucX4Rp/GTR/MbTGT/xd+740TwUHcq52kco+JfcK36pFSqqbLVuuv2wZrsbR8h4JgjbByHSx9qxYEVEi8+8eUJKzc1rOiJ5GeJaSzUZjSJ+fR1Wvr72bxJ5baAnFAs2JPpsnjkuVKv2ojJTnHHdXJ9VSz4bOH/jnhxHdYTe8IGNi0MHzHtAjc8OWaYw7kD+Zw/+qQDbMgva+OgNwfa0rV+Pf6z+9lY9VmFvma8GHYdcRbwD3hLnNs8DRxqVR2xfKrZYI09su0K/K7xMHuNKA+1yH3aiB9JSNS1Py9sHeD+iLWCvu2U86TEpsxFE6fmJhoNCLLFN7K4Yey6I7/C6IbOmfm3P1fM950vAw7WiXFtPa88GCzNK+NDPFRc5bISp7SOGnW8tOGaLd1xojDCPKE1L+8t1+qm4DrkRp4rEerfl3b7IBX43QYEHHMEj+Nw7UNt+DsB/NuBkLxUcNNiq4scv2fJmMaH6td3qFLFI8Wdas8LYiwsaiNdFo+8KUgywwU7eMuO4k4WLPQTNg8Co7gQEWRJCMdCjNmIV1KgD2rQwWSnv4ur4cAEnXDJk2OG+na8YPyKjWCIN42VMY4ZG3SoOGTdu13OxqrPUBuLkAsRg9rCz+XjmIxzm6f9D7Upf3s28tzwiddX4HeNB15bRP1LdY6vCQAWv2d1KY2XawSPI4TajreJNBSi9+eFY8LUcUyobvO6UhwUFTahdhmb5WIe05kuGTepzbio6dBDO3TqGqBFfHK/P1efWNE3J+RasWGw1nMprx83FR8gJvAX6+4ql5U4DWLwd1XQFiPmpMmXu+uOkxpGqn2tbgqum7kBeZjXxRZw3T60hHjfEAKOOcLFcbj4oRYLKmz4IAlzvY2J9ge/hswLmCx6ocC9/8LcdFCA5OcLczWEKouqUTySbEOWKB7qcCeGK7miT92ATKEzzv2FX4xOIBkLSLEx2RMvNDL4q/ANPIg22zbl5im3PDlmGFBwJ5RYuFhxaI1DQRb+QsWON7Ox6jPVxqKMuTVpKIfSp83TwKG2lfPRpKwLbcg5vGbz3P4r8JuxqftKY+Cd+Eu/tbB1jSjqsoyTulXzevbnpSeHYmyKb5Hgg9y8Fmk5+j5i0txED4wJQ636aGDfo1M88DBkfNC0P1cfGNE5BfJH157QJtZuSxjynHPPGgNtVjxw/vi1JaOuh2oA6dB+WNKu1NYfJxWMVJ3KeNheSq4rMmGqkmtLw9Z+H1pSvG8EAce8jL3LH2pDUr1e5uE1/MqxqKSq6IWFDBZedvCFJF0t0ggUPvXjG6UyyceKB32NWT35inbmzUE7rEud6DcEOC/maD/zvdhg74lXtMHCVhfG6K+gru3yYb2zi0TJHXcNMRRxELBT8WJuDhr4cxU7Xs/Gqs9UA7Pi4U0pCXKjhXObp5FDrZ3zXL/UhRsMYVtp/iEtV+BXYlNxO9T0WWuE2vDpWlYxaWbzDF5W1wqzDlFs0xpj5KKFl3HA/HvLGge8j63Tcj7Pr8CFobMYU/FxC5czuNpiT2tuwDwtyvX15HPcavGRucM4zPdgb9aH85OJzBlZJ65TQ5mJzcuROEGMrrcvHfGhCYZ3diPgmCNUHIfrH2rjQUwvcGZiF09aY2HmVRAWLuvgVQujeAAD0OjFN5yymJZC5EIR+8PimeWJvyspRRQtpk6yk/tKm/uK7fRUM0/ZgFfhU/QvCg84VO0oXDytgSfHDCNM7pKiiD/DCezJ/OBiTXFI7yEeV/BPKna8mI1Vn6mIGc9JmBfqQzPPNdZyI9XmaexQm+zhvDLbCl0xlzPvfUjsPeoK/BbYmE7GvGCYcswljsh7botxkBvw0wkui2pr4E/GiWnO5MZZvNCaKupK9AV44A9Ms4v80G/lIu+PswKeCkddvzj+WVn1StterPGWzrhfIH9H1+GqMaxjFldMxW6XgmPNB9WukCft2lk3SM/DPQJPPZhb59Kaj3FU1ImL1NA6FrJnOE5ETUIc+RpY4CHV4W95aOALzlWOKhn6dtgHLcDvhxFwzBEyjsMNDrXDPPsER+BjBHhyfCzkSyY6Vs8m2vm9Jr/OyzV5saxyrixUvE0j8IQ4eYIPmper3zvmyBDHwQ+1V49at+9QBHhyHKr4hsocqxuSNmCy8zsA1oFDnZcDwd6oyrnaCOCXTH9CnDzBh7uFm2OOjHEcvvhQa3+VE8CBF/8qx7GB7nYdi7fUxpND9vidRsCxAkSumq+arfF753ccsyNmfBcv984v5yr+GdKpe6ojsnKbjifEyRN82Mbi8bMdc8Sc4/DFh9rjA9A1Xh8BnhzXt/ZcCx2rc/Gfrd35nY3wZ/Kdl89wO2OWc3UG6vfT+YQ4eYIPd4scxxwZ4ziEQy00+Msx8BjwGPAY8BjwGPAY8BjwGPAY8BjwGPAYuEsM0AMJ/6SWkPB3R2BZwsMdB6IPASh2/t9zEXB+r8mt83JNXiyrnCsLFW/TCDwhTp7gg+bl6veOOTLEcfBD7dWj1u07FAGeHIcqvqEyx+qGpA2Y7PwOgHXgUOflQLA3qnKuNgL4JdOfECdP8OFu4eaYI2McBz/U3i2K3d6pCPDkmKroAcIdqweQ2HDB+W2Ac2KX83Ii+IOqnatBwL50+BPi5Ak+3C38HHNkjOPgh9q7RbHbOxUBnhxTFT1AuGP1ABIbLji/DXBO7HJeTgR/ULVzNQjYlw5/Qpw8wYe7hZ9jjoxxHPxQe7codnunIsCTY6qiBwh3rB5AYsMF57cBzoldzsuJ4A+qdq4GAfvS4U+Ikyf4cLfwc8yRMY7DZQ+1/35fy8/rd/nHo+zf7/L6+Vnef7xxWfLYf8vvC3+tTI8JM/7e+CvPWq4UJ++iTgCNXlz23zu3Y/974eaFfj4BpBsyR/5dXNKp5wQcki7EIt2SV4BB8n9fvIL+Ck4LYR/6X8uvIJaMO/+dJ8cMa4g7iqWfHx4vmQ+7Hy0inE3+E/5c7gxPzvxRLcTJ9D/FdsVnEYeylrS5WRYzl6tqfpYflnwk27Q5jGv9e5zzubTcmJ0Llk7dRrhZ+ZDrPps1aY2o5RzTfNjl/rz0rBXZPeKEhXfsbNWvtfg25pYKshHpypiXauqaTvhnpuOeINbNLpVJ9/rF/lyt6xwZoWsaxTnlm8DjI6wqsbW0eGMe6L1Squ81uVinRZ0Ndl93zwHeDseJxkXtiylHiUe5z6isZYZMgSOjxboc9sES4m1DCDjmCBfH4bKHWjz4qUJERVVUWl7EsNC9XsaBOKxfP8v7zQ91K/ET9Ul1sFDmTSYUD574uCjIfr65pUVUyIzFhMtpWRZ0go/MDhgfdCfBlaIPPqmFYRe8wIckN9pC9ulFJdxnjFq+Ht3Hk2OG7na8xPhNJ368z/GDm7TX7194eCPj5W95M/zDopZiYYYnHyzEu5mhcULBIf4ZBoW6mGcZlhIzjulqLhcKcoPGvy9n4/xgp6p9WfRhV7NzoceRZr5YOMWanXMGtWQ5MXa614hWzvV4sP+Y/XlBTHJeRJvFWkF+AB6v5f1+iYc22Fvmpc6DMM7iLR5yChtIbfV9g86VelBVOdCxP1cDyjuGCn4AD1Y/Rf37GKtKbEW+eb0VtoDtet8Q9zg4pyaX7wfzBwjjcdUB3o5DhuIk1jjp0/n70iEfdsTum0U55sg+x+G6h9pK0Xu938uLDkvBH1xk8RxAhY63xZAPRfm9/JkLtZUWIEN+kmOOUofaZZHzZKEuF+AkMxSqvoMeyKSDDd+8fXqoff/tgVfyBC8C3rgxLw8bhj41/axbnhwzbEDu+MfUPF7K+CixA6vKcdpWe54ete1+NlZ162z/V31mMWnJbnNTebptCYoP0Hhu9uVsFLZiZ0Xl7s3n8ZtdaXNSxkEYP2WNKHVlK4+92p8X9E1ukuOhgh1ygpe0ftJ6Klw3MKLxfJwZ3xUb+DzzeoNO0w5TyceN+3P1sSnmRMgXXqfEII4PvxaD1m5qvK7xxtdFS0dNLj/Ursmw5J7T1h8nfT6166ZeywwuCIaBfWm/DyTc37ci4JgjghyHCx9q9SePkMxwSFJJLZIuFzqd1GHDC6u2tchakSXkWgOwTevRnzCLRaO5MJB/dV3Uk3QqecnHMDBjQfPCu/A/j0ky4+AkS4wXkto3HD9+jUZ0PTBoK5jTy5NjhgaNs4wXvbjoe7Ko1k79mCP8KTj17Pk+G6u6rbb/q4fa+DDgJ9SRUnqbG70RKOfzFpDFN0ANiM0AACAASURBVItJdjNnowQ1hss98vo8frOXCTdqUtikOhX6qYbOWCPsmCOzjnzfnxf0redQm/mw8NBteM/zIOCkOETs4tj05xO931TYQ2evrnGW9+dq3IbWDF2nxFixbhM/o1jhvCK2igezUT4NDDHSeshfk0uHWuvbTMK7S910x4ngpO5CztM4RuWc4F31SalUU2WrddftgzXZ2z5CwDFH2DgOlz7U4tdPYmGDxItPjXnCyk0NK3Qi+VliQrt++myFk5hPX6elv5/NxZbbAmJCsWDyy+KR50q1aiMmO8Ud18n1VbHgs4X/O+LFdRQLVsSFbVher/VPwYXIg254csxQybkD+Zw/+gQWbMgvaxOBvBWH1hCzcS5tDmY4EWXOxqpuOvqfMWJ4sdyrzQ+YB4wltm1uIleduAYdbCyXHfqinTJno8XNTUbNq/3bz+M3+8Jxg1aOXRjF6/TUNaKSc9nUw67254WtA9wLsVbQVzlzzoTYFflW5mVRo0B+R3wH2eIbWdwwfr1dZ4gpox5wLZ9e78/Vp5bY84LvrE7lUXa8j2NVia30gDHXbhErPK+zUeyqJpfvNXKssomXvOyOE4UL5glhmPeWwBPHM/DGclXwHvIxz5UA9e9Lu32QCvxuAwKOOYLHcbj2oZZ9lVds/tJiqwsbv2fJmMZXvlJlBZUqHmmIas9FPhYWVjhgTlk8aoWWHbyTMvsCZOaChX7CvcAoLhrFesWxEGM24sVMDT4rHFg3oPLVn9RCAqaXwAnjN3Mb47X4ZNEYJwHGWOjaFKqJA7e8kAxM22Go7X+I/4hnbbHnynFMzsehXOaCjGuR97EOZF5rORsFdWz6DZW7N53Hb3ZljRNeS0T9S3WOrwkgl9+zOpTGx5wTeZnnZQ6zjUdf7c8Lx4R5wzEJZ1H1WxVFnKq8hPlWDSrmMZ3pknGT2qyL/XTqemBpG23bn6tRC9rjdZ2i0aG9yAHqpYf8uXbmHn1Via2YhymfdKzoey1W5LHsBNtBLvJZO6zJOWffdcdJDRfVvlY3Be/NfIQ87OH5zN/YOJu98/R3x815Jh6imeNw8UMtHgqhQEES5gNaTLQ/+DVkXrRkAaVNDhW5gC4kf6NYZwYqi6pRPFJhzpPTlSgercOckpsEGBfCH+iPc3/hF6MTSGqxj3ICJsn/PfFCBcHfJN8wntnLfyW6MvLwZp4cM5QX3AklFmdWHFrjhKCuT0PUjOHb2VjVDbL9l7Fdn517ZPy3uVEPqLIQ8yrkQcrFXMfSYDNnY29zk5EkTL84j9/s2honMJLGwHuGfO81wo65bOlxV/vzYvsm8wnHgG79yuuflqPvI0Y98d0zJojTOvT9gM7GQelTdvfn6lNL7Hm6TsGo0La2hndjhXzkvCQ7NE/63lr3aC681+TmekBj8p6Iz7/WdX+cVHBR+0eqiTUvJe8VmTBZya3Jg/Z+H1pSvG8EAccc0eI4XP5Qi38D+zIPr+FXe0W1VIUuLIywCLODLyTpasFGoMKirn8sSiX5WPGoPOGMdubNQTusS53oNxDLCzjaz3wvDtV74hVtWMUWC2ivr20k9u/lybG/dL7gWtIRQ4FNiDf9pNQYBzHEcqHk3tK3rW02VnXrDP+tT5KUAMCkhW2ZV1KA3AjIPn2nx5ayY76onA1yujf0Wuu+9+fxm/0occt96SrU9NlrhB1zyYYDL2bwUtYLtdE16xCtZ7TGGBip9TLAZMT331vWuJA/q2sJSPtc51o92IPSGVztYRfJkHUq1iQD98+xQplsaYqq13nDmJRxke2oydVr7LX3G8TDSJwgLvwBXnn4XKubknfKY4k1/pkA/1YgWWu/j/hgS/DWUQQcc0SM43D9Q208iOmDqJnYxdO7WKR5RQ0bIPXv37YiKR44ATR68Y3xaPEIqsJCn+XVfrimZpapk+zkvtJGv2I7bQjylA14FT5F/0A42Rbt4PjVfDyrnSfHDBtM7pKiiD/jC+zJ/OACTXFI74innqsWqKRjv4vZWNUtRV91HIWaYGzIspw2Rm1ucLPEHxplueUVyOJjTdmUF5lgFBTa5/NXWi1bzuM322HilrvjVcwLxf0+a0Qr5wpDDmmYxQvhJesKuqTjOTuK+GAIW3nJ++MsK771+qG4zPr01Qadcb9A/o6uw9oS634WV5auT9oEr5oDWocCue3aWdet58G+AGpbH286JvM+sCZXH2rDJmh5iXW0bu1ZPcNxQmsHcfQjD59rdVPwTk4X/I+tQcM+kF5//xgBxxyh4zjc4FD7Md8+0REYRoAnx/DkL5vgWD2bcOf3mvw6L9fkxbLKubJQ8TaNwBPi5Ak+aF6ufu+YI0McBz/UXj1q3b5DEeDJcajiGypzrG5I2oDJzu8AWAcOdV4OBHujKudqI4BfMv0JcfIEH+4Wbo45MsZx+OJDrf21MgAHXvqrjccFu9t1HNalJp4cZa+3cAS+F6ur5ihnZ/v19/K7HbuZEr6Ll3vn2vO5ujc/M/N0RPYT4uQJPoxwdoWxjjmywHH44kPtFULSbbgaAjw5rmbb1exxrK7GyL72OL/74rmXNOdlLyTny3Gu5mP8BA1PiJMn+HC3WHLMkTGOQzjUQoO/HAOPAY8BjwGPAY8BjwGPAY8BjwGPAY8Bj4G7xAA9kPBPagkJf3cE/N9aG4oBKHb+33MRcH6vya3zck1eLKucKwsVb9MIPCFOnuCD5uXq9445MsRx8EPt1aPW7TsUAZ4chyq+oTLH6oakDZjs/A6AdeBQ5+VAsDeqcq42Avgl058QJ0/w4W7h5pgjYxwHP9TeLYrd3qkI8OSYqugBwh2rB5DYcMH5bYBzYpfzciL4g6qdq0HAvnT4E+LkCT7cLfwcc2SM4+CH2rtFsds7FQGeHFMVPUC4Y/UAEhsuOL8NcE7scl5OBH9QtXM1CNiXDn9CnDzBh7uFn2OOjHEc/FB7tyh2e6ciwJNjqqIHCHesHkBiwwXntwHOiV3Oy4ngD6p2rgYB+9LhT4iTJ/hwt/BzzJExjsNlD7X/fl/Lz+t3+cej7N/v8vr5Wd5/vHFZ8th/y+8Lf61Mjwkz/t74K89arhQn76JOAI1eXPbfO7dj/3vh5oV+PgGkGzJH/l1c0qnnBBySLsQi3ZJXgEHyf1+8gv6Ek8RB+1zYRfad/M6TY4YpxB3F0s8PxynzYfejRYSz5p/sJR21fhq39X02VuP2IX7a71wfokSqAzFWeSwSdjX8Qz+fsGakzvWUe8uyNOxYE3tE/9n8trgoOAVAJqwPlGsUDyPUz+LoeF4qa0nNwUZctzgFcU/Lr+O5qpHyebvmpJkTDe7rFljrXrnPC/N1Pf35WXS9r+u5bs9wnBg48Nr0UZ4ZMkewHfbhunTcxjLHHKniOFz2UIsblNfyy0+1VDB59saFEJMvbmpfxoE4jnu/+aFuJXajPqkO/rHxfBCB4sETHwu+7P/hAiyZsZhwOS3Lgk7wkdkB44PupKuyEQH9aWO9J15/yzvJ1ZsT/Afak38BA8Vty+ED+3hyzFDbjpfIRwp6vM/xQzj+hYc3CU9uaOD3vbxfMi75kL2uZ2M1bqfGDyWEvKDYjLmW0mQp45bjuprPLSONOAd5Qf6KHS2xR/WdzW8zVwJ+qoYEvH+WnC+IVJYzWO9AB8UN1VdVc4/igus5nhfELecMt0Zdr8R15gLnPT2/judK8bHDLXCWcqqVEyvc100x6nbMZV6L6SGgiMOoU4yrK7psz1CcRGwEDrCOsdo0nGeWzEFsh3y4LBP3MswxR744Dtc91C5loQuJ+n4vL5a8S0hm2tzQ4gsJTm0xSEOCvpc/SF62UamHMB4gZOEoR+vigfbkp4xiQTB8ShJDUcmH4dRuXKBOPNikxYY2XclgwkIJEP7TmD3wknrEQaLwjfTKOVe448kxw552vCAufIEWOCaDynHYRbjW+pOAXS5mYzVupO23wDDUAVUbmKI2P/phDZtYXK7UjxU7CnEnNJzNb5uLkuswfub6cBHOjueF6kpHEK5g1Ob0efl1PFcdHA0OAc74PkNM53zzazFo7abM5TBD7BsqY2CgGLem65r9/XGysq5E98bybB9s+324Jgd3tMoxR9Y4Dhc+1OpPHungpZJaFLS8+OqkDhtbOPDB+J5DrZBbD3etR3/CLBaEZtEn/+q6qCfpVPKSj2FgxoLmhXfhfx6TZMbBSZYYLyQ1bpAjOpyJQ0WY1SiiDalHdPHkmKFP4yzjReOi78kiuz1x1np4QiJ2eJ+N1biJDVxSzuOYH/3QKypr8zOw6Q652XpI1bZj3Pf9Z5zN7xoXOd7Bd6qfE9eHzjVhfyakxON5wVhNz0ulOequHddrnEJ/9QDFNd0kv47nioO0z3WTE5ETbe7r1uA82i/kcSyX1V4nj4Eryn3Zeqe77jgReNc9HMqznbDt9qFutvcMIuCYI2Ach0sfasUTOEi8uDHlCSs3NmzxFcnPih60pw1uI4LE/HjANv5elNsC0sICwOSHe9oNNBdiVsAbZpEOWgC4vioWXJ7wf0e80LD0d8d8YxLsYphoH7h5Z1/z5JhhSzteaFPA/07b+lTR2ASI2DL6JzgzG6txky38IpZG/IH9+nDb5mfgUKvqR82XkL+GHbXxR7afze8aF8euD8fkVA+/x/OCvtMy1mNjLa7XOA3zehTdJL+O56qHnbExdU7snKhxX9dqyxHfehPrm5bUv3fSM69y3x0nKu7D3uoi+9JuH64C+gPscMyRRI7DtQ+14QkcfpVXHNjSwUwvtvyeFbo0Pn5VRW1wzdhWxSONUe25gDc2z7RIh8JsHVJAOjt4J2X2BeikQy0VfrgXGMVP60h1ksSxEGM24pUU4AUWW/ykKlwLzGuLmBJywi1Pjhnq2/Fi4BLiTceMHsfjHqzW/TM8WcIDjDmSP5Vq+13GX5aPcZrxbfOz/6GWLNF2UPuZ77NzYc23NS6o9kGNC/hRsUs1zs4LHDZW74ItooatWT+v/3heNI7oG8YsPYCzv5Wg43qN09BPPLYgVOtwayj0aTvWxu/VfzxXe1me5dQ4WcuJfsztus3zW36jKduGV/17Jz3zKvfdcVKLe9U+lGc77Uu7fbgK6A+wwzFHEjkOFz/U4iYSDmyQpHmti0XsD34NmS+mcvENRfX9F+amQ2Da8KxFNNv08KFG8Uiy+bh4LReEikwYq+QaolITyBQ649xf+MXoBJK9UARM0uZsT7ySeXjBC2Xhm9SrZp56y5NjhiEFd0KJxZkVM3ocjgHbi1fiWija5WY2VuNGalxQgox5LVXGYpufgUMteyCnNdr30g57zLGtZ/O7xgWgQWPgPZU+ekC40/oAsru+3XMQPcfzsiU25VziqwZVwDoTWRsWHwJzzhtDQ5e0Y230Xv3Hc7WX5VmOxUlfTvRijuPEngbUi32DtQ5GG8W4bPedrvrjpIKDwmAszyoyCw7aiPb70Jbjvf0IOOaIFcfh8ofaUNheL/Pw+oJfABYLoCqi4WAFG3128IXk79zo45NGtXBuKh6VJ8bRzqKoV2K7LFjoNxDL8UD7me/FRntHvMAHxoXUrYqmwrDi5inNPDlmGFByx7UYi3vAKn+SiKONcVyMf1Ir0WD/PBjEpcgzhW+bn5FDrZ3rpJ/ek6HKjtR+4sXsXFhzbY2LMB9wm7Y+xLrauV6s+bNX//G8qHWi4chaXK9xCv18DWuoMj99Jf30nuaflF/Hc5U83u1CclLPic8xN9YzY08E8vWfi+AnuOoh/26eHydoJE4Qh+vtS0d8OA7ZZ2tyzJFfjsP1D7XxIKYPomZii6/TgrOxALPDFh6S1b9/24r7dDDOn4LxTfFHi3RYYLO8olC37GGfTohhZCf3NX3tKuvithM+ecoWvOLc9GmhOoiRfaFf9QlHzr3hyTHDkna8aAyRt8wPPhwAG/lLcgpWo5yyfV+PZmM1bq3td6gV6WCiMZax2OZn7FAbmAgbMcZXpx3jvu8/42x+17hAj2NOJFyxdZf1oajTkceckPuD3iHxeF50zgAOMm+y2XqsHLfGKfT3HmpBJ/Gc6mGKg7Yd2d65V8dztb8/gpNmTnyKuZ7XiK9Cv4yv/b0/RuJwnIj9FNYlvt5/lGcbsR324RhoH63FMUd6OQ43ONQ+OibduYshwJPjYqZdzhzH6nKU7GqQ87srnLsJc152g3K6IOdqOsSPUPCEOHmCD3cLJsccGeM4+KH2blHs9k5FgCfHVEUPEO5YPYDEhgvObwOcE7uclxPBH1TtXA0C9qXDnxAnT/DhbuHnmCNjHIcvPtTaX+UEcODFv8pxbKC7XcfiLbXx5JA9fqcR+G6srpqnmqXP77+b389xmz3zO3h5Rn59B1drEf8MLte83NL/hDh5gg9bODxjrmOOqHMcvvhQe0YIus6rI8CT4+q2nm2fY3U2A3P1O79z8f1UuvPyKXLHz3Oujsf8jhqfECdP8OFuseOYI2Mch3CohQZ/OQYeAx4DHgMeAx4DHgMeAx4DHgMeAx4DHgN3iQF6IOGf1BIS/u4ILEt4uONA9CEAxc7/ey4Czu81uXVersmLZZVzZaHibRqBJ8TJE3zQvFz93jFHhjgOfqi9etS6fYciwJPjUMU3VOZY3ZC0AZOd3wGwDhzqvBwI9kZVztVGAL9k+hPi5Ak+3C3cHHNkjOPgh9q7RbHbOxUBnhxTFT1AuGP1ABIbLji/DXBO7HJeTgR/ULVzNQjYlw5/Qpw8wYe7hZ9jjoxxHPxQe7codnunIsCTY6qiBwh3rB5AYsMF57cBzoldzsuJ4A+qdq4GAfvS4U+Ikyf4cLfwc8yRMY6DH2rvFsVu71QEeHJMVfQA4Y7VA0hsuOD8NsA5sct5ORH8QdXO1SBgXzr8CXHyBB/uFn6OOTLGcbjsofbf72v5ef0u/3iU/ftdXj8/y/uPNy5LHvtv+X3hr5XpMWHG3xt/5VnLleLkXdQJoNGLy/5753bsfy/cvNDPJ4B0Q+bIv4tLOvWcgEPShVikW/IKMEj+74tX0J9wkjig26+AobabTLvCO0+OGfYQdxRLPz8cp8yH3Y8WEc4SR2NuQf6+Hs3G6jNrEQeJDa8RUSrVghivHKo2R8ti5rRprMGJUb/65ZlKpjWezW+Lh1zzmfsT1gfKNcxHnqtM78GXx/OCccxzpOnyIbkVLdBraVrbME9FHQh2vZZfsaloerK583iuNpvcFKBrlcwPtTdrxEFdyb1rZt2vds9wnOi4V+tKq3aCJZrHYJ0hU+RP2wX/kc0VfGZ0D8fNDCMuIJPjcNlDLR781AJERVKtrpCgmHxxQ/syDsQxkd9vfqhbYSPqk+rgHxLPm5usG2VhkZf9P1yAJTMWk94CEnSCj8wO0B50J12VjQjoTwv/nnj9Le8kVxdN/MfXX79/4aFDr58r7Ezp5skxQ0E7XiIfadeF9zl+WjhW+J7hRJQ5G6vPTNcYopSQGxSfMd9Sqixl7PIYXc3pqqGGLTH/uXyIicxxVdjhHWfz28yVwOHs9aGMiyvwdDwvA7XlsNwKC/ry8yNjAHKVckvET2HXMel0PFdz/RK1CjClmkr7D9qTFHjLXKpbee+aWfer3TMUJ9YeEtYwwj7udSkPQPPqGmbJjBxyOS0vhnxoCfK+bgQcc4SK43DdQ+1SFrewSL3fy4sl7xKSmRY2WnwhwaktxkdI0PfyJw51rdjBA0Te+NpjxcIZhsh5YhEwfEpSQ1HJh+HUblygTjwg8k1WKFzJYMJCCRD+05g98JJ6gi1swcPeklM56/w7nhwzrGnHS4lPP47E5QyrbZmzsbK1rrWWGMIMgWOoBao+MLFtjvQDGzaxuLRtWVSuyxpRCDmt4Wx+2zyU2IbxE9cHEUOnsXLGPzs2UFsOyy25zlp05PhZH2vN36Pt7Bzawwcuo1mrOPf8mgtYvS7zOky5Sc1cda8yoD9O+mI5xz4plPMkjxXMYarCnaRZ7/0+WLO97RMEHHNEjeNw4UOt/uQRkhI2ojI5ZdLlxVcnddiQwIFPHOoaYdSZzFqP/oRZFI9moSf/GjbFrqRTyUs+hnEZCyFR+J/HJJlxcJIlxgtJjRvkqHzC1yieDWlHdvHkmKFX4yzjReOj78kiqx3bwH581Q9tJGXr+2ysPrPPwkYdauPDJf0pD+lrc7TDoTY8iMtf1QN9/OEU2XH2+9n8rvGQalQAiurnrPWhVtOOZ+l4XjCn0vPSpstUh+z6s8Zpdy6Eta/9EBh1nfvtoOO5apKzubPJj9gzteOgbohdv/HDi+vXzLpf7Z7uOBEY12UO5ZnaR0qpVFdlq3XX7YM12ds+QsAxR9g4Dpc+1IoDKyRe/OSPJ6zc2LDFVyQ/S8zeQ5qYT1/foANDXky5LQBvKPrsE8pwT7uB5kKsNmONEOc6ub4qFlyW8H9HvND59HfH9ia9tmBxA8+95skxwxLOHUL2U3wdHGzIL2tzuI5jiAXxjYb9vZmN1WcWIzYZP4Yly8uEfcBaYtzmyA+1n/EyPmuNh0PWh7AOxBiiOj7uyq4zjs87tk50ehLWpZm5pdZny6yaDdbYWW3HczXLE5QbMDXzwF6Txjmw5fihNvKq4h7XeVrjzt2XPi3W52bSPtIdc8SR43DtQy37REMc2NLBTC+2/J4dEtP4+HUKtbk1w0sVjzRGteeiHQuLki0WgZ2eiIHM/Cko+gn3AqP4aVSx/nAsxJiNeCWA8MI+VNUWLDX5xFueHDPMaMeLgU+IN3noWlpfY09GMz5T274Xs7H6zFoDQ/31YyUYYzVj3ObID7UKvmm3azzwja6ofanG8fUAzOT3LD/S+Pb6YNe0ae5XBR+fdxy3bBbiUW6o8wh6GDwht0JdzJt4rpOuaZ08k7fjuSLv57yHnCw2FeXDfK0dOchxoPvzvV2/ea7D2JodWc69rrrjpBb3qn2tdgr8dtqXdvtwL2ouba1jjvRwHC5+qMXiBQc2SMJcS2FD8lp+/+DXkPnCJhffUEjff2FuOgTyDUwzXNmmh48zikeSzcfFa1E82CG9GKrkFv2sAWQKnXHuL/xidALJXhwCJungvSdezEC4NAulbZOaeeotT44ZhhTcCSUWPlYcWuOEoAr+aszG29lYfWaejY2Mey0Z51DqtDka2VDZtohPGC+8QTub3zUegEUaA+/EH26AJ6wPZk3TsTT//nheZH6MeSjnEl81GdCf17DaKGi36qIcn3WhDX1ypYytd8dztdXi9nyLn9CW9hS1+TIOaqPowZPY38BgtT+y7KjLvH5Pf5xU4t7Ap8CQwSDxq8g0cGciist+H4qp3vAhAo45AsdxuPyhNhSz18s8vL7gF4DzTkY9iaeDFTxJZgdfSP7VAoxA4dNFvlmyi2t/8SifXAdNYbOkDqqNIIeCJHXGRRu+7sXwQPuZ78VGQC000Y6P8IK5Td3gEOqTtjccPaGLJ8cM9SV3XIuBT1is9BPuctzfW44Ji1ZnnHMLRq5nYzViSx5bYgN9/FAL1yIGFcZtjjYeao1cD1yx3Mm+nHt1Nr9rPAR0Qj2ftD501bTjOTqeF8ypnhA9LrfstZTrl/GDG3eR9wdQdzxXc52StQrjwtpPcR5Snuof7zRNNer3jWqm6VJH40icALYwXuRjWMPyXk/GfmmA5NHOJfxgQu81S1nUMuIDzfH3bQg45ogfx+H6h9p4ENOF00xs8fUycDYWXZ79YROk/v3bVlzFggqg0YsvjKPFI6gKBSjLq/1gTc0sUyfZyX2lzXzFdsInT9mCV5ybdPFDFm4oCD965zjWfD26HWyb+Z/JXVKoMcQYyfw0cNQxNflACybPxirBMnSBGOrYCvUiYaJx5rGaP/2rqdUbgto4yi+Kd3yXumBuv7y6phk9Z/PbzhXyOOZE4hbb91kf2nFCFhz9fjwvGgeoS2UcR+TTvxVvxfsap6O5QDyjLv77BEYexzUy19P5zB3P1VyfBD96zaG1PwCsY6YWL9pePc+ONWGHFnHD++E4of0eYf4jD58f5VnBZy9nCPiwDzfk6WomO+Zl7N3gUHu1MHJ7noyAF4l+dh2rfqzuONL5vSZrzss1ebGscq4sVLxNI/CEOHmCD5qXq9875sgQx8EPtVePWrfvUAR4chyq+IbKHKsbkjZgsvM7ANaBQ52XA8HeqMq52gjgl0x/Qpw8wYe7hZtjjoxxHL74UGt/lRPAgZf++uJxwe52HYd1qYknR9nrLRwBx+qqucpZ+vza+f0cu5kzv4OXZ+TWd3A1Eu3P4HXE456xT4iTJ/jQw9WVxjjmyAbH4YsPtVcKTbflKgjw5LiKTVe1w7G6KjP72OX87oPj3lKcl70RnSfPuZqH7ZMkPyFOnuDD3WLKMUfGOA7hUAsN/nIMPAY8BjwGPAY8BjwGPAY8BjwGPAY8BjwG7hID9EDCP6klJPzdEbjsL/pekxoodv7fcxFwfq/JrfNyTV4sq5wrCxVv0wg8IU6e4IPm5er3jjkyxHHwQ+3Vo9btOxQBnhyHKr6hMsfqhqQNmOz8DoB14FDn5UCwN6pyrjYC+CXTnxAnT/DhbuHmmCNjHAc/1N4tit3eqQjw5Jiq6AHCHasHkNhwwfltgHNil/NyIviDqp2rQcC+dPgT4uQJPtwt/BxzZIzj4Ifau0Wx2zsVAZ4cUxU9QLhj9QASGy44vw1wTuxyXk4Ef1C1czUI2JcOf0KcPMGHu4WfY46McRz8UHu3KHZ7pyLAk2OqogcId6weQGLDBee3Ac6JXc7LieAPqnauBgH70uFPiJMn+HC38HPMkTGOw2UPtf9+X8vP63f5x6Ps3+/y+vlZ3n+8cVny2H/L7wt/rUyPCTP+3vgrz1quFCfvok4AjV5c9t87t2P/e+HmhX4+AaQbMkf+XVzSqecEHJIuxCLdkleAQfJ/X7yC/oSTxEH2lRySeWe/8+SYYQtxR7H088NxynzY/WgRYan5h17qw/mv5Vck0L4ezcaq31rETeMRsEixARONgQAAIABJREFUviwL5X+MUZ4bbV5g6s/ywydUjbM4rMT7xjpQNWGnjrP5bXFScAs+T1wfyBYdYztBPSRmX14wXrtCG6w8OIdMu8gGlttFftIYI9cD2Afl3r5cDYXJyuAK74Abw5WEUPyXfFj1jta01r9JS2PymtWfWy2dFKNZfuZ77npIWH3yPhwnRvxybogvkIsviUeRL2C0IbOfkyXo+cR3n/M5AsNx87mqS8/kOFz2UIsJpooQLVQ8e0MN+1kw+bDYvV7GgTiOe7/tom0yFvVJdVCoc4GA4sATHw8Vsl9shi2ZsZhwOaY9sTHoBB+ZHdAVdCdjexatPfH6W95sMRRFE/xjfRqjlq9H9/HkmKG7HS+Rj3QSxfscP7hJeP3+hYc3Ol7Mjf4MJ6LM2Vj1m65xw5kCj5hjKT2WMl45njpGRTw3DTNsiTnP5dPhINuTNxViXFPX3M6z+W3mSuDzoPUB+Hu9l/dL1vq56Nel78sLxquIw5rqo3NoYB0X+bli55G5ty9XNWI+aa/wHmJdfZgAtfLntbzfL+PBXlnvBBdkmpWvQS7klL2e0dTyfU0n9ud1sxxfyjy3ZShOrD1kwFLuO/k6srqeWTJjHnE5LZSGfGgJ8r5uBBxzhIrjcN1D7VIWorDJeb+XlzjMYcHFcwDOef/xthgfIUHfy59ZtK0YwgPE2mKvN15LLNQ0Txb40qekORSVXJRSu3GBOnEhyIX780PtPnhJQ8WBQnbFJ4JqQ6rHnHTPk2OGCe14KePDxrEch3F3LKazserH38Ij5gM9TDE3VVlDm5fxT2qLjYDIb9veYI0Yl+074+psftuclBiG8buvD6jn/VfqO4MT0LkvL+RfhzcH59DIugTcp7WwaWeDxwm5ty9XHRx1D6nwDhhQzSRZ1EZ7KGoP7waeNJ6P+5QTLiNdd+gM+vAbMvpAl8Rc6KI/Tq67L+334ULA39wUxxwJ5Dhc+FCrD2l0UFVJLRaiXKj1higUNjhpWgXXCmwh1xqAbVqP/oS5f7El/+q6qCfpVAtF8jEMzFjQvPAu/M9jksw4OMkS44Wkxg1yVGzsaUYntjT8yHeeHDP0apxlvOjFWt+TRUZ7jIVX/Po9+JE2eTRt5/fZWPWba+BB31xIGzQc8/NjH/zbvOxwqOUPu1TeSj/764Cct//d2fyucZJqVHCdcMPaQw8V8VM5eliIMYDLgPzUNclS9S61Gw9Z90e8T+K+vGRM1rUfm0MjPEGs5HrXsPPg3NuXq3WG+kdUeFfxD/JyHuIcua7rtoh9SsBoURN3LWPNCz3e1hly9/Uy/2RtTcPR/d1x0rl3ypzZ+It8aXJDdXUdkW4f1kX5iE4EHHMEiuNw6UOt2JBA4sUNKk/YvOkA57C4hXoqkp8lplG0zfgR8+MB2/j7BG4LyAnFIm2k1WY4FA/aYGmtajOmu9k918n1VbFgc+Whfke8QEfALP4Nh17Ukg16QUodl7jgyTHDIM4dyOf8UfyCDfllHcIMDAP2bGyItcrfcu7k2Gys+s1EPDJmDD+WiwnvgC/DSmzcUKvkReVx0zCDmzCe5fdOdaBpxg6dZ/PbzhWqN7GezlgfBE81XncAelDEvrygX9VybdgWcuOAHBpZx4NNygnTTsGpdo7lqO768H5frj40wpxW4V3vjwJeuVbiQZF/PRnl8NorD71RuZIjTRrNrU6d8UFi8cmzVH6Ju+44ufC+tNuHSyD+DCMcc+SR43DtQy37dEMc2FLh1YWZ37MFKo2PGyG10TXDWxWPNEa154UzbqSVbLHYNgs72JsXj6TPuACZeeFAP+FeYMQP+FwGx0KM2YgX10GfkomvieOAgIfCSE099ZYnxwxD2vFiLO4h3nRc1MbxBybGmJ0dmo1Vv7m2r+UGLEsMfSzf2rzMONRqTsm2/jpAM2a9n83vGif8Tz1E7Us1DuMin3X4/Vq942MBYTvGZmHfkrsvL9pP1Iz5QQ+HeF3Jls3OIeRtjSe0J8RKJjobmdaimG87rcFCQeNmX64aioa7bN7lQ2/1Jxygo8BP5YXaHyWzinmp54Pc6tOJMfFe3saPi3LtV7jujpMavqp9rXaKfGly078edftwBcAfYoNjjkRyHC5+qMXNJBzYIAnzmhUT7Q9+DZkvuLJQ00YH5qZDYNrwrEU1W0z5UKN4JNl8XLwWxYMd0ouhSm7RzxqEP9Ae5/7CL0YnkFThj/MDJulQuSdezEC4NAplwCLpVuMvcsuTY4ZJBXdCicWZFYfGuAJvY4zQtf1mNlb9Ftq+yljX0nAOpUublx0OtSK/LU6jfWKctvnY+7P5XeME0KAx8E5cpr8v37Q+IEeAQfE6uYbty4vMg7EIk3OJi5oM6M/rU20UtEu5Pet4WzaXd2zu7ctVC7PRPsRE711kzcQxRfz/sP1U8bDHlmvtB7LFlTl5gLrS4/W92n9cqKYqR9Jtf5xU4lf5OJaLFZlgnZKbDDYu+n0wJnvTRwg45ggbx+Hyh1p8cgh/F1EeXsOvHOedTLEYYiGFTQmbC0nauSkJBV4/5VNJPlY86GvM6lOacCDhC0U7vkudWNSBWL5pQPuZ78WhGuclCKMdH+EFc5Mg8pN0R/s6cW97P7eXJ8cMTSV3XIuxOId4U/FSbCRAhpprzuO6tl/PxqrfQuV7nMg3aHAtNnAKnzYvGw+1Rn5jbipejXH9GOw/8mx+1zgJHgOP4e/mqNZAa4wH+PVcVpOoPTUN1Ts7xvZHfV3ivrygXwmThvqjcyjZ1METxApxvWbnkbm3L1cNcj7oQhx43qjDjaqRpELOM/IizONy1SGTBKV3Q0bqsy6M8UKn7sd7ig9L4tltI3GC+POHeOXhc6128nwB3/fIiREfzsb7Kfodc2SS43D9Q23l7yLMxI6bmbQYxntRzMImiP9NyEp4pwU1P7Hnm+PR4hG0hQKc5dV+vKZmmamT7MzOh+mEE5AOL257scnbhFdcONInG2zDXvgbfVe21vw9sp0nxwy9JndJkcYQccow4aaDuKT3xCnFQOQgz0sKdr2YjVW/sXoTgzND7KcHKRpbFp/sE7+aTr0JqI2jnCJu8F3qSnOLvKiMSxOOvTib33auEBYxJxLP2E51T+YAxkBuizGRG/CTCSUrSjT/GS2y4sj3fXnReQE1pxaHeqwct8bXaA5lWtZ5krLbdgauDsq9fbnaP8ooT7BOyf2BxJTr5odfxDqtQQhu+ZXfsDbJeKE/HyDd9C5lcb103daJPlmHanUQJHEXeB+OE7XWw3yO20e5uDEnhn24AO53N8ExRwY5Djc41N497Nz+OyHAk+NOdp9hq2N1BurH6XR+j8N6RJPzMoLWuWOdq3Pxv4v2J8TJE3y4S7yQnY45IsFx8EMtRYe/OwK7/xuQz4aUF5Jne/qd3jm/1+TdebkmL5ZVzpWFirdpBJ4QJ0/wQfNy9XvHHBniOHzxodb+KieAAy/+VY5jA9vtOhZvqY0nh+zxO43Ad2J11fzU7Gy//05+t+M2W8L9efEcmh0j95b/PfFBPN0/p5ewbyZ//P0YBJ4QN3sgxXH44kPtHlC6jKchwJPjab7t7Y9jtTei15Ln/F6LD7LGeSEkrv/uXF2foytY+IQ4eYIPV4iFERscc0SL4xAOtdDgL8fAY8BjwGPAY8BjwGPAY8BjwGPAY8BjwGPgLjFADwP8k1pCwt8dAf+b2qEYgGLn/z0XAef3mtw6L9fkxbLKubJQ8TaNwBPi5Ak+aF6ufu+YI0McBz/UXj1q3b5DEeDJcajiGypzrG5I2oDJzu8AWAcOdV4OBHujKudqI4BfMv0JcfIEH+4Wbo45MsZx8EPt3aLY7Z2KAE+OqYoeINyxegCJDRec3wY4J3Y5LyeCP6jauRoE7EuHPyFOnuDD3cLPMUfGOA5+qL1bFLu9UxHgyTFV0QOEO1YPILHhgvPbAOfELuflRPAHVTtXg4B96fAnxMkTfLhb+DnmyBjHwQ+1d4tit3cqAjw5pip6gHDH6gEkNlxwfhvgnNjlvJwI/qBq52oQsC8d/oQ4eYIPdws/xxwZ4zhc9lD77/e1/Lx+l388yv79Lq+fn+X9xxuXJY/9t/y+8NfK9Jgw4++Nv/Ks5Upx8i7qBNDoxWX/vXM79r8Xbl7o5xNAuiFz5N/FJZ16TsAh6UIs0i15BRgk//fFK+hPOEkcWn1k2hXeeXLMsIe4o1j6+eE4ZT7sfrSIsBT8U2wn/Ckuufx9PZqNlW1tT1znmYR3kQdLC+vWv5MIeBpzSwXZiHRlzOP8Bw4VX6FWvJZfUQiTwKkXo/wS1lbshphNdSeafWg9X8He4pRzY/aX/545YWCFA/SVOTvO7Sgv7SBBXCx7zXmqzvB55LvFP8gK/XyCqQAaM1fmcLKhEk9Zv8IbjUjrOIzj8vvtqxpedOzLVSF+lwbtN60vhCPHaCHs4zoj+qrW7MRn4rses+DLHjlWdWVSx3CcGHtIzkXgVOwF5LqiOQ9uGTIFliu+D/uwIs+71xFwzBEjjsNlD7V48FMLPhVUnr1xscTkw2L3ehkH4jju/eaHupWgifqkOtjw5gKhiyguCLL/hwuwZMZi0ltAgk7wkdkBngTdSVel8IN+tTjsg9ff8k5y9Qam1bfCwcHdPDlmqG7HS4zfdILB+xw/eNh6/f6Fhzdr8WIuXDs6NRsr29SeuKaZgNdreb9fS8aQ+jTWOmbjuJCbqg7FTXdKNRK5+r6mU/Ndjl9VseOAUX6bsW3heGg911iuYy3zB8e3OW/FG8ZXytlY89vybDJHebGlUGuPX3FsYXNZ15N/tB6xNUriSfqt98jVyDres6522F/WCcu+/rZ9uerXOzJS8AIYsXVc7GdW8Kvr/JRPWXfBFoyvesyKGlTYW7fw7J6hOLFifTl/Xzrkw9mAP0S/Y45Echyue6iNG0e+SIaC9X4vL7ZQLiGZqfhRscPNRTobgN+hwL2XP3Goa0U2yJBPcq3RooiGAXKeWDAMn5LMUKjyYTi1GxeoEw82fBH+9FD7/tsDL2losIUtjry31cfHnXHNk2OG/na8xMWfBa6NVTmusDXEO+VF0btLw2ysbCMpx1WvldfURrkvphgY0ng+zsSxYgOfZ1536Az6sO4E7kWtM4VOaxzldzS2w/jD6nmJvcytsj98KpVqWAfnFD9mvPFDrVwjRgkc5aUtv8MvEmDmAnVy/6hN+gl88/WKRpXvZFPvumRwR0KBE8qhDvv77CPh6+/7crWu75MRTV44Zvx6SNEonzJuSlUkr+zJNWhNRjn3zJb+OOnzK+NAXsl5kvPO/CFRlfd+HyoCvHkYAcccIeM4XPhQqz95hKSETbpMTvw6DB0Gc7HTSR02MPBYnDYea+HDF8PGWK1Hf8IsikdzUSD/GspiV9Kp5CUfw7iMhZAo/M9jksw4OMkS44Wkxg1yxB9I5MGtvjzqrCueHDNs0DjLeNGLi74ni2rt1I8bzL03aFk6Xs3GSuvD+xyzot+I04y1hZduw/sCM5Vj3AbwH1+9Dw/6dOJh62X+qYXwefLNKL8Z72iYwi7VlNBN9Q7rQfrEUtRdxAvLtvxaYZJl8G7DYmOfa5Tdn+Mh22LL54c6LQtnID5937Ko6YD2UV5asuirvgn/5mD06yesw+XANf6hP+NZzs8tGWst0+RdxVmWA1cUZ3C9bn+ffVJD625frlqaPu9r8mLkY43/ugWf8El7Oktqlqd7MV6255iWO/u+O04EH3WrdN7IfYbaH3TnT10f9HT70BbjvQMIOOYIFsfh0odacWCFxItPzXnCpkUu+MaKnUh+trD1boLE/HjATpvYXHC5LWAC3Oev91rFI8+Vsas2d7JT3HGdXF8VCz5b+L8jXqAjYBY3+nqX1Orj9p18zZNjhimcO4SMxwvyATbkl3VgwnF5Q64t7Y8lPXPkfjZWti0sZvkAEdf0zYyMXciN9KkbTCyxNvFsLvhoQJBNnwZxm4rrTp1hI87johB0SMMov+3YpvoQ69/R9dzgW27O17gp+9MngMCGipMy3uJaEHI7x+UnRI7y0taBfuly3ZoT1hzDjzX+w7wuRcymsG7QmllZxwP2NEZbXtbClv1+qOX4IQ+6Ltbw4zPl9SCfgnMpCe+YPNU9bpsScNJtd04rbHDtof1CzgHAgfMWcGHrX7inXBzMnxpE3T7UBHj7MAKOOULGcbj2oTZu7iD3QvJSEqYNrC5u/J4tZml83Fix5K5GkSoeaZxqz0U0FhYluywetQ0NW7CTMvsCZOaChX7CvcAobuIIsiSJYyHGbMQrKcALLLa5yPLuVh8fd8Y1T44Z+tvxgvGbuaWDgI4ZYxwzNuCr4pB173Y5GyvbUJ7jbISI61gvOAbq0EGH2oS1yuskuZiXetgFyx3WWl4q3io6sWa8u/78odSxX8sov+3YBrsyTqJWJe40t/w+zxXftklz1/xW2Adz4KuplFuqv+CG21LqKnLOiBuq21vr3ygvpbW8xfYLbSw3y2Im/Jhjwo8f2jvWQi6ouOY2dfBuYJ1FwnziOLfCFfqY+zDv+M88yvGf3O3L1ScWrM+p+R3aeQ1VojR+qpvdDvJZ5B4TFS65PNm3V45JqfPvuuOkho1qD9zxh+OKR8H5h/mjUen2QU/0+48RcMwROo7DxQ+1uFDCxhOSMB/Q4kL1B7+GzA9OstiFovv+C3PF5lUluB1RbDHlA4zikWTzcfFaFA+2qSuGKrlFP2sAmUJnnPsLm4wEEmIhxtFCnvzfEy9mIFy2CmWrT4k5+pYnxwzdBXdCicWZFYfWOBJkjae+fd9nY2Vba/secl3FNdinXzkftBx9H7X3xGrPmCBO69D3Km8GaoKN1bbWUX7bsY220Bh4T6Uq1MXX8ju1nhtYi3qs++37bDPHFsfqWIP7HG95LaMHKrlWc1nr16O8tCWi7bZf7ZnkB80lbmuzoL/PZ2nT+jreqHnNHJJ6+u2reVi278tVKX+PFsvv0JbqaU2LxK82SsfJJj6DkrpesBtzDsf0xVvd8qN6+uOkEusqzjMOtgeS84pMmKrk2tKwtd+HlhTvG0HAMS9j7/KHWnwqD39fVh5ew6/20ooafFPFLmw2YWPL5kKSrhZrBCoUX/1jUSrJx4pH+XQYzcZ/qohvgNAC+/+lzljAYRPP8ED7me9iEweyd8QLsK7pbvXZLp7WOrtIlNxxV5EPEQch3vKnCTjaGBfFlJxz+ftez8aqZm3po1qUTcwo9ygfDAxVbgf9xoH17y35CBuErpqyplP34z3P6RomM9pH+W3HdrQQMH6dUc81trRhIy5r/TJeWInLkHfFGz/UwlSMWZHrWWLzapSXpjC9BjQGQ94Je5Xfa/yHPDEB1EqRizS0Yx3HmkBcRnlxHtncY//eubYvVxqnfe4lL7HmGPVsDb+6NfvwmfUreUyxjMHPc4yJPORyJE4w1vlDQaplVKt0rSldkJzT2tjOn1KKbBnxQc70u08RcMwROY7D9Q+1cfHXB1EzsYsFOhbotDrG5DcKdjWo0oKaP/WhRRLmyCJaStHFI4wIm4Esj3+Fq5RQtpg6yU7uK30yyz6x4rYXh9qIn1jYwyZU/XvBpUnpgAzBhS9eICMPZp8p7LRGnhwzjDC5S4o0TohlphQX6Ywx9mdOj13EZ2OVYDEuKP8Ji4wB5qSI4TQf8UE8EWs+jw4aGW/1ySnJ0fnbXU/aOtGnvDEJ6mJeC5vIjsnvo/y2Y5uMjTGsMCM+pZ+IV26L+ZEbgOzOh5RxbqpBOrfa3FCtpHijd4gfs8YHd3m8GWvFh9yO8kLI2+8WLrx281l6rBy3xn8dJ64DrlFPpjnqzQ027zovi68dr9tv1w1tX//9vlz16x0ZKXgpMIzrecC+jV9d52d8Uk2gXMt7QG0H2IixWMTghzlW92VOz3Cc0H6P1TO+lhU4KLMF59RXcC/zm4bV3od9qAny9m4EHHOEiuNwg0NtN78+0BHYjABPjs3CHi7AsXo2wc7vNfl1Xq7Ji2WVc2Wh4m0agSfEyRN80Lxc/d4xR4Y4Dn6ovXrUun2HIsCT41DFN1TmWN2QtAGTnd8BsA4c6rwcCPZGVc7VRgC/ZPoT4uQJPtwt3BxzZIzj8MWH2vg1OPb1DQCGXvyrHMcGutt1LN5SG08O2eN3GgHHSiNy1dzVdvbd34vfZ2HfYuhevFieOFcWKvdt+x4+Z3F0/5z2f6d2Vmy05D4hblr+9fZxHL74UNsLl4/7JgR4cnyT35/46lh9gtp95ji/1+TKebkmL5ZVzpWFirdpBJ4QJ0/wQfNy9XvHHBniOIRDLTT4yzHwGPAY8BjwGPAY8BjwGPAY8BjwGPAY8Bi4SwzQAwj/pJaQ8HdHYPGv0IwEARQ7/++5CDi/1+TWebkmL5ZVzpWFirdpBJ4QJ0/wQfNy9XvHHBniOPih9upR6/YdigBPjkMV31CZY3VD0gZMdn4HwDpwqPNyINgbVTlXGwH8kulPiJMn+HC3cHPMkTGOgx9q7xbFbu9UBHhyTFX0AOGO1QNIbLjg/DbAObHLeTkR/EHVztUgYF86/Alx8gQf7hZ+jjkyxnHwQ+3dotjtnYoAT46pih4g3LF6AIkNF5zfBjgndjkvJ4I/qNq5GgTsS4c/IU6e4MPdws8xR8Y4Dn6ovVsUu71TEeDJMVXRA4Q7Vg8gseGC89sA58Qu5+VE8AdVO1eDgH3p8CfEyRN8uFv4OebIGMfhsofaf7+v5ef1u/zjUfbvd3n9/CzvP964LHnsv+X3hb9WpseEGX9v/JVnLVeKk3dRJ4BGLy77753bsf+9cPNCP58A0g2ZI/8uLunUcwIOSRdikW7JK8Ag+b8vXkF/wknikNUjXtp26j/7nSfHDFuIO4qlnx+OU+bD7keLCOcCQ4rvyEHRv7NDs7Gqm9sT23k2YV7kwtLCu/VvLwJnxtxSQTYiXK3IDPzxeKBa8Vp+RSFUYifdnsfvJIceItZ5uQ+RztV9uDrT0uE4MfaQfPmhNQ/k4kuuK6GfTwDnDZkje4hhH84E/CG6HXMkkuNw2UMtJpjazNGmXSUjJCgmH240Xy/jQLwsC4x7v/mhbiWyoz6pDjamuUBk3SgLDxyy/4cLsGTGYtJbQIJO8JHZAdo/PdTug9ff8k6HZcRa+A0Ggu+v9/J+EV8r+J/QzZNjhvp2vMT4TSeYeHBK8YOHotfvX3h4I+MF+li+hJhi9xOcmY1V3WTEJcFCA0N8qQdhC+Lyfr+WIh7jwZTjCPwU40wsKzaQLWvvDZlZv46HNaH79p/H775+PE2a83IfRp2r+3B1pqVDcWLtIcM6J/edfF07Yl865MOZYD9It2OOZHIcrnuorWw4X+/38hKHOb6Zp40mb4sRHDaR7+XP3PhaUQ4yyk+F9Uh9SFlCccnz5Ca5sUkNhSoXJa2H36NOPNjkDfDnh9r33x54cQujLeyQu0Q+338NDKSIU+54cswwoB0vJTZhMRI4glXlOHwIxOPH4HRnh2ZjVTcX/e861FK+U/4LoQaONJ6PaxxACxv4vNa1KTM/LQe5eiPSEjej7zx+Z3jzHJnOy324dK7uw9WZlvbHyXX3pf0+nIn0s3Q75sgnx+HCh1p9SKNNukpqcRjMm119eEifYlqbVivOhVxrALZpPfoTZuhPB8/aRjaIIv/quqgn6VTyko9hYMaC5oV34X8ek2TGwUmWGC8kNW6Qo+JJYTgBGAeJhqSju3hyzNCtcZbxorHR92SR3R5iLTzwsftp9l7vs7Gq24n+FQdKI1Yz3hYmug3vU76SASrPsDmOTV/vGvxU3JQZJYc/vXiZf2pBJh3xfh6/R3h3Xx3Oy324c67uw9WZlnbHyYX3pd0+nAn0w3Q75kgox+HSh9rwdVX6VBY2gfETq7xR1Qdf3GiGza5IfnZgNDa+ZpyL+fSpSfn3CdwWkBMOFuyTtXBPu++wkeWfpnHN6rDOu9Q118n1pYNoGM+w4POF/2yM8PcDvEBHkBExIp+hXfiNOvmBl5t39jVPjhm2cO5APuePPoEFG/LLOizVMQzyYD6LwRl+gMzZWNXtZnHLB4nYprjL+IX8ELignIx15WvxjQMoqQ+yqVZRY+u9KRNrwREctkw8j9+WVd7nvNwnBpyr+3B1pqXdcSL2adfal3b7cCbQD9PtmCOhHIdrH2rZV3nFgS1tXvXmlt+zQ2IaT3/Xqf/uzoh0VTzSCNWeDhF0EBGb5nhooQPe6kY2b8CTPuNCHozQTzgkCozS132VAI6FGLMRL6Umb/I5JzAI77/5UAsJmF4iXgxsQrzpuDDGsVwJKMOnffxvbBU/e9zyQrKHvH4ZOqbiTBHbccHn+Bb5p3BUuZ3sKealHnbB8oe1Vi8bMkNNeb+7/vyhKn+HjvP43cH4B4twXu5DrnN1H67OtLQ7TmprlGo/Y1/a7cOZQD9Mt2OOhHIcLn6oxUMhHIAgSelsiH+3+lp+/+DXkPknn3KzS4c8cQhUG996jFc2qUbxaB3QcINKv4dckQlGKLl1uzImaUyc+wsHmQSS2rDHwQGTtNHfE69kDV6kTTv6DEFXvJIdau6Jtzw5ZpghYrFQYHFmxUw5TvIKgssxhbqNDbOxqptn+yYxwDFFzP3wT2O1HH0fLUixXLdIfo28MY66ajJ5+0BNILF7vp/H755ePE+W83IfTp2r+3B1pqX9cWLtB8r9Y3ufoT5sUQ/EBQ4Da1C/D0KD32xAwDFH8DgOlz/U4i/mwt+XlYfX8Ku96RAHzuGmNDWFDSIcpthcSNLOw1TYJOsfi1JJPlY86Osi6pO3aGfrcMzjvtTJNvDJedLFfC+K1454gQ9N3eRB5eBA3Se/8+SYYUrJHddiYBPiTcWLdWBVcYmHLP4giOvZ53o2Vi0rMTcbsW3ipnOihjeXW36NGez6e0tOgNfeuhL84ofX5Ki2B+/zg6o08JCLM/k9xMGbKnFe7kOcc3Ufrs60dCROrrovHfHhTKx5qxIAAAAgAElEQVSfpNsxRzY5Dtc/1MaDmN4wmomtD7XxXmwKYbPbeagNcKWDcf6kkR8+24cU/UQsplPYcGd5o18TNXWSnexgCdoIJyAdXtz24iHAJrziBjx9Iis3/dHz9OBB2pF7z77iyTHDFpO7pEhjiJxlSu1PvQnLcLBK+Guuk5LdLmZjtWZoK7YDFhk4Joo/6daHSBjG++M06wCqc3ikpoBYQyb6Yx2o5z6cYOCIy7P5Fcb4TULAeUlQXP7Cubo8RZcwcDhOaL9XWe/b+4w5+9JhHy6B/L2NcMyRP47DDQ619w46t/5eCPDkuJflx1vrWB2P+ZEand8j0e7X5bz0Y3X2SOfqbAbuof8JcfIEH+4RLdlKxxyx4Dj4oTbHh185Aif+ou/9wOeF5H7Wu8VrCDi/awid0++8nIP7J1qdq09Q+745T4iTJ/hwt8hzzJExjsMXH2rtr3ICOPCir3QeH+Ru1/GYZ408OXKrX1kIOFYWKlfNX8vWdpvz28bnrF7n5Szkx/U6V+OYfeOMJ8TJE3y4W+w55sgYx+GLD7V3C1+39wgEeHIcoe/OOhyrO7O3brvzu47RGSOclzNQ/0ync/UZbt826wlx8gQf7hZ3jjkyxnEIh1po8Jdj4DHgMeAx4DHgMeAx4DHgMeAx4DHgMeAxcJcYoAcS/kktIeHvjsCy+N/UDkQBFDv/77kIOL/X5NZ5uSYvllXOlYWKt2kEnhAnT/BB83L1e8ccGeI4+KH26lHr9h2KAE+OQxXfUJljdUPSBkx2fgfAOnCo83Ig2BtVOVcbAfyS6U+Ikyf4cLdwc8yRMY6DH2rvFsVu71QEeHJMVfQA4Y7VA0hsuOD8NsA5sct5ORH8QdXO1SBgXzr8CXHyBB/uFn6OOTLGcfBD7d2i2O2digBPjqmKHiDcsXoAiQ0XnN8GOCd2OS8ngj+o2rkaBOxLhz8hTp7gw93CzzFHxjgOfqi9WxS7vVMR4MkxVdEDhDtWDyCx4YLz2wDnxC7n5UTwB1U7V4OAfenwJ8TJE3y4W/g55sgYx+Gyh9p/v6/l5/W7/ONR9u93ef38LO8/3rgseey/5feFv1amx4QZf2/8lWctV4qTd1EngEYvLvvvndux/71w80I/nwDSDZkj/y4u6dRzAg5JF2KRbskrwCD5vy9eQX/CieOQ9RCGP4VhZOC572DfzP+Iu4TDzwpOoh8tI5w1/wvFd+DgtfyK5Nnfq9lY1S3uie08mzAvQ86Iy4R369+bjZypPC7lZxvwakVm4I/HA9WK+VxqS+H+PH6zNcSdlS+57ufxVFs1F3ls5lyPCVIoh1KNJA5ynTfnMRNmX+7Py0XyKUD9CnFX1LYqqJnPMkZW8g1kEt9x3dqb2/25qgKxW0fIOQYErTeEL+tCnaoO5v3FiklV7C1Oy30fSacaUdhFA27wPhwnGnO1LyZMiLOftK4hGJrj0GrI7M/Da6wXN6B6VxOH42ZX7dcRxnG47KEWNydqM0dFUFUvSFBMPiyGr5dxIA7r18/yfvND3QopUZ9UBwtl3nhm3SgLFwDZLw5wlsxYTHoLSNAJPjI7QHvQnYzt2ajsidff8mYbQVk0K7aswH9GN0+OGfrb8RL5SKdRvM/xg5u01+9feHgj4iXEFcuXcJ/jcIYvs7Gq21yJJ/CZxSDOB8xey/v9WjKOJFnjDXvcn3JcyE+GbZhOXMQnBxp/UlF7N2Vqvkv7auJmtJ/Hb/ammS8WhoGHksMsJ2LavUZs5Dm7stvV/rwgJmnpIEtPySejtpE95nuZI905HNfd7Ldcw0x1g437czVowAfDBX6AEaupen+DDwVkbYQxYm2ybGhiX3JKDx9Kua36bim+ZttQnMQal+MWfAIc8nqf6x36q3kTHIfp+IGPkBk5KjG3MRzywRbhrYMIOOYIGMfhuofapSxsIVHf7+XFkheTmYoqLc5Y6NLZAPwOCfpe/syF2ook3MyIJDeG6eKB9uSnirJ4lD4lkaFQ5aKU2o0L1ImLP9+of3qoff/tgZc0NNiSFkPiRY654h1Pjhn2teOljA+JI1nUM87glKbv9D4bq7qZlXiycpvaKP+F0BLHsHlKcRsHh7lUY2Jbka8Vm4Q+dmPJhO7QjvVDb0TY7EMuz+M3uzeaL2H8nmvEVp6zK7td7c9LJXYpd7jl1LZ3PiUdRk6mPuvCGE828uFWvlltfM4O1/tztYNRKyIgh/i+QgwXmPXtkcR8uhFyqJHeDU6hq8jF2Ab1Osjr2z+Rliu998dJH+btuqkf3lbwrmFeAa7fh4oAbx5GwDFHyDgOFz7U6k8eaZOukloUOkxOOIjqpE4HPmvBs0JJyLUGYJvWoz9hFgtEs5CTf3Vd1JN0KnnJxzAwY0HzwrvwP49JMuPgJEuMF5IaN8hRfsKHeiDw8KUOCA1JR3fx5JihW+Ms4wVx0rjle7JIj7MWfJUnNHXH99lY1U3NcSvGGLGa8TYwKx6c4ZhiQ6fyDHSG/BCHX0u+sE7eGDJpAMp+mX9qQWOOeD+P3+xd5i+2KdxSnQrdVENV7ItanmNHy06yWBxt5jm7stvV/rxkTISRDAdqz5hZ8a7b8L4nn0j+UuRk7rGvtuiM9v3MW4/258pGYc9W4LjgjBTwXAq5+OlBsoW95jQpX97G12xxfazNobnXfu+OE45/w6Wcp3GQqpuCY9UnxVJNla3WXbcP1mRv+wgBxxxh4zhc+lArnsxB4sVNJE/YtBEJvmFhC5+uiuRniWks1GY0iflxE5sOZbmQc1tATigWbLNbFo88V+pVGzHZKe64Tq6vigWfLfzfES/QETCLB9fGR9zBTvFpOzfw3GueHDMs4dwhZD/sK7PIB9iQX9aGy17AQyykua/l9crfGJjhy2ys6jazuOWDRGzTp54Zv9oBJWNNf8bAhZZyoLeUVT5IU1Lk7epGgseFnHrU3Xn8Zg/b+UI1J9bUCWvEZp6zK7td7c/L+fmUwbFrW+7XVzj+kxwmSblu5lpBfVvf9+dqq0Xr8wMe5vqtuFF7pHXJ5Qgbe6UnTVN7JFVDrVxNUy9+0R0nCvPgc1rz895yrW4KjgOOea6ESmEuO8Vdtw9ilt9sQcAxR/Q4Dtc+1Ia/E2BfxaNCmzavWPyomZ7y4j1LxjQ+boLYobMaUKp4pHGqPRfleBBRssviUVs4wd5aX9IeLmTBQj/haWUocAkMjU2UwbGIT8V3wUuaiLZUD66MGzXv7FueHDNsaceLsZiHeNNxYYwrjJ2P8WysCpdSQ09sGwdPtQmiepE+CVe5ndXBD9RJDsoNVA8nSSIYV8ikXqwZ7+JTCeo/6v08frOH7XyBcTnORf1LdU7HCr/Pc8XXztNcI4aGP0nMvux1tT8vHBNmJcMBWouYL2JY5cBAPmWtSkbuqFyp8R/pRNHBP5XnFaXdzftz1a3644FYf/jPXaKo0M73NzWsP9AssVecJnksX7viMU28/EV3nNQwV+1rdVNwXOQxhwswl2sf7+XX3T7wSX69CQHHHOHjOFz8UJs//YAkTOe1sJF5Lb9/sDHkT5iwGNI42uTAXLFx5YW5GlKygKZhRvFIstOgfCGKB9uA5RHxSskt+lmD8Afa49xf+MVocr6y+ZIbkz3xYgbCZatQtvqUmKNveXLM0F1wJ5RYi7kVh9Y4ISjFRLk1UeM23M7Gqm6a7b8V22CjfuV81XL0fbTAitciX3FuSr+68dhjyYQe3l7oWBO6b/95/GY/2vmC42gMvGf842Zs6xpRcDDIc3Zlt6v9ebHj/tB8SujYtqTu4kKP1/dxAs+rQgY14NwcQ9T++fv+XH1uS+9MyKO8j8BZoa3YN1lrU68WPY5jX+FQ5CKO0bUd7nN91zque98fJxXMBTZ531zzWHJckQmTldyaPGjv96ElxftGEHDMES2Ow+UPtfgEHf6+rDy8hl85FisQL4y0QYRNLZsLSVoUZzuMwqKu/oZDJzkUh1YRlcUjPu3WT77CgtuWwy0sdbICz/BA+5nvxaF6R7zAh4ruv7d80hcw6eSA+33ENU+OGfpK7rgW5EPEU1hUJH7FJ4xcRLjGRUrIKcZsb5iNVcvC1dg2caP8o5yo4U390QJzQ6w2AgOLf5BqytT24L3eYLZw2bPvTH7Jj3a+xFGhps9aIzbyTI7s+D6Dl/PziQDSOUDttXdjvJWLRr6Bz6JGVmpGTXNP+wyuevRuGRPW57SWxxpUWa8xbuT6VOBqGFOMEdgbnAb+2B5JjM8K0B5Vv3P3Za9G4gR95A/wysPnWt2UHNO6KHnEB6wM8xX0RnxYEeXdnQg45ggUx+H6h9p4ENMHUTOxxddpwdlYkFOBjslfKdBmHMViCqDRiy+Eo8Uj6AgFOcv70Ydc05DcaOokO7mv4VyP/+6fZTvhk6dswSvOTTixAqn9HcE/u33IFU+OGQpN7pIijSHGSOYHN9jEJb2HeCT+I/48RpP4nS9mY7VmLtUAgUOcpBftLIsfUhBviRXvj7MCtiyeSZjA3Oincda7IdPckEUdOQYsYXPazuYXvGrnC/kd80LVFYoPiR1yntv+t3ctxo6rMDR1paDUc6tJM1uMd4QQSOJjSIyNid5MXmwD+pwjYSlO7vqcixfw6QSX9Q3PZOKB76N4IbyuyafK3lbF7psc9tzn7llVne2Do7hqt6B/ptg79b2bsGL5ouNG12p5C2rY6zG4D8r9VdgoFGT2bzE+50l3nIg9CesEfh/b2zez+CVcS8z3kOv2YU+gje8iYJgjRByHGzS1u7zaBEPgMAR4chwmdFFBhtWixHq3jN85+TVe5uQlZ5VxlUPFrmkEVoiTFXzQvMx+bpgjQxwHa2pnj1qz71QEeHKcqviGygyrG5LWYbLx2wHWiVONlxPB/lKVcfUlgD+yfIU4WcGHu4WbYY6McRx+uKnNf90JwIEX/yrHuYFudp2Lt9TGk0OO2JlGwLDSiMD5rPmbs7V+zfit43PV6G/xcu98+i2ueEbcmzfuyRnHK8TJCj6cwfWROgxzRJPj8MNN7ZGhZbJWQYAnxyo+jfLDsBqF7Bxyjd85eNBWGC8akXnPjat5uZnJshXiZAUfZoqJFlsMc0SJ4+CaWrhgL8PAYsBiwGLAYsBiwGLAYsBiwGLAYsBiwGLgLjFAHwLYk1pCwt4NAfu31rpiADY7+29dBIzfObk1XubkJWeVcZVDxa5pBFaIkxV80LzMfm6YI0McB2tqZ49as+9UBHhynKr4hsoMqxuS1mGy8dsB1olTjZcTwf5SlXH1JYA/snyFOFnBh7uFm2GOjHEcrKm9WxSbvUMR4MkxVNECwg2rBUisuGD8VsC5cMh4uRD8TtXGVSdgPzp9hThZwYe7hZ9hjoxxHKypvVsUm71DEeDJMVTRAsINqwVIrLhg/FbAuXDIeLkQ/E7VxlUnYD86fYU4WcGHu4WfYY6McRysqb1bFJu9QxHgyTFU0QLCDasFSKy4YPxWwLlwyHi5EPxO1cZVJ2A/On2FOFnBh7uFn2GOjHEcpm1q//09t8fzb/vHo+zf3/Z8PLbXm1/ctjj33/b3xL9Wpue4Fe8X/pVnLVeKk2deJ4BGLy77/YrXcfy1cfPcOF8A0jMye/5dXNKp1zgcgi7EIpySV4BB8P9YvJz+gJPEAd1+Bgwfj+f2J8glA69958kxwhLijmLp8eA4RT7y4z7WA8YqF1RcJdwf7NBorPLmtsR1XEl4p1jUsK79G4uer4+wrumEf+IW9iceD7RXXJMr1/AbuYMj4i+XD3HfZ2s8L5rvODdyoOc4KYV7BO1tes9lmk87PJ6XSXLKhTveI7pxVvmI97iGPCa+/Z6ajYkvmD2eqy+M6Vzqco8BQjlAuciGUHKWgwalexwU5RbitkHlbFO640Rjouri2r4JvmtuHR4ZmT152O3DbCTc0B7DHEnjOEzb1GLjp4o52vzUbgoJismHm9zzmWmIfSK/Xryp24lir0+qgxtlLDyjbpSFG78cf3ABOZl+M2ndQJxO8JHZAdqd7qCrsOGDftXUHoPXe3sFuemm6Wxj4zvIXzbMk2OEEfV48fEbun08D/EDccIwlLGGBVyIIRdnKn8Odmg0VnlzW+KaVgImz+31em4BQxraNNZpzLqpLjc1jp9ivadT8Z2xMZh/wsE1/ErHqvmS48bvr5rvKMdz0HyPIK7f7gPTkF/SzFPPjucFMQm3DvJG3CvCxcE59QHOmb0O9kbBVS5W3DX+waC8h5HH37wfz9U31vSthZwJeQRYFe899IGc3CcTDnLq9ziocluI25yeya91xYnf42S+wj4l604e/7JWyNzrcjI9N1xODcYuH2qCbKwZAcMcoeI4zNvUZgo6V5i8XtuTJe+2YeGKfQBtcvyajw+XoK/tDcnLNudy9GAxIzeOdHYslmhMrhM3hoxPtCr7lCYMygPUiTf/cNP5oql9vY/AS9roNtGAc0a+nD7NGU+OEUbV48UX3KGp5d9CyFjjYtoXEu6mFG9qm4+1vfjNSG2+NBqrvCGU42o0l9d0jXJfLEmxdjkYYtZP5hjT+o+xbtDp9GGhrQsRUn/W+zX8Su9688XNH3KPyHAnTT3t7HheJsipgF4vzvJ+G8Tog1we567pdV+eH8/VlwZ1LIdc4vWFWCqwa+RACPAnQo6esCe3ELdazA3O2+NkDxN0tr5v6qa2knPJva4MZrsPZRk20oeAYY54cRwmbmr1k0dIZijgVVKLpIubnE5qVyBChU+F7l7sCLnlyVqPfsIsbgy7G7j8pLOkNehU8oKPbmHEQsgR/sc5QaafHGSJ+UJS5QQ5Cp/weTuf/qvhEIDFm2VF6hlDPDlG6NM4y3jRNxd9rixiMer4Eg3Zzlol6pPT0VjlbYoxK8YzcRqxzmGhr+F5Epcqx0Dn51i36UT5z+xPLYTPg0+u4Vc6FTn01xUfYZ9ywyPvEZo7aeeZZ8fzgr4lH4CdmFMRv06cXTzwD/OiJHGk4gbHUNfIn8Icz5XwaugJ5F6yH5JGdu/Be1gDB7RWvFc42OW2ELdC/j1OmuOE415xbW/fFNxmc4OE055K5+X3Zh/KImykEwHDHAHjOEzd1Iqnl5B4vmjnCSuLGrbJieRniZm5UWfjSKz3hWz4LWPcwLktIMdtFqy5SDePuFbqxUYwKSzkJHfGdXJ9RSy4DOH/gXiBDoeZ/40xd8RdZw2720T51764gdce8+QYYQnnDiF7sG8O0A2e/06b4SYMwrn0wQE2QvI36FqXWH7AyWis8iaymOUTRFy7znN7st9tp/ikWBOWXKz80AFHUlmY99n1Ulj4zT9gB6/8GtwL2r5RIhQcenINv9IFHcN8v3Mz3d7i99Sh9wiZb9LKc8+O5+X6nIoIduLM+Y9C0qNK4e5iyuVjaa9NxbVeOZ6rVs3fz3O48Pt4EKk4auUgrE8Pshzsyi3EbSp++ivNcaIwcfeiSerSZh+mZ+M+BhrmyBXHYe6m1n21mH0VjzZYSGzXOOpNjZ+zJjHM940XazqL4as2jzBPXY+bsW9ElGxxY6jcWOXXqIO27AHIjMUw+gnnboMjjEpfP+VYiDlf4qUsxc3WF5sKM/pqbPRBLb7wlCfHCDPq8aKKBTDAYZcWW04Oi7W00crIOtih0VjlzeU5zmaIuM48TU1yT+GTxKiXnazLyK79rICZmMR9QSfuGa/tpf74hxB1wsk1/ErH6vkCc+O+Jfa/EA86Xvh5XCu+wRPWcltUvPChk4+P54VjwpxROCR7TJIbCqNCfOc+KIpalYw4kD8q6dCzE1v1BPrgOt1r05ntV47nql33tzNxH+J/9hIl6nuPePjwpVKsGzwHu9wW4vZLG65Y3hwnJUzU9b19U3BbzQ3YI9tyotmHKwBeVKdhjsRyHCZvauMTEEjC0K/R72jf8NeQ+ZNPuclRkQNrQwMFyc+agXKss4KHT8psHkE2n+ePxebBCrBkqpKbjLMLwh+47tf+wV+MDiDliwNZmByJFzMQDvlGyY/dtLxtSsIlpzw5RhiQcCeU5HBJ49DFlI7hJH4kt0LNQSejscqbmcNIN5o4B+zTr5irWo4+99qT2I35Fss9XBtSL284JIX6Y0P6XOVNwmlR8JCBa/iVrtTzBefSHHiPHPhi7LB7RIYraeppZ8fzkvctd6/Q+QTnh+RUQC9vSxhODtL9MZkCF3J5nExE3TGGkgndF47nqtuEjxe4+4wCw13T955aXdOtnXOwxy2f261oqgXtcVLARN0raE8sOSm5LciExUpuSR5cb/ehJsXGehAwzBEtjsP0TS1+gg6/L0ubV/dXe8WmqzY5dyODwpathSRNNuV8GOGnhrxQSpO8b/MofBrs7YzFQd4euprqRL+B2NjUki7me3LzORAv8IFxgdiRbtQT/HMbZdunf+TzWe88OUboTLnjWhROMCSw8jxn41fdmDpuRtyCnuPRWJVskbHlQJJPNQVmUYpcV8KaYtavyxbDn2K9p1OPe75ZXkVvxh9dxS/3rJ4vfibw/Rx9j9DccCvPPR7Bi8wN8CcX4+meLddlMMrtQ9mcIgwzMmio8I42SNvgWrjfwLqMzmROYd8oqG26PIKrJsUHTILci/WE34uy9x6qNXY4yNi0x0GdW7Tpou0x483nl3riBDGZry7t8eFzpGwlR8AwRzQ4DvM3tf7mqhvRbGKLr9OCs34j5rueK4Dkbw95kCTH7mYon/jwm+Ve0SVvDF66u3lymfJmkNigLmR1kp3cV3cv5/82LP9UHYTqm8I3ePm14emY8ons8+PKTOXhdac8OUZYkeUuKNIYYowErJK48TFEEwTGCv+g47iD0VjVLKX8BxvgpXMyFmNcCi/UEWu+LinkYanDNIPlR1jXdaJPuaZaFTDcpYHHV/JLbtXzJcxyH2qMuUdgzFCc0buMG7LjnPdRvFybU9/hrG3XsZDPY73fZvL8S0pHcfWlWU3LRe2yd+/J1BoJB1mt+xyUudVr4V5wPIdZsw++2B0n4v6TvwfW9ijBLfmScNyHZbcPpNfeP0bAMEfoOA43aGo/5tsWGgLdCPDk6F78YwsMq7UJN37n5Nd4mZOXnFXGVQ4Vu6YRWCFOVvBB8zL7uWGODHEcrKmdPWrNvlMR4MlxquIbKjOsbkhah8nGbwdYJ041Xk4E+0tVxtWXAP7I8hXiZAUf7hZuhjkyxnH44aY2/3UnAAdeta9ujA18s2ssvnXpPDnqM23UsNIxMGvuajvbzo3fNpzOnvVbvNw7p36Lq1wm3Ju/nEcjrq0QJyv4MILbkTINc0SX4/DDTe3IUDPZd0WAJ8ddfTjLbsPqLKSv0WP8XoP7nlbjZQ+hecaNq3m4mNmSFeJkBR9mjpGcbYY5osJxcE0tXLCXYWAxYDFgMWAxYDFgMWAxYDFgMWAxYDFgMXCXGKCm357UEhL2bgjYv7XWFQOw2dl/6yJg/M7JrfEyJy85q4yrHCp2TSOwQpys4IPmZfZzwxwZ4jhYUzt71Jp9pyLAk+NUxTdUZljdkLQOk43fDrBOnGq8nAj2l6qMqy8B/JHlK8TJCj7cLdwMc2SM42BN7d2i2OwdigBPjqGKFhBuWC1AYsUF47cCzoVDxsuF4HeqNq46AfvR6SvEyQo+3C38DHNkjONgTe3dotjsHYoAT46hihYQblgtQGLFBeO3As6FQ8bLheB3qjauOgH70ekrxMkKPtwt/AxzZIzjYE3t3aLY7B2KAE+OoYoWEG5YLUBixQXjtwLOhUPGy4Xgd6o2rjoB+9HpK8TJCj7cLfwMc2SM4zBtU/vv77k9nn/bPx5l//625+Oxvd784rbFuf+2vyf+tTI9x614v/CvPGu5Upw88zoBNHpx2e9XvI7jr42b58b5ApCekdnz7+KSTr3G4RB0IRbhlLwCDIL/x+Ll9AecGA6EexgjzNgcsu/id54cI0wh7iiWHg+OQeQjP+5jneGo+SUOdGyM8GU0VtHmlliOswljjc221fCt/XuKniOVt6n8aEM8+lKnyp02nVH7N0fn8fuNlb+31ni5D+fG1X24utLS7jhR9yJYz+8NdA+E6/jidca2uXG+AJzPyOypI7p9uBLwRXQb5kgkx2HaphYT7Ln98a6WCjyVjJCgmHxYQD6fmYZ4w0R+vXhTtxPZXp9UB8Vv3CCibpSFTYUcf3ABOZl+M2ndQJxO8JHZAdo/bWqPweu9vUKzXNg0GdzZTZWNX3XIk2OEDfV48fEbgt43RBQ/ECcMYxlr2JQ9/97ug53WWPrGx9FYRdsQB4IhXIdcYnjgdcDhub1ez03knRvU+Bbi1OWj2ns2wtdvSC6P9ZxgGTv4QqffF6LfMseYkiGH5/E7xPxlhRov96HWuLoPV1da2hUnuRrS3Z9k3clrAFkrZO57OZmddWmXD1eCvZBuwxzJ5DjM29T6pyo8MV1D8HptT9HMYRGLfQAVv/yaj2CXoK/tnS2Ec1GORWwsKHNzcHPgNm6++KV1snlLC9wg1W0qcVMK1zMH2Bhh88IL90+b2tf7CLykoc6WpOHwc7JNg1x/1RlPjhE26KZWxksaH/04pjJG+AEyR2MV7aa8jlfcUS6X6Rrlu1iSwYbm83m5+Ezys2ATl+OOv9CZsyORP+7CefyO82FFycbLfVg1ru7D1ZWWtsfJvHVpuw9XIr2WbsMc+eQ4TNzU6ieP1HippBbFZiw0dfMQGr5cEZuLcyE3NwGvaT36CTOMh8azWqSSf2VdNBJ0KnnBRzcxYkHr3LvwP84JMv3kIEvMF5IqJ8iRbPbjdIFJvDzFEU+OEQZpnGW86AZInyuLsjG6s0aJ+OZ0NFbRthin8Zr76kXypDbim8NBX8PzkJ8kXOUVXE4/XNCyaLF+1/PadcavS7c8EdZ6vz8/j9/vbf0lCcbLfdg2ru7D1ZWWNsdJ9p6fWh7vg35M3dNEDabGpLT2urTZB6nAzr5AwDBH8DgOUze1G09gSDz/5I8nbGi+nG9YMLqnpHyteyoaRpMAACAASURBVHrqC0O4XnqCyINLrPdFbeb3CdwWWO42CyY/3TxKT2NVs85tUcdcJ9dXxIKvF/4fiBc6H353nDQKwYZ2P8OSEw94coxQy7kD+Zy/2MTQ72DgvdTQ6GaJrC1dp/Hj3kdjFS1lcRovAngyl9XNudSIgt30yn7wouSAylRW7lsa3Dg6RttJH7y36iQJLkaczaVYoJnHvoOt9t98CBgv83FSssi4KiFj1zkCzXEycV3a7AN33I6/QsAwR/g4DnM3teyrvKJhC8WsLnb5OWuewvz8051sVKnNI8xR12PB6Qtl1tDCGjdO30XOFMtBLm+848XsEciMhTH6CecCI//1bVIdBHEsxJwv8QoK8MDZIr4mzq4rjNTSS095cowwpB4vGL+RWx+vmcbWycnimJExwpEJv36cNJ5JvilsVC4HmJJ1uaZWyQqL9YGa16EzkQR/PC8TC3reUeejc+EoO39NjvFyH8aNq/twdaWlzXFSun+o6/U6Y0xd2uzDlUAvptswR0I5DpM3tfFpCCRpbNCgAXtuf2/4a8j8yScWkDSPmjxYGxoFSP5sM6CjnTV5fCizeQTZfJ4/dpsLGcSa9GSqkpuMswvCH7ju1/5B0Rt0qWLar5eF/5F4MQPhMNMYyN+PqvmTnPLkGGFSwp1QkuMsjUMXU8UYzskQSg47GY1VNDTvUy6WwSb9ivmp5ehzrzEXu0l+4tqQbtFYdaR16POKTiWJnuTv60wWfnThPH4/Mu9nFxkv96HeuLoPV1da2h4naT3g7Fb3p3qdoZrag+rSdh+uRHot3YY58slxmL6pxa8YPrPNq/urvaLCU4WmK06hyGWNLyR/sSGQAe+KZvWn0qmBpH+2p2/zoK8xq68Rejtj8S3t0GepTvQbiI1NLelivieb14F4gQ+MC8SO687Zoz27/pwnxwhrUu64lkzD425WFC+e52r8ZmRwFQcej8aKm5rGk7q5C5ziSrkug40qBtzKXFOrcye3LqplR5/rBNvFnlDwkSk79PBMfg81fHFhxst9CDau7sPVlZb2xAne0/hDnvhg48q6tMeHK7FeSbdhjmxyHOZvan0xqRvRbGKLr9OCs74JYM1W8ju8vQgPjXF8AsQLzXqToj8R88pccRrl9X6lMKuT7OS+0m8B2dMrbjvhE5d8g5dfG3RRI0YAYxMi9dPYPO88OUZYleUuKNIYYowEfpK48THkJiC+YD9/jcR7NFYBFn9AOU/+cd8AV/6BTlzLm1/El6/Lfnsg29TStw8IXx3fUaM8+kanjodWndKCT8/O5vdTO39tnfFyH8aNq/twdaWl3XFC9R673/P7Wr3OGFOXdvtwJeCL6DbMkUiOww2a2kWiz9y4BQI8OW5h8IVGGlYXgn+CauP3BJA/UGG8fADaRUuMq4uAv5naFeJkBR9uFjbuAcbdbB5hL489a2pHIGwyb4sAT47bOnGS4YbVSUBfpMb4vQj4HbXGyw5AEw0bVxORMbEpK8TJCj5MHCJZ0wxzhIXj8MNNbf7rmgAOvPhXObLRNOyi2TUM2gbBPDkapv/0FMMK6J81X78PTeP3ewxHSDBeRqA6RqZxNQbX1aSuECcr+HC3uDLMkTGOww83tXcLX7P3DAR4cpyh7846DKs7s7dvu/G7j9EVM4yXK1D/TKdx9Rluv7ZqhThZwYe7xZ1hjoxxHFxTCxfsZRhYDFgMWAxYDFgMWAxYDFgMWAxYDFgMWAzcJQboAwl7UktI2LshsG32w/uOKIDNzv5bFwHjd05ujZc5eclZZVzlULFrGoEV4mQFHzQvs58b5sgQx8Ga2tmj1uw7FQGeHKcqvqEyw+qGpHWYbPx2gHXiVOPlRLC/VGVcfQngjyxfIU5W8OFu4WaYI2McB2tq7xbFZu9QBHhyDFW0gHDDagESKy4YvxVwLhwyXi4Ev1O1cdUJ2I9OXyFOVvDhbuFnmCNjHAdrau8WxWbvUAR4cgxVtIBww2oBEisuGL8VcC4cMl4uBL9TtXHVCdiPTl8hTlbw4W7hZ5gjYxwHa2rvFsVm71AEeHIMVbSAcMNqARIrLhi/FXAuHDJeLgS/U7Vx1QnYj05fIU5W8OFu4WeYI2Mch2mb2n9/z+3x/Nv+8Sj797c9H4/t9eYXty3O/bf9PfGvlek5bsX7hX/lWcuV4uSZ1wmg0YvLfr/idRx/bdw8N84XgPSMzJ5/F5d06jUOh6ALsQin5BVgEPw/Fi+nP+AkcdgI+8v/HWACIv/OkyM/47urxB3F0uPBcYp85Md9rAeMZS5I/OXYd1bnV4/GKmptieU4mzBOYn+r4Vv792Y9RypvU/nRhuRIrcUcbNCp8qZLZ2JE34Xz+O2z69dnGy/3iQDj6j5cXWlpd5zo+4mqi+keCHLxxeuMbXPj+maSkalrzBpG3T7UhNlYEwKGOcLEcZi2qcXG77n98a6WCjyVjJCgmHxYtD6fmYZ4w0R+vXhTtxM3Xp9UB4Vo3CCibpSFjYUcf3ABOZl+M2ndQJxO8JHZAdo/bWqPweu9vUKzrDdNwIxx6fxl5zs0nDnMk2OE3nq8+PgNQe+bMIofwI1hLGKtNjbCkVP/UjTiQDAEdyCXGB54HWPt9XpuIu/coMZXx6mXnI1PbEBDjro8bozhzFzgLsgCtTmd7hr/cELmmLd22NvoXBhm+OKCjZf7EGxc3YerKy3tipNcDbldX5d2+XAl2AvpNsyRTI7DvE2tf6rCCz/XELxe21M0c7xhouKXX/MR7ArE1/bOFsK5KMciNimk1VTdpGxuc4mFKIzH4jotqoM4t1HFZjhczxygzjc+lWYGftrUvt5H4CUNdbZQw0HYhykZfWHs2gOeHCMsqcdLGh8CR21QrhGiObUxmvPl+2isonmU1/GKO8rlMl1LYg5WpPi6bxBQnJL4HHZJfhZsIhnhvW0fKTe1jY1z0HfcwXn8HmfzL0gyXu7DsnF1H66utLQ9TtruJ/U6Q3+Ym7kvEhjJfY8G0vd2H9K1duUzBAxzxI3jMHFTq588UiOkklokXSw0dVKHho+K3r0YEnLLk7UeXZzCeGhqc8VyEE3+hQvFg6BTyQs+upURCyFI+B/nBJl+cpAl5gtJlRPkSH8ggU+WKxtoReJZQzw5RujUOMt40djoc2VRLUZrY0rMp6ejsYp2xTiN19xXL5IntRHfHHb6Gp6H/CThKq/gcvrhgpZFi9W7k9XwYVVGJzXhD/4tByV+5Ol5/I70Yj3Zxst9ODWu7sPVlZY2x0njfT3eB71X6v4C4+G+p8YkDu11abMPUoGdfYGAYY7gcRymbmrxd5i+IITE809UeMKG5sv5hoWme3gpkp8lJlzXT2ZyQSXW+6I28/sEbguIcZsFk59uHqUCFxtB9uA1Z5W7xnVyfUUsuCTh/4F4ofPhd8dhw2S6na2AIcOHDU9xyJNjhEGcO5DP+YtNDP0OBt5LT+pqTVVt7DivRmMVLWVxGi8CeDKW1M251IiC3fTiH7wE0UoOXE9lIXfZ9UGQb7zFN0v4IDvO6KTRkDfFWKCZx76fx++xdq8uzXi5D8PG1X24utLS5jiZuC5t9uFKoBfTbZgjoRyHuZta9lVe0bCFYlYXu/ycNYlhfv7pTjbO1eYR5qjrseD0hbJq2Nw4daqVwhW/tlxqYIJ2dwAyYzGNfsK5wMh/1ZJUBwkcCzHnS7yCAjxwtoRinsmmBuHkAl2ZVzzlyVGc9MVAPV4yzaiLtzQunBwVa2RWbYzmHPE+GqtoI8/reFU3tUnjmeSbwlflcpCcrMs1tUpWWKwOSjrUNPnEXg/iOeZUGgv52d9fPY/f7239JQnGy33YNq7uw9WVljbHSel+oq7X6wz/YToVh5n7XcQCare2e06zD1G4HX2JgGGOAHIcJm9q49MQSFLKwdAAvuGvIfMnn7L4pSYP1oYmEJK/0AzI+JKNWBjLbB5BdpgUD9zmEgwvyITpSm6UkB4Jf9jaP/iL0UFXvuiWhf+ReCk72UYpdcK8vG1KwiWnPDlGGJBwJ5TkcEljxsVUIYZrY0LVASejsYom5nDRjSbOAZv0K+anlqPPvUYWu8GGJD9xbUi3MFEfpPzpGe48pzOZ2KozWfjRhfP4/ci8n11kvNyHeuPqPlxdaWl7nBTuJ+r+VK8zVFPLHh4lGCi5yTi70O4DW2SHXyFgmCN8HIfpm1p8GvPMNq/ur/aKqlIVfa5QhCKXNb6QpIWGQEcXPhnhzXTafPZtHvQ1ZvXJl7czFt/aEnme6kS/gdjY1JIu5nuyeR2IF/jAuEDsvG69MXp/2XTp4IVnPDlGmJFyx7UgHyIOHHYUL57nbPzWxriO445HY8UtFfHkBtTNXeAUV8p1JXx5jrivEmzP5NPpnD61LqoVR2gDcYhDcE3w7HJiZ07BR6HswJMz+T3Q7OVFGS/3odi4ug9XV1raEyd4P5mvLu3x4UqsV9JtmCObHIf5m1rfiOlGNJvY4uu04Kwv9Hn3BIVhtikohLpvwAA0evFitN6k6E/EvA5XnEZ55d9N5m3K6iQ7ua/hq75RF7ed8IlLvsHLrw04yQIdbCb84F3akffziqtg28j/stwFhRpDxCzwk8SNxxQm1MaC/GMPRmOlraWcpzjiMeTiKwDFV/JmFPHl6/RfK3crMw1mvE5xLOOba8wda9uTPSirU8dDn86cHT3Xzua3x7Zfnmu83Id94+o+XF1paXecUL0X6i1ZU9XrjDF1abcPVwK+iG7DHInkONygqV0k+syNWyDAk+MWBl9opGF1IfgnqDZ+TwD5AxXGywegXbTEuLoI+JupXSFOVvDhZmHjHhTdzeYR9vLYs6Z2BMIm87YI8OS4rRMnGW5YnQT0RWqM34uA31FrvOwANNGwcTURGRObskKcrODDxCGSNc0wR1g4Dj/c1OLXEgGM3Et+RTEbT4Muml2DgG0Sy5OjacEPTzKsgPxZ8/X7wDR+v8dwhATjZQSqY2QaV2NwXU3qCnGygg93iyvDHBnjOPxwU3u38DV7z0CAJ8cZ+u6sw7C6M3v7thu/+xhdMcN4uQL1z3QaV5/h9murVoiTFXy4W9wZ5sgYx8E1tXDBXoaBxYDFgMWAxYDFgMWAxYDFgMWAxYDFgMXAXWKAPpCwJ7WEhL0bAttmP7zviALY7Oy/dREwfufk1niZk5ecVcZVDhW7phFYIU5W8EHzMvu5YY4McRysqZ09as2+UxHgyXGq4hsqM6xuSFqHycZvB1gnTjVeTgT7S1XG1ZcA/sjyFeJkBR/uFm6GOTLGcbCm9m5RbPYORYAnx1BFCwg3rBYgseKC8VsB58Ih4+VC8DtVG1edgP3o9BXiZAUf7hZ+hjkyxnGwpvZuUWz2DkWAJ8dQRQsIN6wWILHigvFbAefCIePlQvA7VRtXnYD96PQV4mQFH+4WfoY5MsZxsKb2blFs9g5FgCfHUEULCDesFiCx4oLxWwHnwiHj5ULwO1UbV52A/ej0FeJkBR/uFn6GOTLGcZi2qf3399wez7/tH4+yf3/b8/HYXm9+cdvi3H/b3xP/Wpme41a8X/hXnrVcKU6eeZ0AGr247PcrXsfx18bNc+N8AUjPyOz5d3FJp17jcAi6EItwSl4BBsH/AXjBv9zpMRH2KZ8Tu8i+i995cowwhbChWHo8eLxEPvLjPtYLsUj2kg6BPw0e+D4aq3ZTC7FeEkD7gMeRxyJhV8LfjfMFJR10XcV9zD3ME8GRs+u5/YlNjwSd/z4DvzU+4r7PsPF4a4ri3Jhjeo6TQrER9si2nGMWDD+cgZfhTi6iwLhahMjBbnTHib6vqLq4tm+CK9n7WEamuD/tYNDtw448G95HwDBHjDgO0za12PipAo8KDlWNQIJi8mHB8nxmGmKfyK8Xb+p2gsbrk+re24s1IlE3ynLFkxp/cAE5mX4zad1AnE7wkekB7Z82tYfhBUaAf8/X9noSJ+7i9nqwc4eB4hbhu/z/PDlGGFOPFx+/oavxBTjFD8RJUmzzpriE/whPZvpL0YgTwVT11udanPveXgzTOj+FYqCkMBPnkKOU50JXYldJ6HnXR+dCiycCI9rjaN9zmKl9xO+vYs/1e/9H94iWnGtx5MA5M/ByoDtLizKulqb3MOe64sTvcfEeBmZcX5d2+XAYcr8tyDBH/jkO8za1my7w/ZON12t7UlHj/IFkpsKGilt+zQe9K4Be2xs2BFbEllMCZKRPhfV8XXTh5hLXwXgssFKfgjy3UakGJQzKA9T5xqfSbGf7tKl9vY/AC2wk/JWfiW80T/o1wxlPjhH21ONF4UZFfClek6KecE3ljPBlNFbtNpPfDSsSzOSaOj89Te3+/hF17c+VVp5zNgO/ESPymWOVxrmbP/IesRM/ZOXI9xl4GenfSrKNq5XYHOdLe5zw/a9sT33f1PexdB8NkpPaLYwkB+0+JEvtwocIGOYIHMdh4qZWP3mEZIbmVSW1SLpY3OqkDg0fzC81CTywhFw+II+1Hv2EGcZDU1stiMg/KT93FnQqecFHtyhiIWQI/+OcINNPDrLEfCEpOQlr1AcS7rrAvLKJJlLPvcCTY4RmjbOMF42LPlcWqRgt4a9WHXY6Gqt2Q2Mc76/BuY/wQZhcUedHFwNyrThzuVn/kAp14YdT9PRWyLj4ZAZ+9/iIMQ9g0R468B6hcu4Kimbg5Qq/76jTuLoja+fb3BwnjfvP3r4J40fXpc0+nA/vshoNc6SW4zB1U+u+ykpPZaFI9I0RT1hZ1LDiViQ/FTv09Uz1W91cyIv1+ndVsVjltoAYt1mwBi7dPOJaqVYVYnJQnHGdXF8RC74a/Ar2HYiXKOJRLhXqzq6gE43hPnDzrj7myTHCFu0354+edIMN8UXfQtDWSIyxOabYUmN66UHno7FqN5PFceMih7vDWeJb56ejqVX7R86skg25uVdcm4HfPT7OvUeck1d7XM/Ay56NNo4IGFcWCS0INMeJuq+42irUC3T/x/sU1V+g391rWA3mzulbfqJ209a216XNPmgVdv4xAoY5QsdxmLupdZ+841d5RcMWGjNdzPJzloxh/udNbYg6tanEwtQ3ImzjgDXp5iGL6CA3PGWIV0pHIDNuWOgnnAuMwleBlRSOhZjzDV4cd9Ani7+0qZXjysJLT3lyjDCkHi8ZXFy8pTHj5IRYq+M/wg+QORqrdru1/7iydMPncnFOxLfOj8pnLkgfq31CD8M55THaEAuS3Nwrrs3A7x4f/OceDkcq1MI+p2ODn/fteTLnrmAEdc7Ay3Xe30uzcXUvvq6ytjlOSvcVdX1v33TjtFe6pjbeAyUGsEeWxuTMZh/kMjv7AgHDHMHjOEze1MbCD5KQcjB8zewNfw2ZF4O8YIlfX4a1oQkMxc5eJLGCh0/NbB5BNp/nj8XmwZr0ZKqSm4yzC8IfuO7X/sFfjA4gIRbaNlf4FZohKgqF/Ca8ECsIrOQFuhLfJE/MtcsPeXKMMEZgmyjIcZbGoYupwCEI2cE/0XPMhdFYtVv5TTzJtXV+OpraWq57x6IutCHmbrvnI2fOwG/EqOwpzYH3sP3Rh4QH3SNAdvyGS9mWM0Zm4OUMP1fQYVytwOJ4H9rjJK0HnHWqxqI9sWS528/CZlmQCYuV3JI8uN7uQ02KjfUgYJgjWhyH6Ztal1TPZ7Z5dX+1NyQmOCcLVPxKJjRarPFtatIQKHyCwgulNMn7Ng/6GrP65Mt9UsYa752oTnX6ohiaSoYH2s98TwrtY/GKZqPc2FCrTbNjo4wyzzniyTFCY8od16Jxo3ijePE8i4aWr6fjjBwaOvB9NFbtpqK/LPSLSyEnYlxqfOOHaCUBshgozcLrmH/EXbxG+mUsYI7QWF3yOaMz8CsxKvjt9vRR94jWnCvYNuDyDLwMcGtJkcbVkrQe7lRPnMxal/b4cDiAPyrQMEfiOQ7zN7X0FEoV8tnE1k2tP+eNHjbJDb+ppSTxDSeARi9eeO4VXdki2DV1UV7pj9aQCfo9q5PsVJU94ZSzPfkQ4Ai8nLGZporsczjKQl/7d+U5T44RdmS5C4p8Ac1iDewJlCZx42MoTCBBGfxp6MD30Vi1m5rDrRRjeq6cV+en50ktWq/zjz/tS3T5HEnobAfi0Jkz8JtglPUQPxDg2MI0wl7iifzHaz4e4gV8OkH3m+acyxo25OIMvAxxbEGhxtWCpA5wqTtORD2FdcDVdWm3DwNw/DWRhjkyznG4QVP7a2Fq/l6JAE+OK+24g27D6g4sfW6j8fs5diNXGi8j0T1WtnF1LJ6rSlshTlbw4W7xZZgjYxwHa2rvFsVm71AEeHIMVbSAcMNqARIrLhi/FXAuHDJeLgS/U7Vx1QnYj05fIU5W8OFu4WeYI2Mchx9uav1X1tRXPQEcePGvcpwb6GbXuXhLbTw55IidaQR+G6tZ81Sz9Pn5b/P7OW6jVxovoxE+Tr5xdRyWK0taIU5W8OFuMWaYI2Mchx9uau8WvmbvGQjw5DhD3511GFZ3Zm/fduN3H6MrZhgvV6D+mU7j6jPcfm3VCnGygg93izvDHBnjOLimFi7YyzCwGLAYsBiwGLAYsBiwGLAYsBiwGLAYsBi4SwzQBxL2pJaQsHdDwP6tta4YgM3O/lsXAeN3Tm6Nlzl5yVllXOVQsWsagRXiZAUfNC+znxvmyBDHwZra2aPW7DsVAZ4cpyq+oTLD6oakdZhs/HaAdeJU4+VEsL9UZVx9CeCPLF8hTlbw4W7hZpgjYxwHa2rvFsVm71AEeHIMVbSAcMNqARIrLhi/FXAuHDJeLgS/U7Vx1QnYj05fIU5W8OFu4WeYI2McB2tq7xbFZu9QBHhyDFW0gHDDagESKy4YvxVwLhwyXi4Ev1O1cdUJ2I9OXyFOVvDhbuFnmCNjHAdrau8WxWbvUAR4cgxVtIBww2oBEisuGL8VcC4cMl4uBL9TtXHVCdiPTl8hTlbw4W7hZ5gjYxyHaZvaf3/P7fH82/7xKPv3tz0fj+315he3Lc79t/098a+V6TluxfuFf+VZy5Xi5JnXCaDRi8t+v+J1HH9t3Dw3zheA9IzMnn8Xl3TqNQ6HoAuxCKfkFWAQ/B+A17ZtVfsu/TeACYTyO0+O8qzPRwgbiqXHg8dL5CM/7mM9G4uZtQn5n9udWzkaq6izEMtxgjyiPPc4cRjq+PvY5QukZHYW8c5OJxtCrmVk05yMnU7Rl/sEM/ajw/P4LZtX4yvu+2z9gHuE0xNyjucr03vi4Qy8nOjurVUZV7em7zTju+Mkc2/g96HavglOuXG+AC5mZOoaswZItw81YTbWhIBhjjBxHKZtajHBntsf72qpCFTJCAmKyYeF5vOZaYh9Ir9evKnbiRuvT6p7by/WiETdKAsLoFj4JJtHTqbfTFo3EKcTfGR2gPZPm9rD8AIjwL/na3s9iRN3cXu5ZvbtPnRo9RMRPff/PDlGaK7Hi4/fEPS+caIAhDhhTZKMNZxLU0fYrmWOxirq6/DN51LE4b29GGZ1/As3+2gIO/Jcdew1Yi/YsdPlkf4Ar3OfYMZ+dHgev2Xzqnw5PEbfI9L4ecTgKhs+cGQGXga6t5Ro42opOoc50xUnuRpyu74u7fJhGJK/JdgwR745DvM2tZsvGkOBjwXn8/XanqKZg2SmwoaKX37NB7krgF7b2zVd6glwNg9ARvpUWE/VRdfmNpe4ThSyGZ+CPLdRxWY4XM8coE5sEHmB9WlT+3ofgRcYSvin3KEbpesZJy+6xJNjhAn1eEnxcZyypkzYJIp6wl7MGHoyGqtofIdvApMogY7q+Pc3tT25I/aCqp1pHJD92Oy27RNhzYcH5/FbNrDOV4qTmz/wHlHNx7Ibh47MwMuhDi0szLhamNwDXWuPk3nr0nYfDgTux0UZ5hgAHIeJm1r95JEaL5XUohmMxa8uhkLD19rUCrnlzNF69BNmGA+NZ7WQJf/Kumgk6FTygo9uYsSC1rl34X+cE2T6yUGWmC8kJSdhTbF5T4vQRMjFF3hyjDBF4yzjReOjz5VFIkZxLtiPL/qgR6058HQ0VtFU9K3tARnhkPe/jv8nTa3/sI19+BbyQOUO6A57gc+RR/hALnorY4Jdd4ft+4Re2Xt+Hr9ly/b4ClgLbEbdI1Du1d80mYGXMmM2whEwrjgadlxCoDlOxD2/JC29J+l7irgXqTpSSm2/3zT7IBXY2RcIGOYIHsdh6qZWPJWAxPNPrHihI4saVvyK5GeJqQrNYjyJ9fq3jPFJCbcFZLnNgj1ZSzePuFbqVoWYHBRnXCfXV8SCrxb+H4iX2xjJN5SbFn+l69zAa495coywhHMH8jl/9KQbbIivfHNGc1OM0WoXC+IbDcd7MxqraDGL03ixeuRwdThK/Or4ez6aumdmk9grynuNs0nJztopckm72b5P6JW95+fxW7Zsj69T7hGOX5+Tir+y5eNGZuBlnHdrSTau1uJzlDfNcSLuNXPVpc0+jALxB+Ua5kg6x2HuppZ9lVc0bKExY4Wl842fs+IvzKfffDZ8/VhtHiFf1PVYlPqihzW0sEYUsgd9IiYLPfQTmhuBUfgqcLAcDzgWYs43eHHcQQ2epw1X6bqy8cJTnhwjzKjHSwYfF2+yMQO7nBwVa9JexqccOOxsNFbRUB1fOIKNO30AQB+oxFVwhHMifnX8Vb5KUeqM28Sw5vnFj4mzQlMk7Dxon1AGd5+ex2/ZtD2++M89xP4XsOc8gR5+3sYbtw55yscanzfyeAZeRvq3kmzjaiU2x/nSHCeuHsjsP+r63r7pxuledND9ptmHcTD+nGTDHCnnOEze1GKRCc0RJCHlIBYyz+3vDX8NmSc4L1ji15dhbWiwQrGzF/+s4OFTM5tHkM3n+WOxebAmPZmq5Cbj7ILwB677tX/wF6MDSIiFts0VZaEZOgovxAoCK3kFXWBo3ibm2uWHPDlGGJNwJ5Tk8Enj0MWUwFUIwZPqjSoz/4NLo7GKJsk4jddbjuTaOv6fHKGfOQAAGftJREFUNrVte43jLeSntp3bmXIeZnfsE2HNhwfn8Vs2cI8vWElz4D3CCxgOuEeckFdlNHBkBl72bLRx48pioB2B9pwu3BvUfYH2xJIFMB5rxYJMWKzkluTB9XYfalJsrAcBwxzR4jhM39S6pHo+s82r+6u9sYoJTVO45AoQaLRY4wtJutcQ+KjCT+V5oZQmed/mkT45cqq8nboBLQV3qhMLYiA2blSki/meNNW8kHaPtdw/mfQpXtFelJv6U7oeV159xJNjhC0pd1xLBh93U6EnjTiei9/3i+agPHfTaoxzbkHP8Wisoi3od8jrOJAcQc6KuBP4xQYoWegvONxaFIknfm25w2Xv2Yl7j+QUfxfFPqArOXHQ9fP4LRtcz5dA2vYYdY+AvZnFA/LC99Sy7aNGZuBllG+ryTWuVmN0jD89cYJ70Hx1aY8PY1D8PamGOXLOcZi/qfWNmC7ks4mtC01/zhs9bJIbvn5M+REa4/gUkhfNe0UXL2RJJH76FeVl/1hMmJweZHWSnawAg5WEE5AOL247PTmNS3zTFC/gJ3XdzZFuzvCTQLKB3qUtqZ9XXAHbRv6X5S4o9PirJ96BDteg8bjxxzBBj3VzFoxoPhiNVTQkh4tq+MJkPVfOq+OPTa/YL4JcfYB6AjcNe43cC+p2Om2a09wfldJmHXh+Hr9lo/f4wpV+f1ExT3tf5Ahm9/LWwFPZ/CEjM/AyxLEFhRpXC5I6wKXuOKF6j9UKvJ7a2zflvcg79OX9ptuHATj+mkjDHBnnONygqf21MDV/r0SAJ8eVdtxBt2F1B5Y+t9H4/Ry7kSuNl5HoHivbuDoWz1WlrRAnK/hwt/gyzJExjoM1tXeLYrN3KAI8OYYqWkC4YbUAiRUXjN8KOBcOGS8Xgt+p2rjqBOxHp68QJyv4cLfwM8yRMY7DDze1+a/EAjjw4l/lODfQza5z8ZbaeHLIETvTCKyN1ax5qFkYd742v+NwGy3ZeBmN8HHyjavjsFxZ0gpxsoIPd4sxwxwZ4zj8cFN7t/A1e89AgCfHGfrurMOwujN7+7Ybv/sYXTHDeLkC9c90Glef4fZrq1aIkxV8uFvcGebIGMfBNbVwwV6GgcWAxYDFgMWAxYDFgMWAxYDFgMWAxYDFwF1igD6QsCe1hIS9GwL2b611xQBsdvbfuggYv3Nya7zMyUvOKuMqh4pd0wisECcr+KB5mf3cMEeGOA7W1M4etWbfqQjw5DhV8Q2VGVY3JK3DZOO3A6wTpxovJ4L9pSrj6ksAf2T5CnGygg93CzfDHBnjOFhTe7coNnuHIsCTY6iiBYQbVguQWHHB+K2Ac+GQ8XIh+J2qjatOwH50+gpxsoIPdws/wxwZ4zhYU3u3KDZ7hyLAk2OoogWEG1YLkFhxwfitgHPhkPFyIfidqo2rTsB+dPoKcbKCD3cLP8McGeM4WFN7tyg2e4ciwJNjqKIFhBtWC5BYccH4rYBz4ZDxciH4naqNq07AfnT6CnGygg93Cz/DHBnjOEzb1P77e26P59/2j0fZv7/t+Xhsrze/uG1x7r/t74l/rUzPcSveL/wrz1quFCfPvE4AjV5c9vsVr+P4a+PmuXG+AKRnZPb8u7ikU69xOARdiEU4Ja8Ag+D/ALy2bcvZ52wrYEimzfDOk2OEPYQNxdLjweMl8pEf97FewVHi/Nz+RAId69ForKK1hViOE+QR5bnHiedAHX8fu3yBlMzOIlfZ6WRDyDW/tCX3aW3J/qxCZtpBh+fxWza4xlfc99n6gfcIskXvu0z7KYcz8HKKowsoMa4WIPEEF7rjJHMf4bcF2qtALr54nVG4z2Vk9ux13T6cgOvqKgxzZJjjMG1Ti42fKsqp2OPZ65soTD4sNJ/PTEPs571evKnbCXmvT6p7by/WiMDmwRMfm4q4gbjNhQvIyfSbCZdTs8zpBB+ZHTDf6Q66Co0A6A+F9sF4gRFO/mt7PRku4F/QSY1ZxKjm69ljPDlG6K7Hi+cjdKJ4/iBOd3DMFvkjnPAyR2MVTS/EcpwQj3wuEWTb9t5eLPbq+Bdu9lE6O/ogd1pyv8H+EA/MmhGH5/Fbtr7Kl8PqpHtEbl8rmz10ZAZehjq4kHDjaiEyB7rSFSe5+wjc51g9WN036cFDvEli3aYfGPl7UWtd2uXDQCx/SbRhjmxzHOZtajdd4GPB+Xy9tidLXle0PqiwoeIXEpyu+RB3Cfra3q44UU+As1kAMtKnwnqq3jzQnrgOxmMRmvoU5LmNqq3RQ51vfCrNNqZPm9rX+wi8wBPCv+KnmwZP3BU/AYhrD3hyjLCkHi8pbtVGVRT1GQ5HOMBkjsYqqqK4ileKRwKTdFYd//6mtj13Um6DdTz3G+yP+0mQMOTgPH7L5tf5SjF18w+/R1D8pfrKlo8bmYGXcd6tJdm4WovPUd60x8m8dWm7D6NQ/D25hjlyznGYuKnVTx6paFdJzQvC0FT5Bjg88WKyWptaIbecLEnRpYpSGA9FqBqTUsk/eTV3FnQqeZ83tQfgJZ4U7xR/jdjmfB99jSfHCF2BOxIuONS46XNa5N85jl7O03/9HvwIcaeWHXU6GqtoJ+LAPr+JQ8kRzn0UPjSp4/9JU9uYO4JnbTTP/X37R/NK1p3HL2lM3/f4knse4XjsPSLq2MnH1PwhV2bgZYhjCwo1rhYkdYBLzXHC7/kVO/b2TRgP95Hme1NF4ba5rznXZ9jo0Qg0x83RiieTx3GYuql1X2Wlp7KQeP5rhDxhY8EBKLPiVyQ/FTv09diGJ7ViPX1lNv19ArcFLHCbhfq6o9w8Sk9jVSFWCRquk+srYsFlgV/BvgPxchsj+VYr/mpj3NBrjnlyjLCAcwfyOX8Uv2BDfJWeaCscXbyyuY6P+I2BEb6MxirazOI0XqweOVwdjgwTjzf/OpXE/7OmVuxT7mtgXifPNZEf2vQ092v2h/1Eizn4/Dx+y4YDDjW+BPYj7hGCN5VzZbOHjszAy1AHFxJuXC1E5kBXmuNk4rq02YeBOP6aaMMcGec4zN3UugIRC3PRsIViURe7/JwVimH+501tSBa1qcTi0zcioWHEFW6cHjG5AkkW2UEuL4bjxeyRLPTQTyj8BEa8wedSOBZizjd4cdxBWbn4c3gojLh5Vx/z5BhhSz1eMri5eEtjJsFRxWWNg6P8Go1VtFPHF464eA8fANAHKnEVHOGciF8d/w+bWrZP4W/K/YdmPNc+zP2s/bSfSFcPPzuP37Lpe3zxn3uI/S9gr2OHn+/teXyuiyb3kw/eZJctHzcyAy/jvFtLsnG1Fp+jvGmOk+Q+7y1S1/f2TTdO95EP700ai2Yf9EI7/xgBwxyh4zhM3tRikQlFBCQh5WD4He0bfpvJi1lZhFCRA2tDIRKKnb04YgUPn5rZPIJsPs8fi82DF796rpKrh/m58AcG/No/+IvRASTEQtvmMAlN5VF4IVYQWMkr6PINAzvnPs1yzJNjhE0Jd0JJjrM0Dl1MaRyTG1NOllD29clorKKBMk7j9ZYjubaO/6dNbfx5g5Av9pqUx2B9NfdT+2OOBwlDDs7jt2y+wLMwjebAe9j+6EPCr+4Rbftawaxhl2fgZZhziwk2rhYjdJA77XFSuI+oewjtiSVzYTzeRwoyYbGSW5IH19t9qEmxsR4EDHNEi+MwfVOLTz6e2ebV/ZXjWMWEJ4Thkiv0odFija8oNOvhg09JeKGUJnnf5pE+OXIWeDt1A1qyLtWJhS8QGzcq0sV8T5pqWTDHf2qIrenAK9qLcqM/3j7diMUF0xzx5BhhVMod16Jxo3ijJ401HNVadzOidVzHccejsYqWom8hr+NAcgQ5G+NO44dNqxhXEuTNXg2KU2VTw16D+4niROV+i/08x4VJB5+cx2/Z8Hq++HVujzrjHqFyrGz20JEZeBnq4ELCjauFyBzoSk+czFqX9vgwEMqfEm2YI90ch/mbWt+Ixd+BohPZxBZfp4V5WISIIrC3SQvFanwKyYvivaIrWyS7hiPKK/1Rm1J2ZnWSnaryJ5yAdHhx2wmfuOQAvJzRqvhL/PW+R8UlV0+/zpNjhPIsd0GRx1898Q4w7eFIMeDXh3VB/rEHo7GK1uZwUc1hmKznynl1/D9/Uku5tLvXJBxK+4KcEANyPLufBN+PPTiP37Lde3zhSv9EVX1oRnufzAOMj3jNx0u8gE8nlCzUg3PlHlq2fdTIDLyM8m01ucbVaoyO8ac7TtS9HtbzfWlv38zeR3bvTXXfu32oi7PRBgQMcwSJ43CDpraBWZtiCByEAE+Og0QuK8awWpZa55jxOye/xsucvOSsMq5yqNg1jcAKcbKCD5qX2c8Nc2SI42BN7exRa/adigBPjlMV31CZYXVD0jpMNn47wDpxqvFyIthfqjKuvgTwR5avECcr+HC3cDPMkTGOww83tZU/AqK+ynFuoJtd5+IttfHkkCN2phFYG6tZ81CzMO58bX7H4TZasvEyGuHj5BtXx2G5sqQV4mQFH+4WY4Y5MsZx+OGm9m7ha/aegQBPjjP03VmHYXVn9vZtN373MbpihvFyBeqf6TSuPsPt11atECcr+HC3uDPMkTGOg2tq4YK9DAOLAYsBiwGLAYsBiwGLAYsBiwGLAYsBi4G7xAB9IGFPagkJezcE7N9a64oB2Ozsv3URMH7n5NZ4mZOXnFXGVQ4Vu6YRWCFOVvBB8zL7uWGODHEcrKmdPWrNvlMR4MlxquIbKjOsbkhah8nGbwdYJ041Xk4E+0tVxtWXAP7I8hXiZAUf7hZuhjkyxnGwpvZuUWz2DkWAJ8dQRQsIN6wWILHigvFbAefCIePlQvA7VRtXnYD96PQV4mQFH+4WfoY5MsZxsKb2blFs9g5FgCfHUEULCDesFiCx4oLxWwHnwiHj5ULwO1UbV52A/ej0FeJkBR/uFn6GOTLGcbCm9m5RbPYORYAnx1BFCwg3rBYgseKC8VsB58Ih4+VC8DtVG1edgP3o9BXiZAUf7hZ+c2L+b/t7PrbX+zw0OQ7TNrX//p7b4/m3/eO4/Pvbno8UrDgXwQQHs4C+X/hXnrVcrkMfe50gk15c9vsVr+P4a+NcunG+AORnZD7/hKfaCnFOOvUah0PQVQgswCD4PwCvbdtS+6IewvAR7BSuXX4C9o38j7AJODx4vGRwEuMQOs8QhyBDwEjx7WL1uXWE1EcuH41VHRsXWAXf93EjB0mHwM0NRhnpGNMdcock5t6jrMiz4ooty9tU+3dyY8xQPOi9gIn/+PAYfhGLBFOxD0UT81jAeA5TwqEBK7XnJvZEE9jRlzpFPpb5ZwqbDo/hpUmVTfoSAePqSwB/ZHl3nKj9DNbzPY32UbiOL9orEVA3zhfA5YzMnvtKtw8/wu1IN+uYN9wXhxhXuOcrXfnaJXPP1XGq5MApx2HaphYTTBXmVCQoJyFBMfkQkOcz0xD7Zuv14k1dBh1+yeuT6iBQ4gYRdeNCJEqOiwYuJ9NvJq0biNMJPjI7QLvTHYwtBBboD4X5wXiBEU7+a3s9iRNn2emf3CAb/f/nydG/en9FPV48H6EbxfMQPxAngTtqcH2subhi+eLOYxzuW9Y/42isqtj4HAnhvb23V8BC4+Y/WImTvXOQu8/t9XpuAdPg9pG5kNrj8uLBc4IU12zyc5zvjFt3GW9Yz7+3y63WvYO0trwfwy9ikVLB9yGypoZFiinES8JjFSv/waHOFVKfvH+hsxqviaKuC8fw0qXSJn+IgHH1IXA/tqwrTtz+JZvYDe6HrB6s3kt9LSz2zpxMv4e13lu6fPgxfke524x59r44yqrCPT+oq9Uue2uDEHHAcZi3qfWfzPOEcon6em1PlryYzFTwESBYHIXeANx3pL62NyRvKIYFLuoEgU+KMT0rNNQ0INfJwistkmgVFr1tTQhuWFjM8o3p06b29T4CL/CE8Nd+0vXg7bQHPDlGGKlvNhi/dIPSuPnGtRSvbKNy3It5GU4PduhorKrYMF9TN1Lc8MMV9U0Pyn3aC4QgitEMbjSf1ot1uZOMPTDNFQ4qx0km6ciKg2+o0B6nJxR06WkfnB/DL+GqDCC/+WW6lsUi4yfN5zLcWoUVzBP3jIJNXI47/kJnzo5E/mcXjuHlM922qg8B46oPr1+d3R4nsr4s4VW9lyZNbWafI8HJ3kkD6Xu7D+lau/IZAs2YF+9HyD3IwRevTzL3SX3PdXJpraxjsa+gMXVPdu7m4i6jswEajsPETa1+8kjFpkpqkXQREJ3UoeHTpJQAE3JLk/CJEG+89RNmsCM0nsXAAvnkX1kXjQTflLzgo5sYsaB17l34H+cEmX5ykCXmC0nJSViTfCCBemLi5AI8EXfJBZ4cIwzQOMt4QZxiPOlzZRGPUX7spqk8UUuPOD0aqxZsHtnmTuPk4019IhXl6/mABl6DJXEeohTiujkXcvJBVspJ1FVaQx/IlXKmsu5Lko/hN+IqzMlgWcdC+4nnYW8l4WpPhMuOP/GBj5ZFi/W7nteuk+IpH69aT9/5Mbz06bTZnyFgXH2G26+tao6T5D6fRyrupX5c7YswHvZONSYlttelzT5IBXb2BQLNmGc5Tu9n7l4ZPgDGcVFGifs21jOxXqVvz3m5rFYT8Rb8xXlxPQzQ2lozHASEA47D1E2teLIBpPjChCdsKDide4wEkfwsMQUpAZP0QKz3hVHm0wxuCwhx5LECSpDpAot/EsLVpgUvH+XHXCfXV8RCLmZPqg/ES/iWC9ZohEyceH2GI54cI+zh3IF8zl+a0JDY7c2MkxVi9Lk9B/9Y/2is6tggG9FHjoveCDNf81WbuotBlqeEvdvARe5/sHckH+pQJKkc37XJr1PzSBq+13NNzu07O4Zftsdw9XofVj6W+AGb6CVvhl64kgNXU1npBxfctHjcEFeooPgkPR+vUcMnR8fw8olmW9OLgHHVi9hvzm+OE3FvmqsubfbhNyke4nUz5pn7Yvj2qrCM1Tvsg/4whd+3VSyGOXvrwsT92qW1V+A4zN3Usicbzjn6yCAAqwsmfs4KyDDfdRGsqQvopgclwtT1WLT4YksUyr5pIbtzgRU082AKF7MHsvhHP6HAExjlAgukcSzEnG/w4riDkr1gZbqyHl53kSfHCCvq8ZLBzcUbb+DQKidHxZq0dzzGR2NVx0Z6h5sd4aJwUzkKK918jleSizyGGXY8X/ixNEedKXvCKJPbZJNfmNgaBDbkGp/bd3wMvxxXpl9h2cpPaGQzHDvpGawS2bv7E9mpeOzQSRLoXcYrXf3s/RhePtNtq/oQMK768PrV2c1xUtqD1PW9e6kbP7gubfbhV0ke4Hcz5pn7onhoGGzj92t+7CdAnFEdxY/DejjYWRfmqvtruM4PZM3ER/gxx2HypjZ+og5JSDkYvqr7ht+a8SefEkxXSLze8uuERSI4RHBcADOzeYRCS4ugJ3HB8IJMp07/7isjzF8CLIROb9Mf/GXcoCsfMLLAOwov9AsCK3lRAnB3cgnGxy885skxwoyEO6Ekx1kaM+6GlMOVy1JxyoeOOj4aqzo22moeuxq3/HkSm+IPN3F5vgn+eO/Q+r3tghOcU7fJr6vmS0GXhuuD82P4zduX24fqWGg5+ryClcAd5uHasFUWsdE69HlFZyKzVWeyMLlwDC+JWLswAAHjagCoC4psj5O0HnBwqD1u717qaoiwARZkgmAltwZ9uw81KTbWg0Az5rkawl3j/RNohliQDwtCmLhh1dSK/ossz9zrII6SmrVwPyUx8J6zm4/7Y47D9E0tPll8ZptX91eOBeIKTAcINFqMuCy4GZQcnvjPpwgVKsn7Ng/6uggFjdfr7RSNat4kdzXViX4DsbGpJV3M96RRPxavaLIM1vdL+us21CTA4+orj3hyjLAj5Y5rkbi5ERdvhJ/neRc7vEm1xhO3oOf4aKxq2EATJPzJ4JKO+9gXc6OHrrEKe8ORuZDhUed4k03e1urGntEVXfzq6Ch+Jc5gkiqimrDI+OnW8f2tdBPM6VPrskh9rrMer1llzReP4qVZoU38GAHj6mPofmphT5zgfsof8qTNZ+1eCsC6GowVtiiT6gwPvb5n7TDS48OOKBtuRKAZ82wNgfe3pGdg9aWIEx8PsTnVdab8TS0LL/UNUXIuvb9+2itwHOZvan0BFIFEQLKJnXwCn5Imv35L4FbeiUj2FJIXz72bh9PkijH+VFNtJhVzYCirk+wUkUSNbdTFbU+fWByAl7NdBav2lyXNjqunD/PkGKE8y11Q5PFnsQb2BEo1jjQPJhD//prkOSg49OBorPqw4Tmj4s15GRsZkMs37ghCnHNsLuR45PamRUXeJn/VcSvXU2MIHPDXkbwfyS/t12Qrt7OHH76OMAj5AXBlsaLrhJXGMqIvj+pxFeZmdeoYaNUZpBYPjuSlqMQGDkHAuDoExuWFdMeJut/Der431u+lhftPUl/07VndPizP6ngHmzHP3qPAPqyBQI57JbU5H8/86zEiDile8N4n7ssQW0E2l0n3ZB+/OgbDmjqWHIcbNLV1Z2zUEDgSAZ4cR8pdUZZhtSKr0SfjN2Ix05HxMhMbdVuMqzo+NooIrBAnK/hwt3g0zNP8sab2blFs9g5FwDaJdngNq3as7jjT+J2TNeNlTl5yVhlXOVTsmkZghThZwQfNy+znhjkyxHH44aY2/wgcwIEX/yrHuYFtdp2Lt9TGk0OO2JlG4HexmjVHNUPfna/P7z15XJ+X7+J2ptXG1UxszGvLCnGygg/zRkjeMsMcceE4/HBTmw8Su/rbCPDk+G0k9r03rPYxuvMM43dO9oyXOXnJWWVc5VCxaxqBFeJkBR80L7OfG+bIEMfBNbVwwV6GgcWAxYDFgMWAxYDFgMWAxYDFgMWAxYDFwF1igD6A+A8dfmf6lX+vqwAAAABJRU5ErkJggg==;" vertex="1" parent="1">
          <mxGeometry x="40" y="30" width="1190" height="907.86" as="geometry" />
        </mxCell>
      </root>
    </mxGraphModel>
  </diagram>
</mxfile>
